SplineFontDB: 3.2
FontName: GenSekiHentaiganaGothic
FullName: GenSeki Hentaigana Gothic
FamilyName: GenSeki Hentaigana Gothic
Weight: Regular
Copyright: Copyright 2014-2021 Adobe (http://www.adobe.com/), with Reserved Font Name 'Source'. Source is a trademark of Adobe in the United States and/or other countries.
Version: 0.1
ItalicAngle: 0
UnderlinePosition: -100
UnderlineWidth: 50
Ascent: 880
Descent: 120
InvalidEm: 0
LayerCount: 2
Layer: 0 0 "+gMyXYgAA" 1
Layer: 1 0 "+Uk2XYgAA" 0
HasVMetrics: 1
XUID: [1021 501 934139072 11906778]
BaseHoriz: 4 'icfb' 'icft' 'ideo' 'romn'
BaseScript: 'DFLT' 2  -74 834 -120 0
BaseScript: 'cyrl' 3  -74 834 -120 0
BaseScript: 'grek' 3  -74 834 -120 0
BaseScript: 'hani' 2  -74 834 -120 0
BaseScript: 'kana' 2  -74 834 -120 0
BaseScript: 'latn' 3  -74 834 -120 0
BaseVert: 4 'icfb' 'icft' 'ideo' 'romn'
BaseScript: 'DFLT' 2  46 954 0 120
BaseScript: 'cyrl' 3  46 954 0 120
BaseScript: 'grek' 3  46 954 0 120
BaseScript: 'hani' 2  46 954 0 120
BaseScript: 'kana' 2  46 954 0 120
BaseScript: 'latn' 3  46 954 0 120
StyleMap: 0x0040
FSType: 0
OS2Version: 0
OS2_WeightWidthSlopeOnly: 0
OS2_UseTypoMetrics: 0
CreationTime: 1746358154
ModificationTime: 1746363152
PfmFamily: 33
TTFWeight: 400
TTFWidth: 5
LineGap: 0
VLineGap: 0
Panose: 2 11 5 0 0 0 0 0 0 0
OS2TypoAscent: 880
OS2TypoAOffset: 0
OS2TypoDescent: -120
OS2TypoDOffset: 0
OS2TypoLinegap: 0
OS2WinAscent: 880
OS2WinAOffset: 0
OS2WinDescent: 120
OS2WinDOffset: 0
HheadAscent: 880
HheadAOffset: 0
HheadDescent: -120
HheadDOffset: 0
OS2SubXSize: 650
OS2SubYSize: 600
OS2SubXOff: 0
OS2SubYOff: 75
OS2SupXSize: 650
OS2SupYSize: 600
OS2SupXOff: 0
OS2SupYOff: 350
OS2StrikeYSize: 50
OS2StrikeYPos: 325
OS2CapHeight: 733
OS2XHeight: 543
OS2Vendor: 'ZIHI'
OS2CodePages: 00020000.00000000
Lookup: 4 0 0 "Dakuten and handakuten" { "Dakuten and handakuten subtable"  } ['ccmp' ('DFLT' <'dflt' > 'kana' <'JAN ' 'dflt' > ) ]
MarkAttachClasses: 1
DEI: 91125

StartChar: .notdef
Encoding: 1114112 -1 0
Width: 1000
GlyphClass: 1
Flags: W
LayerCount: 2
Fore
SplineSet
100 -120 m 1
 100 880 l 1
 900 880 l 1
 900 -120 l 1
 100 -120 l 1
500 421 m 1
 818 830 l 1
 182 830 l 1
 500 421 l 1
532 380 m 1
 850 -29 l 1
 850 789 l 1
 532 380 l 1
182 -70 m 1
 818 -70 l 1
 500 339 l 1
 182 -70 l 1
150 789 m 1
 150 -29 l 1
 468 380 l 1
 150 789 l 1
EndSplineSet
EndChar

StartChar: exclam
Encoding: 33 33 2
Width: 323
GlyphClass: 1
Flags: W
LayerCount: 2
Fore
SplineSet
123 433 m 1
 117 645 l 1
 115 749 l 1
 161 749 l 1
 207 749 l 1
 205 645 l 1
 193 221 l 1
 130 221 l 1
 123 433 l 1
115 107 m 0
 127 119 143 126 161 126 c 0
 180 126 196 119 208 107 c 0
 220 95 227 77 227 56 c 0
 227 15 198 -13 161 -13 c 0
 125 -13 95 15 95 56 c 0
 95 77 103 95 115 107 c 0
EndSplineSet
EndChar

StartChar: quotedbl
Encoding: 34 34 3
Width: 474
GlyphClass: 1
Flags: W
LayerCount: 2
Fore
SplineSet
101 576 m 1
 92 669 l 1
 90 771 l 1
 138 771 l 1
 186 771 l 1
 184 669 l 1
 167 483 l 1
 110 483 l 1
 101 576 l 1
297 576 m 1
 288 669 l 1
 286 771 l 1
 334 771 l 1
 383 771 l 1
 381 669 l 1
 362 483 l 1
 307 483 l 1
 297 576 l 1
EndSplineSet
EndChar

StartChar: numbersign
Encoding: 35 35 4
Width: 555
GlyphClass: 1
Flags: W
LayerCount: 2
Fore
SplineSet
114 114 m 1
 128 229 l 1
 84 229 l 2
 68 229 54 228 40 227 c 0
 36 229 36 292 40 294 c 0
 52 293 72 292 88 292 c 2
 136 292 l 1
 157 458 l 1
 109 458 l 2
 92 458 77 457 62 456 c 0
 58 458 58 521 62 524 c 0
 74 522 96 521 113 521 c 2
 164 521 l 1
 190 726 l 1
 249 726 l 1
 223 521 l 1
 297 521 l 1
 372 521 l 1
 398 726 l 1
 458 726 l 1
 432 521 l 1
 477 521 l 2
 492 521 507 522 522 523 c 0
 526 521 526 458 522 456 c 0
 510 457 490 458 474 458 c 2
 425 458 l 1
 404 292 l 1
 452 292 l 2
 468 292 484 293 500 294 c 0
 504 292 504 229 500 226 c 0
 487 228 466 229 448 229 c 2
 396 229 l 1
 369 0 l 1
 309 0 l 1
 336 229 l 1
 188 229 l 1
 160 0 l 1
 101 0 l 1
 114 114 l 1
354 375 m 1
 365 458 l 1
 290 458 l 1
 216 458 l 1
 195 292 l 1
 344 292 l 1
 354 375 l 1
EndSplineSet
EndChar

StartChar: dollar
Encoding: 36 36 5
Width: 555
GlyphClass: 1
Flags: W
LayerCount: 2
Fore
SplineSet
249 779 m 1
 249 808 l 2
 249 818 248 829 247 836 c 0
 249 842 315 842 318 836 c 0
 316 822 315 800 315 780 c 2
 315 724 l 1
 386 717 432 683 473 641 c 1
 424 587 l 1
 383 627 349 650 288 650 c 0
 219 650 175 607 175 542 c 0
 175 379 488 424 488 184 c 0
 488 78 421 5 315 -10 c 1
 315 -67 l 1
 315 -95 l 2
 315 -105 316 -116 317 -123 c 0
 315 -129 249 -129 246 -123 c 0
 248 -110 249 -87 249 -68 c 2
 249 -12 l 1
 177 -5 105 30 58 74 c 1
 101 137 l 1
 148 96 205 63 273 63 c 0
 356 63 399 108 399 178 c 0
 399 360 87 320 87 537 c 0
 87 638 152 709 249 723 c 1
 249 779 l 1
EndSplineSet
EndChar

StartChar: percent
Encoding: 37 37 6
Width: 921
GlyphClass: 1
Flags: W
LayerCount: 2
Fore
SplineSet
85 345 m 0
 56 385 39 443 39 517 c 0
 39 663 105 746 205 746 c 0
 306 746 372 663 372 517 c 0
 372 443 356 385 326 345 c 0
 297 305 256 284 205 284 c 0
 155 284 114 305 85 345 c 0
275 385 m 0
 292 414 302 459 302 517 c 0
 302 634 263 690 205 690 c 0
 147 690 108 634 108 517 c 0
 108 459 118 414 135 385 c 0
 152 355 176 340 205 340 c 0
 234 340 258 355 275 385 c 0
428 366 m 1
 631 746 l 1
 693 746 l 1
 490 366 l 1
 288 -13 l 1
 226 -13 l 1
 428 366 l 1
596 48 m 0
 567 87 550 145 550 219 c 0
 550 366 616 449 716 449 c 0
 816 449 882 366 882 219 c 0
 882 145 866 87 837 48 c 0
 808 8 766 -13 716 -13 c 0
 666 -13 625 8 596 48 c 0
786 87 m 0
 804 117 814 161 814 219 c 0
 814 336 773 393 716 393 c 0
 658 393 618 336 618 219 c 0
 618 161 628 117 645 87 c 0
 663 58 687 43 716 43 c 0
 745 43 769 58 786 87 c 0
EndSplineSet
EndChar

StartChar: ampersand
Encoding: 38 38 7
Width: 680
GlyphClass: 1
Flags: W
LayerCount: 2
Fore
SplineSet
601 256 m 0
 580 212 555 171 526 133 c 1
 575 98 622 74 663 63 c 1
 639 -13 l 1
 587 0 530 29 470 71 c 1
 414 20 345 -13 259 -13 c 0
 193 -13 137 8 98 44 c 0
 59 80 36 131 36 190 c 0
 36 289 105 350 181 402 c 1
 151 462 133 521 133 574 c 0
 133 671 200 746 301 746 c 0
 392 746 445 687 445 602 c 0
 445 506 362 444 280 385 c 1
 328 309 397 236 466 179 c 1
 511 239 546 311 569 395 c 1
 654 395 l 1
 640 347 623 300 601 256 c 0
167 97 m 0
 193 73 229 60 270 60 c 0
 320 60 368 83 410 119 c 1
 374 151 339 186 306 223 c 0
 274 260 244 299 218 338 c 1
 166 297 125 252 125 195 c 0
 125 154 141 120 167 97 c 0
236 651 m 0
 220 632 211 605 211 575 c 0
 211 535 224 490 246 445 c 1
 280 468 311 491 334 515 c 0
 357 540 371 568 371 600 c 0
 371 643 351 682 302 682 c 0
 274 682 251 670 236 651 c 0
EndSplineSet
EndChar

StartChar: quotesingle
Encoding: 39 39 8
Width: 278
GlyphClass: 1
Flags: W
LayerCount: 2
Fore
SplineSet
101 576 m 1
 92 669 l 1
 90 771 l 1
 138 771 l 1
 186 771 l 1
 184 669 l 1
 167 483 l 1
 110 483 l 1
 101 576 l 1
EndSplineSet
EndChar

StartChar: parenleft
Encoding: 40 40 9
Width: 338
GlyphClass: 1
Flags: W
LayerCount: 2
Fore
SplineSet
131 40 m 0
 106 123 92 213 92 311 c 0
 92 409 106 498 131 582 c 0
 156 665 193 743 239 818 c 1
 295 792 l 1
 209 649 168 480 168 311 c 0
 168 141 209 -29 295 -171 c 1
 239 -196 l 1
 193 -122 156 -44 131 40 c 0
EndSplineSet
EndChar

StartChar: parenright
Encoding: 41 41 10
Width: 338
GlyphClass: 1
Flags: W
LayerCount: 2
Fore
SplineSet
207 582 m 0
 232 498 246 409 246 311 c 0
 246 213 232 123 207 40 c 0
 182 -44 145 -122 99 -196 c 1
 42 -171 l 1
 128 -29 171 141 171 311 c 0
 171 480 128 649 42 792 c 1
 99 818 l 1
 145 743 182 665 207 582 c 0
EndSplineSet
EndChar

StartChar: asterisk
Encoding: 42 42 11
Width: 467
GlyphClass: 1
Flags: W
LayerCount: 2
Fore
SplineSet
273 518 m 1
 234 566 l 1
 194 518 l 1
 154 471 l 1
 110 502 l 1
 173 607 l 1
 65 653 l 1
 82 704 l 1
 196 675 l 1
 206 796 l 1
 260 796 l 1
 270 676 l 1
 384 704 l 1
 401 653 l 1
 292 607 l 1
 356 502 l 1
 312 471 l 1
 273 518 l 1
EndSplineSet
EndChar

StartChar: plus
Encoding: 43 43 12
Width: 555
GlyphClass: 1
Flags: W
LayerCount: 2
Fore
SplineSet
314 512 m 1
 314 403 l 1
 416 403 l 2
 450 403 484 405 518 408 c 1
 522 403 522 335 518 332 c 0
 506 334 484 335 467 335 c 2
 416 335 l 1
 314 335 l 1
 314 225 l 2
 314 188 316 143 319 116 c 1
 314 110 241 110 236 116 c 1
 239 143 241 188 241 225 c 2
 241 335 l 1
 139 335 l 2
 104 335 71 333 38 330 c 1
 34 335 34 403 38 408 c 1
 63 405 104 403 139 403 c 2
 241 403 l 1
 241 513 l 2
 241 550 239 595 236 622 c 1
 241 628 314 628 317 622 c 0
 315 609 314 586 314 567 c 2
 314 512 l 1
EndSplineSet
EndChar

StartChar: comma
Encoding: 44 44 13
Width: 278
GlyphClass: 1
Flags: W
LayerCount: 2
Fore
SplineSet
126 -81 m 0
 143 -58 153 -31 153 -1 c 1
 142 -2 l 2
 106 -2 75 22 75 62 c 0
 75 102 107 126 144 126 c 0
 192 126 221 86 221 19 c 0
 221 -29 207 -72 182 -107 c 0
 157 -143 120 -171 75 -190 c 1
 53 -136 l 1
 84 -123 109 -104 126 -81 c 0
EndSplineSet
EndChar

StartChar: hyphen
Encoding: 45 45 14
Width: 347
GlyphClass: 1
Flags: W
LayerCount: 2
Fore
SplineSet
174 315 m 1
 238 315 l 2
 260 315 281 316 302 318 c 0
 306 315 306 245 302 242 c 0
 286 244 260 245 238 245 c 2
 174 245 l 1
 110 245 l 2
 88 245 67 244 46 242 c 0
 42 245 42 315 46 318 c 0
 62 316 88 315 110 315 c 2
 174 315 l 1
EndSplineSet
EndChar

StartChar: period
Encoding: 46 46 15
Width: 278
GlyphClass: 1
Flags: W
LayerCount: 2
Fore
SplineSet
92 107 m 0
 104 119 121 126 139 126 c 0
 157 126 174 119 186 107 c 0
 198 95 205 77 205 56 c 0
 205 15 175 -13 139 -13 c 0
 102 -13 73 15 73 56 c 0
 73 77 80 95 92 107 c 0
EndSplineSet
EndChar

StartChar: slash
Encoding: 47 47 16
Width: 392
GlyphClass: 1
Flags: W
LayerCount: 2
Fore
SplineSet
161 307 m 1
 311 794 l 1
 377 794 l 1
 227 307 l 1
 78 -179 l 1
 11 -179 l 1
 161 307 l 1
EndSplineSet
EndChar

StartChar: zero
Encoding: 48 48 17
Width: 555
GlyphClass: 1
Flags: W
LayerCount: 2
Fore
SplineSet
112 82 m 0
 72 146 50 241 50 369 c 0
 50 623 138 746 278 746 c 0
 417 746 506 623 506 369 c 0
 506 241 484 146 444 82 c 0
 405 19 348 -13 278 -13 c 0
 208 -13 151 19 112 82 c 0
379 134 m 0
 404 185 418 262 418 369 c 0
 418 583 361 674 278 674 c 0
 195 674 138 583 138 369 c 0
 138 262 152 185 177 134 c 0
 202 84 237 61 278 61 c 0
 320 61 355 84 379 134 c 0
EndSplineSet
EndChar

StartChar: one
Encoding: 49 49 18
Width: 555
GlyphClass: 1
Flags: W
LayerCount: 2
Fore
SplineSet
362 366 m 1
 362 0 l 1
 317 0 l 1
 272 0 l 1
 272 631 l 1
 123 530 l 1
 81 591 l 1
 293 733 l 1
 362 733 l 1
 362 366 l 1
EndSplineSet
EndChar

StartChar: two
Encoding: 50 50 19
Width: 555
GlyphClass: 1
Flags: W
LayerCount: 2
Fore
SplineSet
389 0 m 1
 274 0 l 1
 44 0 l 1
 44 54 l 1
 274 255 380 401 380 527 c 0
 380 611 336 672 245 672 c 0
 185 672 134 636 93 587 c 1
 40 639 l 1
 99 704 163 746 256 746 c 0
 387 746 470 661 470 531 c 0
 470 384 354 235 182 72 c 1
 220 75 265 79 302 79 c 2
 404 79 l 2
 439 79 472 81 505 84 c 1
 509 79 509 0 505 -3 c 0
 491 -1 467 0 447 0 c 2
 389 0 l 1
EndSplineSet
EndChar

StartChar: three
Encoding: 51 51 20
Width: 555
GlyphClass: 1
Flags: W
LayerCount: 2
Fore
SplineSet
414 698 m 0
 452 667 474 621 474 563 c 0
 474 474 422 414 344 387 c 1
 344 382 l 1
 430 361 499 297 499 196 c 0
 499 131 473 78 430 42 c 0
 388 7 329 -13 263 -13 c 0
 149 -13 77 35 29 88 c 1
 76 147 l 1
 119 103 174 63 257 63 c 0
 345 63 406 115 406 199 c 0
 406 288 348 346 178 346 c 1
 178 416 l 1
 330 416 381 477 381 556 c 0
 381 626 334 672 257 672 c 0
 198 672 147 643 105 601 c 1
 56 659 l 1
 111 709 176 746 260 746 c 0
 322 746 376 729 414 698 c 0
EndSplineSet
EndChar

StartChar: four
Encoding: 52 52 21
Width: 555
GlyphClass: 1
Flags: W
LayerCount: 2
Fore
SplineSet
172 497 m 1
 325 733 l 1
 426 733 l 1
 426 275 l 1
 475 275 l 2
 492 275 508 276 524 277 c 0
 528 275 528 202 524 200 c 0
 512 201 492 202 475 202 c 2
 426 202 l 1
 426 0 l 1
 340 0 l 1
 340 202 l 1
 180 202 l 1
 20 202 l 1
 20 262 l 1
 172 497 l 1
198 400 m 1
 115 275 l 1
 227 275 l 1
 340 275 l 1
 340 500 l 2
 340 536 343 596 345 633 c 1
 341 633 l 1
 323 598 303 561 282 525 c 2
 198 400 l 1
EndSplineSet
EndChar

StartChar: five
Encoding: 53 53 22
Width: 555
GlyphClass: 1
Flags: W
LayerCount: 2
Fore
SplineSet
98 562 m 1
 110 733 l 1
 288 733 l 1
 377 733 l 2
 408 733 437 735 466 737 c 1
 470 733 470 655 466 649 c 1
 432 653 374 655 328 655 c 2
 190 655 l 1
 171 443 l 1
 204 461 237 472 281 472 c 0
 402 472 502 400 502 238 c 0
 502 78 385 -13 262 -13 c 0
 147 -13 77 35 27 84 c 1
 73 144 l 1
 114 102 168 63 253 63 c 0
 340 63 409 129 409 236 c 0
 409 341 349 403 257 403 c 0
 208 403 177 388 135 360 c 1
 86 391 l 1
 98 562 l 1
EndSplineSet
EndChar

StartChar: six
Encoding: 54 54 23
Width: 555
GlyphClass: 1
Flags: W
LayerCount: 2
Fore
SplineSet
126 78 m 0
 82 138 56 229 56 350 c 0
 56 494 88 593 138 656 c 0
 188 719 256 746 327 746 c 0
 403 746 458 715 499 671 c 1
 447 615 l 1
 419 649 375 671 331 671 c 0
 229 671 146 594 142 367 c 1
 187 422 251 455 308 455 c 0
 432 455 512 379 512 225 c 0
 512 83 415 -13 301 -13 c 0
 231 -13 170 17 126 78 c 0
392 343 m 0
 371 371 338 387 293 387 c 0
 248 387 192 362 144 294 c 1
 149 218 165 159 192 120 c 0
 218 80 255 59 301 59 c 0
 371 59 425 125 425 225 c 0
 425 275 414 315 392 343 c 0
EndSplineSet
EndChar

StartChar: seven
Encoding: 55 55 24
Width: 555
GlyphClass: 1
Flags: W
LayerCount: 2
Fore
SplineSet
227 655 m 1
 138 655 l 2
 107 655 78 653 49 651 c 1
 45 655 45 733 49 738 c 1
 77 735 125 733 163 733 c 2
 278 733 l 1
 508 733 l 1
 508 678 l 1
 336 458 305 287 293 0 c 1
 198 0 l 1
 211 278 261 455 405 655 c 1
 227 655 l 1
EndSplineSet
EndChar

StartChar: eight
Encoding: 56 56 25
Width: 555
GlyphClass: 1
Flags: W
LayerCount: 2
Fore
SplineSet
446 42 m 0
 406 8 349 -13 280 -13 c 0
 212 -13 154 8 112 42 c 0
 71 77 46 126 46 182 c 0
 46 280 113 349 180 385 c 1
 180 389 l 1
 127 426 81 481 81 558 c 0
 81 669 168 744 282 744 c 0
 407 744 483 664 483 551 c 0
 483 474 429 408 386 374 c 1
 386 369 l 1
 450 332 509 277 509 176 c 0
 509 123 486 76 446 42 c 0
372 638 m 0
 351 662 320 676 281 676 c 0
 213 676 164 629 164 558 c 0
 164 515 184 483 214 458 c 0
 245 433 287 415 330 398 c 1
 379 442 405 492 405 546 c 0
 405 583 394 615 372 638 c 0
171 93 m 0
 199 69 237 55 281 55 c 0
 366 55 422 106 422 179 c 0
 422 229 400 262 364 289 c 0
 329 316 280 335 228 356 c 1
 169 318 127 260 127 190 c 0
 127 151 144 117 171 93 c 0
EndSplineSet
EndChar

StartChar: nine
Encoding: 57 57 26
Width: 555
GlyphClass: 1
Flags: W
LayerCount: 2
Fore
SplineSet
430 659 m 0
 475 602 501 515 501 398 c 0
 501 250 469 147 419 81 c 0
 370 16 304 -13 235 -13 c 0
 155 -13 99 19 58 62 c 1
 108 119 l 1
 140 84 184 63 232 63 c 0
 326 63 408 140 415 367 c 1
 370 313 307 278 246 278 c 0
 124 278 44 357 44 508 c 0
 44 651 140 746 254 746 c 0
 325 746 386 717 430 659 c 0
166 629 m 0
 144 600 130 559 130 508 c 0
 130 410 174 346 261 346 c 0
 310 346 365 374 414 444 c 1
 409 520 393 577 366 616 c 0
 339 655 302 675 255 675 c 0
 220 675 188 659 166 629 c 0
EndSplineSet
EndChar

StartChar: colon
Encoding: 58 58 27
Width: 278
GlyphClass: 1
Flags: W
LayerCount: 2
Fore
SplineSet
186 510 m 0
 198 498 205 481 205 460 c 0
 205 439 198 422 186 409 c 0
 174 397 157 390 139 390 c 0
 102 390 73 418 73 460 c 0
 73 501 102 530 139 530 c 0
 157 530 174 523 186 510 c 0
92 107 m 0
 104 119 121 126 139 126 c 0
 157 126 174 119 186 107 c 0
 198 95 205 77 205 56 c 0
 205 15 175 -13 139 -13 c 0
 102 -13 73 15 73 56 c 0
 73 77 80 95 92 107 c 0
EndSplineSet
EndChar

StartChar: semicolon
Encoding: 59 59 28
Width: 278
GlyphClass: 1
Flags: W
LayerCount: 2
Fore
SplineSet
186 510 m 0
 198 498 205 481 205 460 c 0
 205 439 198 422 186 409 c 0
 174 397 157 390 139 390 c 0
 102 390 73 418 73 460 c 0
 73 501 102 530 139 530 c 0
 157 530 174 523 186 510 c 0
126 -81 m 0
 143 -58 153 -31 153 -1 c 1
 142 -2 l 2
 106 -2 75 22 75 62 c 0
 75 102 107 126 144 126 c 0
 192 126 221 86 221 19 c 0
 221 -29 207 -72 182 -107 c 0
 157 -143 120 -171 75 -190 c 1
 53 -136 l 1
 84 -123 109 -104 126 -81 c 0
EndSplineSet
EndChar

StartChar: less
Encoding: 60 60 29
Width: 555
GlyphClass: 1
Flags: W
LayerCount: 2
Fore
SplineSet
278 240 m 1
 38 335 l 1
 38 407 l 1
 278 501 l 1
 518 596 l 1
 518 517 l 1
 281 429 l 1
 131 373 l 1
 131 369 l 1
 281 313 l 1
 518 226 l 1
 518 146 l 1
 278 240 l 1
EndSplineSet
EndChar

StartChar: equal
Encoding: 61 61 30
Width: 555
GlyphClass: 1
Flags: W
LayerCount: 2
Fore
SplineSet
278 523 m 1
 398 523 l 2
 438 523 478 525 518 528 c 1
 522 523 522 455 518 450 c 1
 488 453 438 455 398 455 c 2
 278 455 l 1
 158 455 l 2
 118 455 78 453 38 450 c 1
 34 455 34 523 38 528 c 1
 68 525 118 523 158 523 c 2
 278 523 l 1
278 283 m 1
 398 283 l 2
 438 283 478 285 518 288 c 1
 522 283 522 215 518 210 c 1
 488 213 438 215 398 215 c 2
 278 215 l 1
 158 215 l 2
 118 215 78 213 38 210 c 1
 34 215 34 283 38 288 c 1
 68 285 118 283 158 283 c 2
 278 283 l 1
EndSplineSet
EndChar

StartChar: greater
Encoding: 62 62 31
Width: 555
GlyphClass: 1
Flags: W
LayerCount: 2
Fore
SplineSet
278 501 m 1
 518 407 l 1
 518 335 l 1
 278 240 l 1
 38 146 l 1
 38 226 l 1
 274 313 l 1
 424 369 l 1
 424 373 l 1
 274 429 l 1
 38 517 l 1
 38 596 l 1
 278 501 l 1
EndSplineSet
EndChar

StartChar: question
Encoding: 63 63 32
Width: 474
GlyphClass: 1
Flags: W
LayerCount: 2
Fore
SplineSet
246 420 m 0
 288 473 332 519 332 578 c 0
 332 638 296 686 224 686 c 0
 174 686 130 662 95 622 c 1
 43 670 l 1
 89 723 153 762 234 762 c 0
 347 762 421 694 421 584 c 0
 421 511 376 459 333 406 c 0
 291 354 250 300 259 221 c 1
 178 221 l 1
 166 308 205 368 246 420 c 0
175 107 m 0
 186 119 203 126 221 126 c 0
 240 126 256 119 268 107 c 0
 281 95 288 77 288 56 c 0
 288 15 258 -13 221 -13 c 0
 184 -13 156 15 156 56 c 0
 156 77 163 95 175 107 c 0
EndSplineSet
EndChar

StartChar: at
Encoding: 64 64 33
Width: 946
GlyphClass: 1
Flags: W
LayerCount: 2
Fore
SplineSet
646 416 m 1
 635 360 l 1
 613 249 l 1
 591 160 613 117 674 117 c 0
 745 117 825 204 825 348 c 0
 825 529 718 661 515 661 c 0
 316 661 123 491 123 230 c 0
 123 12 266 -112 456 -112 c 0
 525 -112 588 -91 637 -62 c 1
 662 -116 l 1
 597 -155 527 -173 449 -173 c 0
 231 -173 56 -34 56 227 c 0
 56 526 273 722 523 722 c 0
 747 722 889 572 889 352 c 0
 889 157 767 55 666 55 c 0
 605 55 558 83 551 140 c 1
 548 140 l 1
 512 97 462 63 412 63 c 0
 336 63 277 120 277 222 c 0
 277 340 362 481 493 481 c 0
 531 481 561 463 582 426 c 1
 584 426 l 1
 597 472 l 1
 657 472 l 1
 646 416 l 1
557 325 m 1
 565 370 l 1
 544 405 524 417 493 417 c 0
 406 417 351 312 351 227 c 0
 351 155 385 126 430 126 c 0
 461 126 495 146 534 193 c 1
 549 281 l 1
 557 325 l 1
EndSplineSet
EndChar

StartChar: A
Encoding: 65 65 34
Width: 608
GlyphClass: 1
Flags: W
LayerCount: 2
Fore
SplineSet
479 366 m 1
 604 0 l 1
 506 0 l 1
 436 224 l 1
 302 224 l 1
 168 224 l 1
 97 0 l 1
 4 0 l 1
 252 733 l 1
 355 733 l 1
 479 366 l 1
209 353 m 1
 191 297 l 1
 302 297 l 1
 413 297 l 1
 378 410 l 2
 351 493 328 573 304 658 c 1
 300 658 l 1
 277 572 253 493 227 410 c 2
 209 353 l 1
EndSplineSet
EndChar

StartChar: B
Encoding: 66 66 35
Width: 657
GlyphClass: 1
Flags: W
LayerCount: 2
Fore
SplineSet
101 366 m 1
 101 550 l 2
 101 611 98 688 93 733 c 0
 93 738 98 738 101 738 c 0
 128 735 173 733 209 733 c 2
 318 733 l 2
 466 733 570 683 570 554 c 0
 570 481 532 417 463 395 c 1
 463 390 l 1
 550 373 612 315 612 215 c 0
 612 71 498 0 334 0 c 2
 217 0 l 1
 159 0 l 2
 139 0 115 -1 101 -3 c 0
 93 -3 93 -1 93 0 c 0
 104 45 101 122 101 183 c 2
 101 366 l 1
193 541 m 1
 193 422 l 1
 302 422 l 2
 428 422 479 467 479 542 c 0
 479 628 421 660 306 660 c 2
 249 660 l 1
 193 660 l 1
 193 541 l 1
193 212 m 1
 193 74 l 1
 321 74 l 2
 447 74 521 119 521 218 c 0
 521 309 450 350 321 350 c 2
 257 350 l 1
 193 350 l 1
 193 212 l 1
EndSplineSet
EndChar

StartChar: C
Encoding: 67 67 36
Width: 638
GlyphClass: 1
Flags: W
LayerCount: 2
Fore
SplineSet
149 87 m 0
 92 152 58 247 58 366 c 0
 58 485 93 580 151 645 c 0
 209 710 290 746 383 746 c 0
 472 746 542 703 584 656 c 1
 534 596 l 1
 495 637 447 665 384 665 c 0
 246 665 153 552 153 369 c 0
 153 184 241 68 381 68 c 0
 451 68 504 99 551 151 c 1
 602 92 l 1
 544 25 472 -13 377 -13 c 0
 286 -13 206 22 149 87 c 0
EndSplineSet
EndChar

StartChar: D
Encoding: 68 68 37
Width: 688
GlyphClass: 1
Flags: W
LayerCount: 2
Fore
SplineSet
101 366 m 1
 101 550 l 2
 101 611 98 688 93 733 c 0
 93 737 98 737 101 737 c 0
 123 735 161 733 192 733 c 2
 284 733 l 2
 509 733 629 603 629 369 c 0
 629 137 509 0 288 0 c 2
 194 0 l 1
 101 0 l 1
 101 366 l 1
193 512 m 1
 193 367 l 1
 193 76 l 1
 276 76 l 2
 449 76 534 184 534 369 c 0
 534 555 449 658 276 658 c 2
 193 658 l 1
 193 512 l 1
EndSplineSet
EndChar

StartChar: E
Encoding: 69 69 38
Width: 589
GlyphClass: 1
Flags: W
LayerCount: 2
Fore
SplineSet
101 366 m 1
 101 550 l 2
 101 611 98 688 93 733 c 0
 93 738 98 738 101 738 c 0
 127 735 171 733 206 733 c 2
 312 733 l 2
 383 733 453 736 523 741 c 1
 527 733 527 655 523 648 c 1
 482 652 413 655 358 655 c 2
 193 655 l 1
 193 425 l 1
 332 425 l 2
 379 425 425 427 471 431 c 1
 475 425 475 346 471 340 c 1
 437 344 379 346 332 346 c 2
 193 346 l 1
 193 79 l 1
 364 79 l 2
 422 79 478 82 534 86 c 1
 538 79 538 0 534 -5 c 1
 507 -2 462 0 426 0 c 2
 317 0 l 1
 209 0 l 2
 173 0 128 -2 101 -5 c 0
 93 -5 93 -2 93 0 c 0
 104 45 101 122 101 183 c 2
 101 366 l 1
EndSplineSet
EndChar

StartChar: F
Encoding: 70 70 39
Width: 552
GlyphClass: 1
Flags: W
LayerCount: 2
Fore
SplineSet
101 366 m 1
 101 550 l 2
 101 611 98 688 93 733 c 0
 93 738 98 738 101 738 c 0
 127 735 171 733 206 733 c 2
 312 733 l 1
 418 733 l 2
 453 733 488 735 523 738 c 1
 527 733 527 655 523 648 c 1
 482 652 413 655 358 655 c 2
 193 655 l 1
 193 407 l 1
 333 407 l 2
 381 407 427 409 473 413 c 1
 477 407 477 329 473 323 c 1
 438 327 381 329 333 329 c 2
 193 329 l 1
 193 0 l 1
 101 0 l 1
 101 366 l 1
EndSplineSet
EndChar

StartChar: G
Encoding: 71 71 40
Width: 689
GlyphClass: 1
Flags: W
LayerCount: 2
Fore
SplineSet
615 226 m 1
 615 72 l 1
 568 23 487 -13 389 -13 c 0
 196 -13 58 128 58 366 c 0
 58 603 200 746 394 746 c 0
 496 746 563 700 605 656 c 1
 555 596 l 1
 518 634 470 665 397 665 c 0
 249 665 153 552 153 369 c 0
 153 184 241 68 398 68 c 0
 450 68 501 84 530 111 c 1
 530 303 l 1
 452 303 l 2
 426 303 400 301 374 299 c 1
 370 303 370 380 374 383 c 0
 389 381 414 380 434 380 c 2
 494 380 l 1
 555 380 l 2
 575 380 600 381 615 383 c 0
 619 383 619 381 619 380 c 0
 617 361 615 330 615 303 c 2
 615 226 l 1
EndSplineSet
EndChar

StartChar: H
Encoding: 72 72 41
Width: 728
GlyphClass: 1
Flags: W
LayerCount: 2
Fore
SplineSet
628 366 m 1
 628 0 l 1
 535 0 l 1
 535 346 l 1
 364 346 l 1
 193 346 l 1
 193 0 l 1
 101 0 l 1
 101 733 l 1
 193 733 l 1
 193 426 l 1
 535 426 l 1
 535 733 l 1
 628 733 l 1
 628 366 l 1
EndSplineSet
EndChar

StartChar: I
Encoding: 73 73 42
Width: 293
GlyphClass: 1
Flags: W
LayerCount: 2
Fore
SplineSet
193 366 m 1
 193 0 l 1
 147 0 l 1
 101 0 l 1
 101 733 l 1
 193 733 l 1
 193 366 l 1
EndSplineSet
EndChar

StartChar: J
Encoding: 74 74 43
Width: 535
GlyphClass: 1
Flags: W
LayerCount: 2
Fore
SplineSet
439 474 m 1
 439 215 l 2
 439 88 380 -13 237 -13 c 0
 144 -13 78 27 35 103 c 1
 101 151 l 1
 134 92 175 68 228 68 c 0
 307 68 346 113 346 224 c 2
 346 733 l 1
 392 733 l 1
 439 733 l 1
 439 474 l 1
EndSplineSet
EndChar

StartChar: K
Encoding: 75 75 44
Width: 646
GlyphClass: 1
Flags: W
LayerCount: 2
Fore
SplineSet
101 366 m 1
 101 733 l 1
 193 733 l 1
 193 365 l 1
 195 365 l 1
 502 733 l 1
 554 733 l 1
 607 733 l 1
 377 455 l 1
 642 0 l 1
 539 0 l 1
 319 382 l 1
 193 232 l 1
 193 0 l 1
 101 0 l 1
 101 366 l 1
EndSplineSet
EndChar

StartChar: L
Encoding: 76 76 45
Width: 543
GlyphClass: 1
Flags: W
LayerCount: 2
Fore
SplineSet
101 366 m 1
 101 733 l 1
 193 733 l 1
 193 79 l 1
 354 79 l 2
 408 79 461 82 514 86 c 1
 518 79 518 0 514 -5 c 1
 489 -2 446 0 411 0 c 2
 307 0 l 1
 204 0 l 2
 169 0 126 -2 101 -5 c 0
 93 -5 93 -2 93 0 c 0
 104 45 101 122 101 183 c 2
 101 366 l 1
EndSplineSet
EndChar

StartChar: M
Encoding: 77 77 46
Width: 812
GlyphClass: 1
Flags: W
LayerCount: 2
Fore
SplineSet
101 366 m 1
 101 550 l 2
 101 611 98 688 93 733 c 0
 93 736 98 736 101 736 c 0
 114 734 137 733 156 733 c 2
 212 733 l 1
 352 341 l 2
 371 291 387 239 405 188 c 1
 409 188 l 1
 428 239 443 291 460 341 c 2
 600 733 l 1
 655 733 l 1
 711 733 l 1
 711 0 l 1
 625 0 l 1
 625 406 l 2
 625 469 632 558 637 622 c 1
 633 622 l 1
 574 455 l 1
 436 74 l 1
 374 74 l 1
 235 455 l 1
 176 622 l 1
 172 622 l 1
 178 558 184 469 184 406 c 2
 184 203 l 2
 184 134 187 50 192 0 c 1
 184 -6 101 -6 93 0 c 1
 98 45 101 122 101 183 c 2
 101 366 l 1
EndSplineSet
EndChar

StartChar: N
Encoding: 78 78 47
Width: 723
GlyphClass: 1
Flags: W
LayerCount: 2
Fore
SplineSet
622 366 m 1
 622 0 l 1
 574 0 l 1
 527 0 l 1
 260 463 l 1
 181 614 l 1
 177 614 l 1
 181 540 188 462 188 385 c 2
 188 0 l 1
 101 0 l 1
 101 733 l 1
 195 733 l 1
 463 271 l 1
 542 120 l 1
 547 120 l 1
 541 193 534 276 534 352 c 2
 534 733 l 1
 622 733 l 1
 622 366 l 1
EndSplineSet
EndChar

StartChar: O
Encoding: 79 79 48
Width: 742
GlyphClass: 1
Flags: W
LayerCount: 2
Fore
SplineSet
146 90 m 0
 90 156 58 252 58 369 c 0
 58 604 187 746 371 746 c 0
 555 746 684 604 684 369 c 0
 684 252 652 156 597 90 c 0
 541 24 463 -13 371 -13 c 0
 279 -13 201 24 146 90 c 0
530 150 m 0
 568 202 589 278 589 369 c 0
 589 552 503 665 371 665 c 0
 239 665 153 552 153 369 c 0
 153 278 175 202 213 150 c 0
 251 98 305 68 371 68 c 0
 437 68 492 98 530 150 c 0
EndSplineSet
EndChar

StartChar: P
Encoding: 80 80 49
Width: 633
GlyphClass: 1
Flags: W
LayerCount: 2
Fore
SplineSet
101 366 m 1
 101 733 l 1
 205 733 l 1
 310 733 l 2
 474 733 584 678 584 518 c 0
 584 363 475 292 314 292 c 2
 193 292 l 1
 193 0 l 1
 101 0 l 1
 101 366 l 1
193 512 m 1
 193 367 l 1
 247 367 l 1
 302 367 l 2
 431 367 492 413 492 518 c 0
 492 625 427 658 298 658 c 2
 193 658 l 1
 193 512 l 1
EndSplineSet
EndChar

StartChar: Q
Encoding: 81 81 50
Width: 742
GlyphClass: 1
Flags: W
LayerCount: 2
Fore
SplineSet
530 146 m 0
 568 199 589 276 589 369 c 0
 589 552 503 665 371 665 c 0
 239 665 153 552 153 369 c 0
 153 276 175 199 213 146 c 0
 251 94 305 64 371 64 c 0
 437 64 492 94 530 146 c 0
146 646 m 0
 201 711 279 746 371 746 c 0
 463 746 541 711 597 646 c 0
 652 581 684 487 684 369 c 0
 684 158 580 18 425 -9 c 1
 458 -74 526 -107 605 -107 c 0
 638 -107 663 -102 682 -96 c 1
 700 -167 l 1
 678 -177 639 -184 595 -184 c 0
 460 -184 367 -110 326 -10 c 1
 166 12 58 154 58 369 c 0
 58 487 90 581 146 646 c 0
EndSplineSet
EndChar

StartChar: R
Encoding: 82 82 51
Width: 635
GlyphClass: 1
Flags: W
LayerCount: 2
Fore
SplineSet
193 521 m 1
 193 385 l 1
 316 385 l 2
 431 385 494 432 494 528 c 0
 494 624 431 658 316 658 c 2
 254 658 l 1
 193 658 l 1
 193 521 l 1
101 366 m 1
 101 550 l 2
 101 611 98 688 93 733 c 0
 93 736 98 736 101 736 c 0
 115 734 139 733 158 733 c 2
 215 733 l 1
 330 733 l 2
 479 733 586 680 586 528 c 0
 586 413 520 345 421 321 c 1
 607 0 l 1
 503 0 l 1
 325 311 l 1
 193 311 l 1
 193 0 l 1
 101 0 l 1
 101 366 l 1
EndSplineSet
EndChar

StartChar: S
Encoding: 83 83 52
Width: 596
GlyphClass: 1
Flags: W
LayerCount: 2
Fore
SplineSet
350 413 m 1
 402 391 l 2
 487 354 553 304 553 195 c 0
 553 79 457 -13 304 -13 c 0
 200 -13 111 29 48 95 c 1
 103 159 l 1
 155 104 229 68 305 68 c 0
 402 68 459 116 459 187 c 0
 459 263 406 287 336 318 c 2
 283 341 l 1
 231 364 l 2
 163 393 82 445 82 552 c 0
 82 665 180 746 313 746 c 0
 400 746 477 709 528 656 c 1
 480 597 l 1
 435 639 381 665 313 665 c 0
 230 665 176 624 176 559 c 0
 176 487 241 460 298 436 c 2
 350 413 l 1
EndSplineSet
EndChar

StartChar: T
Encoding: 84 84 53
Width: 599
GlyphClass: 1
Flags: W
LayerCount: 2
Fore
SplineSet
253 327 m 1
 253 655 l 1
 142 655 l 2
 105 655 68 653 31 650 c 1
 27 655 27 733 31 739 c 1
 64 735 119 733 165 733 c 2
 299 733 l 1
 434 733 l 2
 480 733 524 735 568 739 c 1
 572 733 572 655 568 650 c 1
 541 653 494 655 457 655 c 2
 346 655 l 1
 346 0 l 1
 253 0 l 1
 253 327 l 1
EndSplineSet
EndChar

StartChar: U
Encoding: 85 85 54
Width: 721
GlyphClass: 1
Flags: W
LayerCount: 2
Fore
SplineSet
535 516 m 1
 535 733 l 1
 624 733 l 1
 624 302 l 2
 624 67 510 -13 361 -13 c 0
 211 -13 98 67 98 302 c 2
 98 733 l 1
 144 733 l 1
 190 733 l 1
 190 300 l 2
 190 124 265 68 361 68 c 0
 458 68 535 124 535 300 c 2
 535 516 l 1
EndSplineSet
EndChar

StartChar: V
Encoding: 86 86 55
Width: 575
GlyphClass: 1
Flags: W
LayerCount: 2
Fore
SplineSet
458 366 m 1
 342 0 l 1
 288 0 l 1
 235 0 l 1
 1 733 l 1
 98 733 l 1
 217 336 l 2
 242 250 261 180 288 94 c 1
 292 94 l 1
 320 180 338 250 363 336 c 2
 481 733 l 1
 575 733 l 1
 458 366 l 1
EndSplineSet
EndChar

StartChar: W
Encoding: 87 87 56
Width: 878
GlyphClass: 1
Flags: W
LayerCount: 2
Fore
SplineSet
103 366 m 1
 26 733 l 1
 121 733 l 1
 198 334 l 2
 213 255 227 176 242 96 c 1
 246 96 l 1
 262 176 280 255 298 334 c 2
 399 733 l 1
 484 733 l 1
 586 334 l 2
 604 256 620 176 638 96 c 1
 644 96 l 1
 657 176 671 255 684 334 c 2
 763 733 l 1
 851 733 l 1
 700 0 l 1
 644 0 l 1
 588 0 l 1
 477 442 l 2
 464 500 453 553 441 609 c 1
 437 609 l 1
 426 553 412 500 400 442 c 2
 291 0 l 1
 181 0 l 1
 103 366 l 1
EndSplineSet
EndChar

StartChar: X
Encoding: 88 88 57
Width: 573
GlyphClass: 1
Flags: W
LayerCount: 2
Fore
SplineSet
124 189 m 1
 231 379 l 1
 31 733 l 1
 133 733 l 1
 233 546 l 2
 252 512 267 481 291 438 c 1
 295 438 l 1
 315 481 329 512 347 546 c 2
 445 733 l 1
 542 733 l 1
 342 374 l 1
 557 0 l 1
 506 0 l 1
 455 0 l 1
 346 198 l 2
 327 235 307 272 283 317 c 1
 279 317 l 1
 258 272 239 235 220 198 c 2
 115 0 l 1
 17 0 l 1
 124 189 l 1
EndSplineSet
EndChar

StartChar: Y
Encoding: 89 89 58
Width: 531
GlyphClass: 1
Flags: W
LayerCount: 2
Fore
SplineSet
109 508 m 1
 -1 733 l 1
 48 733 l 1
 97 733 l 1
 192 526 l 2
 216 472 238 420 264 365 c 1
 268 365 l 1
 294 420 319 472 342 526 c 2
 436 733 l 1
 532 733 l 1
 311 284 l 1
 311 0 l 1
 219 0 l 1
 219 284 l 1
 109 508 l 1
EndSplineSet
EndChar

StartChar: Z
Encoding: 90 90 59
Width: 603
GlyphClass: 1
Flags: W
LayerCount: 2
Fore
SplineSet
357 378 m 1
 164 79 l 1
 360 79 l 2
 426 79 491 82 556 87 c 1
 560 79 560 0 556 -6 c 1
 525 -2 472 0 430 0 c 2
 303 0 l 1
 50 0 l 1
 50 56 l 1
 437 655 l 1
 261 655 l 2
 201 655 143 652 85 647 c 1
 81 655 81 733 85 741 c 1
 143 736 239 733 318 733 c 2
 551 733 l 1
 551 678 l 1
 357 378 l 1
EndSplineSet
EndChar

StartChar: bracketleft
Encoding: 91 91 60
Width: 338
GlyphClass: 1
Flags: W
LayerCount: 2
Fore
SplineSet
106 311 m 1
 106 792 l 1
 205 792 l 2
 238 792 271 794 304 796 c 1
 308 792 308 739 304 736 c 0
 288 738 262 739 239 739 c 2
 174 739 l 1
 174 -118 l 1
 239 -118 l 2
 262 -118 283 -117 304 -115 c 0
 308 -118 308 -170 304 -172 c 0
 292 -171 272 -170 255 -170 c 2
 205 -170 l 1
 106 -170 l 1
 106 311 l 1
EndSplineSet
EndChar

StartChar: backslash
Encoding: 92 92 61
Width: 392
GlyphClass: 1
Flags: W
LayerCount: 2
Fore
SplineSet
164 307 m 1
 15 794 l 1
 81 794 l 1
 230 307 l 1
 380 -179 l 1
 314 -179 l 1
 164 307 l 1
EndSplineSet
EndChar

StartChar: bracketright
Encoding: 93 93 62
Width: 338
GlyphClass: 1
Flags: W
LayerCount: 2
Fore
SplineSet
233 311 m 1
 233 -170 l 1
 133 -170 l 1
 83 -170 l 2
 66 -170 50 -171 34 -172 c 0
 30 -170 30 -118 34 -115 c 0
 50 -117 76 -118 99 -118 c 2
 164 -118 l 1
 164 739 l 1
 99 739 l 2
 76 739 55 738 34 736 c 0
 30 739 30 792 34 796 c 1
 58 794 100 792 133 792 c 2
 233 792 l 1
 233 311 l 1
EndSplineSet
EndChar

StartChar: asciicircum
Encoding: 94 94 63
Width: 555
GlyphClass: 1
Flags: W
LayerCount: 2
Fore
SplineSet
152 533 m 1
 237 749 l 1
 318 749 l 1
 403 533 l 1
 488 317 l 1
 408 317 l 1
 335 514 l 1
 280 663 l 1
 275 663 l 1
 220 514 l 1
 147 317 l 1
 68 317 l 1
 152 533 l 1
EndSplineSet
EndChar

StartChar: underscore
Encoding: 95 95 64
Width: 559
GlyphClass: 1
Flags: W
LayerCount: 2
Fore
SplineSet
279 -80 m 1
 412 -80 l 2
 457 -80 501 -78 545 -74 c 1
 549 -80 549 -140 545 -146 c 1
 512 -142 457 -140 412 -140 c 2
 279 -140 l 1
 146 -140 l 2
 101 -140 57 -142 13 -146 c 1
 9 -140 9 -80 13 -74 c 1
 46 -78 101 -80 146 -80 c 2
 279 -80 l 1
EndSplineSet
EndChar

StartChar: grave
Encoding: 96 96 65
Width: 606
GlyphClass: 1
Flags: W
LayerCount: 2
Fore
SplineSet
287 779 m 1
 366 686 l 1
 319 640 l 1
 231 726 l 1
 144 812 l 1
 208 872 l 1
 287 779 l 1
EndSplineSet
EndChar

StartChar: a
Encoding: 97 97 66
Width: 563
GlyphClass: 1
Flags: W
LayerCount: 2
Fore
SplineSet
483 250 m 1
 483 167 l 1
 483 0 l 1
 408 0 l 1
 400 65 l 1
 397 65 l 1
 345 22 284 -13 217 -13 c 0
 126 -13 59 43 59 141 c 0
 59 259 161 318 392 344 c 1
 392 414 369 481 280 481 c 0
 217 481 160 452 117 423 c 1
 82 486 l 1
 131 518 207 557 295 557 c 0
 428 557 483 469 483 334 c 2
 483 250 l 1
201 233 m 0
 163 211 147 182 147 147 c 0
 147 85 189 61 243 61 c 0
 295 61 339 85 392 132 c 1
 392 207 l 1
 392 283 l 1
 301 273 239 256 201 233 c 0
EndSplineSet
EndChar

StartChar: b
Encoding: 98 98 67
Width: 618
GlyphClass: 1
Flags: W
LayerCount: 2
Fore
SplineSet
92 398 m 1
 92 796 l 1
 138 796 l 1
 184 796 l 1
 184 578 l 1
 180 481 l 1
 230 523 290 557 351 557 c 0
 491 557 567 448 567 280 c 0
 567 94 455 -13 331 -13 c 0
 281 -13 224 13 177 56 c 1
 173 56 l 1
 165 0 l 1
 92 0 l 1
 92 398 l 1
184 334 m 1
 184 263 l 1
 184 120 l 1
 231 78 280 64 316 64 c 0
 406 64 472 145 472 279 c 0
 472 400 432 480 328 480 c 0
 283 480 235 454 184 406 c 1
 184 334 l 1
EndSplineSet
EndChar

StartChar: c
Encoding: 99 99 68
Width: 510
GlyphClass: 1
Flags: W
LayerCount: 2
Fore
SplineSet
125 62 m 0
 80 110 52 181 52 271 c 0
 52 362 82 433 130 482 c 0
 178 531 243 557 313 557 c 0
 384 557 433 527 471 493 c 1
 425 433 l 1
 394 461 359 480 317 480 c 0
 218 480 146 396 146 271 c 0
 146 146 214 63 314 63 c 0
 364 63 408 87 442 117 c 1
 482 55 l 1
 433 13 371 -13 306 -13 c 0
 234 -13 171 13 125 62 c 0
EndSplineSet
EndChar

StartChar: d
Encoding: 100 100 69
Width: 620
GlyphClass: 1
Flags: W
LayerCount: 2
Fore
SplineSet
528 398 m 1
 528 0 l 1
 453 0 l 1
 445 64 l 1
 442 64 l 1
 400 22 342 -13 277 -13 c 0
 141 -13 53 90 53 271 c 0
 53 447 164 557 288 557 c 0
 352 557 393 533 441 494 c 1
 436 587 l 1
 436 796 l 1
 482 796 l 1
 528 796 l 1
 528 398 l 1
436 351 m 1
 436 423 l 1
 391 464 349 480 304 480 c 0
 217 480 147 396 147 272 c 0
 147 141 202 64 297 64 c 0
 347 64 391 88 436 138 c 1
 436 280 l 1
 436 351 l 1
EndSplineSet
EndChar

StartChar: e
Encoding: 101 101 70
Width: 554
GlyphClass: 1
Flags: W
LayerCount: 2
Fore
SplineSet
416 250 m 1
 325 250 l 1
 142 250 l 1
 148 134 219 60 322 60 c 0
 375 60 417 76 458 103 c 1
 490 42 l 1
 443 11 385 -13 312 -13 c 0
 167 -13 52 92 52 271 c 0
 52 448 171 557 295 557 c 0
 434 557 512 457 512 302 c 0
 512 282 510 264 508 250 c 1
 416 250 l 1
359 315 m 1
 432 315 l 1
 432 425 382 484 297 484 c 0
 220 484 152 423 141 315 c 1
 286 315 l 1
 359 315 l 1
EndSplineSet
EndChar

StartChar: f
Encoding: 102 102 71
Width: 325
GlyphClass: 1
Flags: W
LayerCount: 2
Fore
SplineSet
107 234 m 1
 107 469 l 1
 33 469 l 1
 33 538 l 1
 107 543 l 1
 107 630 l 2
 107 740 157 809 265 809 c 0
 299 809 331 802 356 792 c 1
 336 721 l 1
 316 731 294 736 275 736 c 0
 223 736 198 699 198 629 c 2
 198 543 l 1
 256 543 l 2
 275 543 294 544 313 546 c 0
 317 543 317 469 313 467 c 0
 306 468 295 469 284 469 c 2
 255 469 l 1
 198 469 l 1
 198 0 l 1
 107 0 l 1
 107 234 l 1
EndSplineSet
EndChar

StartChar: g
Encoding: 103 103 72
Width: 564
GlyphClass: 1
Flags: W
LayerCount: 2
Fore
SplineSet
484 473 m 1
 429 473 l 1
 455 448 473 408 473 361 c 0
 473 245 386 172 274 172 c 0
 248 172 218 179 194 191 c 1
 174 174 159 156 159 126 c 0
 159 92 181 67 254 67 c 2
 361 67 l 2
 486 67 550 28 550 -62 c 0
 550 -163 443 -250 275 -250 c 0
 143 -250 51 -198 51 -105 c 0
 51 -58 80 -13 131 18 c 1
 131 23 l 1
 103 40 82 69 82 112 c 0
 82 157 113 193 142 213 c 1
 142 217 l 1
 106 245 71 298 71 363 c 0
 71 482 165 557 274 557 c 0
 305 557 332 551 351 543 c 1
 445 543 l 1
 493 543 l 2
 510 543 525 544 540 545 c 0
 544 543 544 473 540 471 c 0
 533 472 522 473 512 473 c 2
 484 473 l 1
356 269 m 0
 377 291 390 324 390 363 c 0
 390 443 339 490 274 490 c 0
 211 490 159 443 159 363 c 0
 159 324 172 291 193 269 c 0
 214 247 243 234 274 234 c 0
 306 234 335 247 356 269 c 0
413 -153 m 0
 443 -133 460 -105 460 -77 c 0
 460 -26 422 -8 350 -8 c 2
 303 -8 l 1
 256 -8 l 2
 236 -8 210 -6 186 0 c 1
 147 -28 131 -61 131 -92 c 0
 131 -150 189 -187 288 -187 c 0
 341 -187 384 -174 413 -153 c 0
EndSplineSet
EndChar

StartChar: h
Encoding: 104 104 73
Width: 607
GlyphClass: 1
Flags: W
LayerCount: 2
Fore
SplineSet
92 398 m 1
 92 796 l 1
 184 796 l 1
 184 578 l 1
 180 466 l 1
 230 516 286 557 360 557 c 0
 474 557 526 482 526 344 c 2
 526 0 l 1
 435 0 l 1
 435 332 l 2
 435 434 404 477 332 477 c 0
 276 477 238 449 184 394 c 1
 184 0 l 1
 138 0 l 1
 92 0 l 1
 92 398 l 1
EndSplineSet
EndChar

StartChar: i
Encoding: 105 105 74
Width: 275
GlyphClass: 1
Flags: W
LayerCount: 2
Fore
SplineSet
184 271 m 1
 184 0 l 1
 138 0 l 1
 92 0 l 1
 92 543 l 1
 184 543 l 1
 184 271 l 1
95 672 m 0
 84 682 78 698 78 716 c 0
 78 751 102 775 138 775 c 0
 174 775 199 751 199 716 c 0
 199 698 193 682 182 672 c 0
 171 661 156 655 138 655 c 0
 120 655 105 661 95 672 c 0
EndSplineSet
EndChar

StartChar: j
Encoding: 106 106 75
Width: 275
GlyphClass: 1
Flags: W
LayerCount: 2
Fore
SplineSet
93 240 m 1
 93 543 l 1
 138 543 l 1
 184 543 l 1
 184 -62 l 2
 184 -173 143 -242 35 -242 c 0
 3 -242 -25 -236 -44 -228 c 1
 -26 -159 l 1
 -12 -164 7 -169 26 -169 c 0
 80 -169 93 -128 93 -62 c 2
 93 240 l 1
94 672 m 0
 83 682 77 698 77 716 c 0
 77 751 102 775 138 775 c 0
 173 775 199 751 199 716 c 0
 199 698 193 682 182 672 c 0
 171 661 156 655 138 655 c 0
 120 655 105 661 94 672 c 0
EndSplineSet
EndChar

StartChar: k
Encoding: 107 107 76
Width: 552
GlyphClass: 1
Flags: W
LayerCount: 2
Fore
SplineSet
92 398 m 1
 92 796 l 1
 182 796 l 1
 182 257 l 1
 186 257 l 1
 416 543 l 1
 467 543 l 1
 518 543 l 1
 337 324 l 1
 542 0 l 1
 443 0 l 1
 284 262 l 1
 182 143 l 1
 182 0 l 1
 92 0 l 1
 92 398 l 1
EndSplineSet
EndChar

StartChar: l
Encoding: 108 108 77
Width: 284
GlyphClass: 1
Flags: W
LayerCount: 2
Fore
SplineSet
184 449 m 1
 184 102 l 2
 184 74 195 63 209 63 c 0
 214 63 218 63 228 65 c 1
 241 -5 l 1
 228 -9 213 -13 188 -13 c 0
 120 -13 92 31 92 108 c 2
 92 796 l 1
 138 796 l 1
 184 796 l 1
 184 449 l 1
EndSplineSet
EndChar

StartChar: m
Encoding: 109 109 78
Width: 926
GlyphClass: 1
Flags: W
LayerCount: 2
Fore
SplineSet
92 271 m 1
 92 543 l 1
 167 543 l 1
 176 464 l 1
 178 464 l 1
 226 516 282 557 347 557 c 0
 431 557 475 517 497 453 c 1
 554 514 610 557 677 557 c 0
 788 557 841 482 841 344 c 2
 841 0 l 1
 750 0 l 1
 750 332 l 2
 750 434 718 477 649 477 c 0
 607 477 563 450 512 394 c 1
 512 0 l 1
 421 0 l 1
 421 332 l 2
 421 434 389 477 320 477 c 0
 279 477 233 450 184 394 c 1
 184 0 l 1
 138 0 l 1
 92 0 l 1
 92 271 l 1
EndSplineSet
EndChar

StartChar: n
Encoding: 110 110 79
Width: 610
GlyphClass: 1
Flags: W
LayerCount: 2
Fore
SplineSet
92 271 m 1
 92 543 l 1
 167 543 l 1
 176 464 l 1
 178 464 l 1
 229 516 286 557 360 557 c 0
 474 557 526 482 526 344 c 2
 526 0 l 1
 435 0 l 1
 435 332 l 2
 435 434 404 477 332 477 c 0
 276 477 238 449 184 394 c 1
 184 0 l 1
 138 0 l 1
 92 0 l 1
 92 271 l 1
EndSplineSet
EndChar

StartChar: o
Encoding: 111 111 80
Width: 606
GlyphClass: 1
Flags: W
LayerCount: 2
Fore
SplineSet
128 482 m 0
 174 531 237 557 303 557 c 0
 370 557 432 531 478 482 c 0
 525 433 554 362 554 271 c 0
 554 91 436 -13 303 -13 c 0
 170 -13 52 91 52 271 c 0
 52 362 82 433 128 482 c 0
417 120 m 0
 445 157 461 209 461 271 c 0
 461 334 445 386 417 422 c 0
 390 459 350 480 303 480 c 0
 209 480 146 396 146 271 c 0
 146 146 209 63 303 63 c 0
 350 63 390 84 417 120 c 0
EndSplineSet
EndChar

StartChar: p
Encoding: 112 112 81
Width: 620
GlyphClass: 1
Flags: W
LayerCount: 2
Fore
SplineSet
92 157 m 1
 92 543 l 1
 167 543 l 1
 176 480 l 1
 178 480 l 1
 227 521 288 557 351 557 c 0
 491 557 567 448 567 280 c 0
 567 94 455 -13 331 -13 c 0
 282 -13 230 9 181 50 c 1
 184 -45 l 1
 184 -229 l 1
 138 -229 l 1
 92 -229 l 1
 92 157 l 1
184 334 m 1
 184 263 l 1
 184 120 l 1
 232 78 280 64 316 64 c 0
 406 64 472 145 472 279 c 0
 472 400 432 480 328 480 c 0
 283 480 236 454 184 406 c 1
 184 334 l 1
EndSplineSet
EndChar

StartChar: q
Encoding: 113 113 82
Width: 620
GlyphClass: 1
Flags: W
LayerCount: 2
Fore
SplineSet
528 157 m 1
 528 -229 l 1
 482 -229 l 1
 436 -229 l 1
 436 -36 l 1
 441 63 l 1
 397 20 340 -13 277 -13 c 0
 141 -13 53 90 53 271 c 0
 53 447 164 557 288 557 c 0
 352 557 396 534 444 492 c 1
 446 492 l 1
 455 543 l 1
 528 543 l 1
 528 157 l 1
436 351 m 1
 436 423 l 1
 391 464 349 480 304 480 c 0
 217 480 147 396 147 272 c 0
 147 141 202 64 297 64 c 0
 347 64 391 88 436 138 c 1
 436 280 l 1
 436 351 l 1
EndSplineSet
EndChar

StartChar: r
Encoding: 114 114 83
Width: 388
GlyphClass: 1
Flags: W
LayerCount: 2
Fore
SplineSet
92 271 m 1
 92 543 l 1
 167 543 l 1
 176 444 l 1
 178 444 l 1
 216 513 272 557 332 557 c 0
 356 557 373 554 390 545 c 1
 373 466 l 1
 355 472 343 475 320 475 c 0
 275 475 220 441 184 349 c 1
 184 0 l 1
 138 0 l 1
 92 0 l 1
 92 271 l 1
EndSplineSet
EndChar

StartChar: s
Encoding: 115 115 84
Width: 468
GlyphClass: 1
Flags: W
LayerCount: 2
Fore
SplineSet
111 512 m 0
 143 540 190 557 249 557 c 0
 316 557 376 529 417 495 c 1
 373 438 l 1
 336 465 298 486 250 486 c 0
 181 486 149 450 149 407 c 0
 149 356 205 336 266 313 c 0
 345 283 431 251 431 148 c 0
 431 104 414 64 381 35 c 0
 347 5 298 -13 234 -13 c 0
 157 -13 83 19 32 62 c 1
 76 123 l 1
 124 84 172 58 237 58 c 0
 309 58 344 96 344 143 c 0
 344 198 280 224 220 246 c 0
 144 274 62 310 62 403 c 0
 62 446 79 485 111 512 c 0
EndSplineSet
EndChar

StartChar: t
Encoding: 116 116 85
Width: 377
GlyphClass: 1
Flags: W
LayerCount: 2
Fore
SplineSet
199 317 m 1
 199 165 l 2
 199 99 220 61 283 61 c 0
 303 61 327 68 345 76 c 1
 363 7 l 1
 332 -3 296 -13 262 -13 c 0
 147 -13 108 59 108 168 c 2
 108 469 l 1
 27 469 l 1
 27 538 l 1
 113 543 l 1
 123 696 l 1
 199 696 l 1
 199 543 l 1
 273 543 l 2
 299 543 323 544 347 546 c 0
 351 543 351 469 347 467 c 0
 338 468 323 469 310 469 c 2
 273 469 l 1
 199 469 l 1
 199 317 l 1
EndSplineSet
EndChar

StartChar: u
Encoding: 117 117 86
Width: 607
GlyphClass: 1
Flags: W
LayerCount: 2
Fore
SplineSet
516 271 m 1
 516 0 l 1
 440 0 l 1
 433 85 l 1
 430 85 l 1
 379 26 325 -13 251 -13 c 0
 136 -13 84 60 84 199 c 2
 84 543 l 1
 130 543 l 1
 176 543 l 1
 176 210 l 2
 176 109 206 66 278 66 c 0
 334 66 373 94 425 158 c 1
 425 543 l 1
 516 543 l 1
 516 271 l 1
EndSplineSet
EndChar

StartChar: v
Encoding: 118 118 87
Width: 521
GlyphClass: 1
Flags: W
LayerCount: 2
Fore
SplineSet
111 271 m 1
 13 543 l 1
 108 543 l 1
 210 234 l 2
 227 181 244 126 260 74 c 1
 265 74 l 1
 281 126 299 181 315 234 c 2
 418 543 l 1
 508 543 l 1
 316 0 l 1
 262 0 l 1
 209 0 l 1
 111 271 l 1
EndSplineSet
EndChar

StartChar: w
Encoding: 119 119 88
Width: 802
GlyphClass: 1
Flags: W
LayerCount: 2
Fore
SplineSet
102 271 m 1
 27 543 l 1
 120 543 l 1
 201 229 l 2
 212 177 222 128 233 78 c 1
 238 78 l 1
 249 128 261 177 274 229 c 2
 359 543 l 1
 448 543 l 1
 533 229 l 2
 546 177 558 128 571 78 c 1
 576 78 l 1
 587 128 597 177 609 229 c 2
 688 543 l 1
 776 543 l 1
 629 0 l 1
 573 0 l 1
 518 0 l 1
 440 293 l 2
 426 344 416 394 403 449 c 1
 398 449 l 1
 386 394 375 343 361 291 c 2
 284 0 l 1
 178 0 l 1
 102 271 l 1
EndSplineSet
EndChar

StartChar: x
Encoding: 120 120 89
Width: 498
GlyphClass: 1
Flags: W
LayerCount: 2
Fore
SplineSet
104 141 m 1
 194 283 l 1
 29 543 l 1
 128 543 l 1
 201 424 l 2
 217 393 236 364 254 333 c 1
 259 333 l 1
 275 364 290 393 307 424 c 2
 374 543 l 1
 469 543 l 1
 304 274 l 1
 483 0 l 1
 433 0 l 1
 383 0 l 1
 303 127 l 2
 285 160 265 193 244 224 c 1
 239 224 l 1
 220 193 203 160 184 127 c 2
 111 0 l 1
 15 0 l 1
 104 141 l 1
EndSplineSet
EndChar

StartChar: y
Encoding: 121 121 90
Width: 521
GlyphClass: 1
Flags: W
LayerCount: 2
Fore
SplineSet
406 248 m 1
 304 -46 l 2
 266 -152 209 -234 101 -234 c 0
 76 -234 54 -230 37 -223 c 1
 55 -150 l 1
 66 -154 82 -159 97 -159 c 0
 158 -159 196 -109 219 -42 c 2
 231 -1 l 1
 13 543 l 1
 60 543 l 1
 108 543 l 1
 218 242 l 2
 235 194 253 139 272 88 c 1
 277 88 l 1
 291 138 307 193 321 242 c 2
 419 543 l 1
 508 543 l 1
 406 248 l 1
EndSplineSet
EndChar

StartChar: z
Encoding: 122 122 91
Width: 475
GlyphClass: 1
Flags: W
LayerCount: 2
Fore
SplineSet
293 284 m 1
 150 74 l 1
 298 74 l 2
 348 74 397 76 446 80 c 1
 450 74 450 0 446 -5 c 1
 421 -2 378 0 343 0 c 2
 240 0 l 1
 35 0 l 1
 35 49 l 1
 321 469 l 1
 193 469 l 2
 150 469 108 467 66 463 c 1
 62 469 62 543 66 551 c 1
 112 546 188 543 251 543 c 2
 437 543 l 1
 437 494 l 1
 293 284 l 1
EndSplineSet
EndChar

StartChar: braceleft
Encoding: 123 123 92
Width: 338
GlyphClass: 1
Flags: W
LayerCount: 2
Fore
SplineSet
129 89 m 0
 132 123 134 157 134 194 c 0
 134 239 114 282 38 282 c 1
 38 340 l 1
 114 341 134 384 134 426 c 0
 134 464 132 498 129 532 c 0
 127 567 124 602 124 642 c 0
 124 758 166 792 254 792 c 2
 279 792 l 2
 288 792 296 793 304 793 c 0
 308 792 308 739 304 738 c 0
 301 738 296 739 290 739 c 2
 275 739 l 2
 215 739 199 710 199 637 c 0
 199 569 205 511 205 434 c 0
 205 362 187 326 138 313 c 1
 138 308 l 1
 187 295 205 258 205 187 c 0
 205 111 199 52 199 -16 c 0
 199 -88 215 -118 275 -118 c 2
 290 -118 l 2
 296 -118 300 -117 304 -117 c 0
 308 -118 308 -170 304 -171 c 0
 298 -171 288 -170 279 -170 c 2
 254 -170 l 2
 166 -170 124 -137 124 -22 c 0
 124 19 127 54 129 89 c 0
EndSplineSet
EndChar

StartChar: bar
Encoding: 124 124 93
Width: 270
GlyphClass: 1
Flags: W
LayerCount: 2
Fore
SplineSet
103 279 m 1
 103 559 l 2
 103 652 100 769 95 838 c 1
 103 844 167 844 175 838 c 1
 170 769 167 652 167 559 c 2
 167 279 l 1
 167 0 l 2
 167 -93 170 -210 175 -279 c 1
 167 -285 103 -285 95 -279 c 1
 100 -210 103 -93 103 0 c 2
 103 279 l 1
EndSplineSet
EndChar

StartChar: braceright
Encoding: 125 125 94
Width: 338
GlyphClass: 1
Flags: W
LayerCount: 2
Fore
SplineSet
210 532 m 0
 208 498 205 464 205 426 c 0
 205 384 225 341 300 340 c 1
 300 282 l 1
 225 282 205 239 205 194 c 0
 205 157 208 123 210 89 c 0
 213 54 215 19 215 -22 c 0
 215 -137 172 -170 84 -170 c 2
 59 -170 l 2
 50 -170 42 -171 34 -171 c 0
 30 -170 30 -118 34 -117 c 0
 37 -117 42 -118 48 -118 c 2
 63 -118 l 2
 123 -118 139 -88 139 -16 c 0
 139 52 134 111 134 187 c 0
 134 258 151 295 200 308 c 1
 200 313 l 1
 151 326 134 362 134 434 c 0
 134 511 139 569 139 637 c 0
 139 710 123 739 63 739 c 2
 48 739 l 2
 42 739 38 738 34 738 c 0
 30 739 30 792 34 793 c 0
 40 793 50 792 59 792 c 2
 84 792 l 2
 172 792 215 758 215 642 c 0
 215 602 213 567 210 532 c 0
EndSplineSet
EndChar

StartChar: asciitilde
Encoding: 126 126 95
Width: 555
GlyphClass: 1
Flags: W
LayerCount: 2
Fore
SplineSet
288 404 m 0
 319 380 347 356 378 356 c 0
 410 356 438 376 464 424 c 1
 515 387 l 1
 474 317 424 287 376 287 c 0
 332 287 298 311 268 335 c 0
 237 358 209 382 177 382 c 0
 145 382 117 362 92 314 c 1
 41 350 l 1
 81 420 132 451 180 451 c 0
 224 451 258 427 288 404 c 0
EndSplineSet
EndChar

StartChar: uni3099
Encoding: 12441 12441 96
Width: 0
GlyphClass: 2
Flags: W
LayerCount: 2
Fore
SplineSet
-172 765 m 0
 -157 740 -143 714 -132 692 c 1
 -184 668 l 1
 -195 692 -208 717 -221 741 c 0
 -235 765 -249 788 -264 809 c 1
 -214 831 l 1
 -202 814 -187 790 -172 765 c 0
-65 806 m 0
 -50 782 -35 756 -23 734 c 1
 -74 709 l 1
 -86 733 -99 757 -113 781 c 0
 -128 804 -143 827 -158 848 c 1
 -109 871 l 1
 -97 855 -81 831 -65 806 c 0
EndSplineSet
EndChar

StartChar: uni309A
Encoding: 12442 12442 97
Width: 0
GlyphClass: 2
Flags: W
LayerCount: 2
Fore
SplineSet
-76 812 m 0
 -88 825 -104 832 -122 832 c 0
 -141 832 -157 825 -169 812 c 0
 -181 800 -188 784 -188 765 c 0
 -188 728 -159 698 -122 698 c 0
 -86 698 -56 728 -56 765 c 0
 -56 784 -64 800 -76 812 c 0
-42 845 m 0
 -22 824 -9 796 -9 765 c 0
 -9 734 -22 706 -42 685 c 0
 -63 665 -91 652 -122 652 c 0
 -185 652 -234 703 -234 765 c 0
 -234 827 -185 878 -122 878 c 0
 -91 878 -63 865 -42 845 c 0
EndSplineSet
EndChar

StartChar: u1B000
Encoding: 110592 110592 98
Width: 1000
GlyphClass: 2
Flags: W
LayerCount: 2
Fore
SplineSet
878 557 m 1
 875.333333333 552.333333333 872.666666667 547.333333333 870 542 c 128
 867.333333333 536.666666667 865.666666667 532 865 528 c 0
 837 470.666666667 808.833333333 418.166666667 780.5 370.5 c 128
 752.166666667 322.833333333 712 272.333333333 660 219 c 0
 606 165.666666667 550.666666667 123 494 91 c 128
 437.333333333 59 346 23 220 -17 c 1
 158 53 l 1
 290 89.6666666667 383.333333333 122.5 438 151.5 c 128
 492.666666667 180.5 544 218 592 264 c 0
 640.666666667 312.666666667 676.333333333 354.166666667 699 388.5 c 128
 721.666666667 422.833333333 744 463.333333333 766 510 c 1
 270 510 l 2
 257.333333333 510 242.333333333 509.666666667 225 509 c 128
 207.666666667 508.333333333 190 507.666666667 172 507 c 1
 172 591 l 1
 190.666666667 589 208.333333333 587.5 225 586.5 c 128
 241.666666667 585.5 256.666666667 585 270 585 c 2
 466 585 l 1
 466 734 l 2
 466 748 465.666666667 763.166666667 465 779.5 c 128
 464.333333333 795.833333333 463 810 461 822 c 1
 553 822 l 1
 551 810 549.5 795.833333333 548.5 779.5 c 128
 547.5 763.166666667 547 748 547 734 c 2
 547 585 l 1
 766 585 l 2
 778 585 788.666666667 585.666666667 798 587 c 128
 807.333333333 588.333333333 815 590.333333333 821 593 c 1
 878 557 l 1
EndSplineSet
EndChar

StartChar: u1B001
Encoding: 110593 110593 99
Width: 1000
GlyphClass: 2
Flags: W
LayerCount: 2
Fore
SplineSet
215 539 m 1
 201.666666667 481.666666667 194.666666667 421.666666667 194 359 c 0
 192.666666667 295.666666667 198 236 210 180 c 1
 210 180.666666667 210.333333333 181.333333333 211 182 c 0
 217.666666667 203.333333333 225.666666667 227.333333333 235 254 c 0
 248.333333333 286 261 317.333333333 273 348 c 0
 313 430.666666667 356.333333333 497.333333333 403 548 c 1
 457.666666667 616.666666667 525 664.666666667 605 692 c 1
 690.333333333 718 766 718.833333333 832 694.5 c 128
 898 670.166666667 925.666666667 612.666666667 915 522 c 0
 907 452 885.5 392 850.5 342 c 128
 815.5 292 772 244 720 198 c 0
 694.666666667 174.666666667 672 156 652 142 c 1
 677.333333333 143.333333333 708.166666667 143 744.5 141 c 128
 780.833333333 139 813.666666667 137.5 843 136.5 c 128
 872.333333333 135.5 890.833333333 134.666666667 898.5 134 c 128
 906.166666667 133.333333333 915.333333333 133 926 133 c 1
 916 54 l 1
 902 55.3333333333 877.666666667 57.1666666667 843 59.5 c 128
 808.333333333 61.8333333333 764.166666667 63.5 710.5 64.5 c 128
 656.833333333 65.5 589.666666667 65.3333333333 509 64 c 2
 426 60 l 1
 414 133 l 1
 454 135 479.5 136.333333333 490.5 137 c 128
 501.5 137.666666667 522 146.333333333 552 163 c 128
 582 179.666666667 619 208.666666667 663 250 c 128
 707 291.333333333 744.333333333 333.666666667 775 377 c 128
 805.666666667 420.333333333 824.666666667 471.666666667 832 531 c 0
 836 580.333333333 817.333333333 610.166666667 776 620.5 c 128
 734.666666667 630.833333333 685.666666667 627.333333333 629 610 c 1
 575 590.666666667 523 556.666666667 473 508 c 0
 415.666666667 450.666666667 364.666666667 380.333333333 320 297 c 0
 295.333333333 249 275 200 259 150 c 0
 251.666666667 124.666666667 246 103.333333333 242 86 c 0
 240 78 238.5 70 237.5 62 c 128
 236.5 54 236.333333333 47 237 41 c 0
 237.666666667 35.6666666667 238.166666667 30 238.5 24 c 128
 238.833333333 18 239.333333333 12.3333333333 240 7 c 1
 172 -1 l 1
 161.333333333 31 150 75.8333333333 138 133.5 c 128
 126 191.166666667 119.666666667 252.333333333 119 317 c 0
 119.666666667 399 125.666666667 480.333333333 137 561 c 1
 215 539 l 1
204 649 m 1
 222 663 235.333333333 674.333333333 244 683 c 1
 240.666666667 686.333333333 226.833333333 693.666666667 202.5 705 c 128
 178.166666667 716.333333333 147.666666667 728.333333333 111 741 c 1
 156 801 l 1
 179.333333333 793 200.5 785.333333333 219.5 778 c 128
 238.5 770.666666667 257.5 762.833333333 276.5 754.5 c 128
 295.5 746.166666667 312.666666667 737 328 727 c 1
 349 681 l 1
 307.666666667 660.333333333 272.666666667 642.666666667 244 628 c 1
 204 649 l 1
EndSplineSet
EndChar

StartChar: u1B002
Encoding: 110594 110594 100
Width: 1000
GlyphClass: 2
Flags: W
LayerCount: 2
Fore
SplineSet
809 595 m 1
 805.666666667 625 782.666666667 641.833333333 740 645.5 c 128
 697.333333333 649.166666667 642.333333333 647.666666667 575 641 c 1
 524.333333333 633 477.333333333 625.333333333 434 618 c 1
 432.666666667 610.666666667 431 603 429 595 c 0
 417.666666667 539 411 503.333333333 409 488 c 256
 407 472.666666667 405 454 403 432 c 1
 424.333333333 437.333333333 448 442 474 446 c 0
 500 449.333333333 524.666666667 451.666666667 548 453 c 0
 558.666666667 453.666666667 569.333333333 454 580 454 c 1
 580 455.333333333 580.333333333 456.666666667 581 458 c 0
 587 478 594 502.333333333 602 531 c 1
 684 508 l 1
 674.666666667 484.666666667 666.333333333 463.666666667 659 445 c 1
 660 445 l 1
 738 429.666666667 797.5 401.333333333 838.5 360 c 128
 879.5 318.666666667 900.333333333 270 901 214 c 0
 899 155.333333333 878.166666667 102.666666667 838.5 56 c 128
 798.833333333 9.33333333333 725.666666667 -33 619 -71 c 1
 571 -10 l 1
 653 10 716 40 760 80 c 0
 804 120 826.333333333 162.666666667 827 208 c 1
 831.666666667 251.333333333 815.666666667 289.333333333 779 322 c 128
 742.333333333 354.666666667 695 376.333333333 637 387 c 1
 636 387 l 1
 628 369 621.666666667 354.666666667 617 344 c 0
 597.666666667 292 573 246.666666667 543 208 c 0
 513.666666667 171.333333333 480 137.666666667 442 107 c 1
 448.666666667 84.3333333333 455.666666667 61.3333333333 463 38 c 1
 393 17 l 1
 389.666666667 26.3333333333 386.833333333 35.1666666667 384.5 43.5 c 128
 382.166666667 51.8333333333 380.666666667 58 380 62 c 2
 379 64 l 1
 368 57 l 1
 346 46.3333333333 321.833333333 36.5 295.5 27.5 c 128
 269.166666667 18.5 243.333333333 14 218 14 c 0
 187.333333333 14 161.666666667 23.1666666667 141 41.5 c 128
 120.333333333 59.8333333333 109.666666667 87.6666666667 109 125 c 0
 109.666666667 165 120.166666667 202.666666667 140.5 238 c 128
 160.833333333 273.333333333 187.666666667 305.666666667 221 335 c 128
 254.333333333 364.333333333 291 387.666666667 331 405 c 0
 333 405.666666667 335 406.666666667 337 408 c 0
 337 409 337 409 337 411 c 0
 339 471.666666667 346 532 358 592 c 0
 359 598 359 598 360 604 c 1
 307.333333333 592.666666667 264.333333333 583 231 575 c 0
 210.333333333 569.666666667 191.333333333 564.666666667 174 560 c 128
 156.666666667 555.333333333 144.333333333 550.333333333 137 545 c 1
 105 628 l 1
 113.666666667 630.666666667 128 633.333333333 148 636 c 128
 168 638.666666667 187.666666667 642.333333333 207 647 c 0
 249.666666667 657 304.333333333 668.333333333 371 681 c 0
 373 681 375.333333333 681.333333333 378 682 c 0
 381.333333333 693.333333333 384.333333333 703.333333333 387 712 c 0
 395 740 400 758.333333333 402 767 c 0
 409.333333333 785 414 800 416 812 c 1
 495 793 l 1
 491 788.333333333 487.333333333 782 484 774 c 128
 480.666666667 766 478 759.333333333 476 754 c 0
 472.666666667 746 466.666666667 730 458 706 c 0
 456.666666667 702.666666667 455.666666667 699.333333333 455 696 c 1
 495 702.666666667 536 708.333333333 578 713 c 0
 675.333333333 724.333333333 750.666666667 721.666666667 804 705 c 128
 857.333333333 688.333333333 883.666666667 654 883 602 c 1
 879 552.666666667 845 517.666666667 781 497 c 1
 734 543 l 1
 773.333333333 552.333333333 798.333333333 569.666666667 809 595 c 1
547 390 m 0
 517 389.333333333 490.333333333 386.666666667 467 382 c 0
 445.666666667 377.333333333 423.666666667 371.666666667 401 365 c 1
 401 353 401.333333333 342.666666667 402 334 c 0
 403.333333333 303.333333333 406.166666667 275.666666667 410.5 251 c 128
 414.833333333 226.333333333 419.333333333 205.333333333 424 188 c 1
 424 187 l 1
 447.333333333 208.333333333 469.333333333 233 490 261 c 0
 512.666666667 293.666666667 533 330.666666667 551 372 c 0
 553.666666667 378.666666667 556.333333333 385 559 391 c 1
 555 390.333333333 551 390 547 390 c 0
329 332 m 0
 287.666666667 310 253.666666667 280.833333333 227 244.5 c 128
 200.333333333 208.166666667 186.333333333 172.666666667 185 138 c 0
 185 122.666666667 188.666666667 110.5 196 101.5 c 128
 203.333333333 92.5 215 88 231 88 c 0
 247.666666667 88 266.166666667 91.8333333333 286.5 99.5 c 128
 306.833333333 107.166666667 328.333333333 117.333333333 351 130 c 0
 355 132 358.666666667 134.333333333 362 137 c 1
 356 165.666666667 351 195.333333333 347 226 c 0
 342.333333333 257.333333333 339 291.333333333 337 328 c 0
 337 332 337 332 337 335 c 1
 334.333333333 334.333333333 331.666666667 333.333333333 329 332 c 0
EndSplineSet
EndChar

StartChar: u1B003
Encoding: 110595 110595 101
Width: 1000
GlyphClass: 2
Flags: W
LayerCount: 2
Fore
SplineSet
184 750 m 1
 208 740.666666667 242.666666667 731.333333333 288 722 c 0
 333.333333333 714 378.666666667 709.333333333 424 708 c 0
 444.666666667 706.666666667 466 706.333333333 488 707 c 1
 491.333333333 743.666666667 494.333333333 777.333333333 497 808 c 1
 582 805 l 1
 580 777.666666667 576.333333333 746 571 710 c 1
 623 713.333333333 699.666666667 726.666666667 801 750 c 0
 816.333333333 754.666666667 830.666666667 760 844 766 c 1
 864 688 l 1
 844.666666667 685.333333333 826.666666667 681.333333333 810 676 c 0
 706 654 626.333333333 640.666666667 571 636 c 0
 567 635.333333333 563.333333333 635 560 635 c 1
 559.333333333 631 558.666666667 627.333333333 558 624 c 0
 545.333333333 550.666666667 531 490.666666667 515 444 c 1
 440 466 l 1
 460 522 473.333333333 577 480 631 c 1
 458 631 436.333333333 631.666666667 415 633 c 0
 365.666666667 635 315.333333333 641 264 651 c 128
 212.666666667 661 177 667.333333333 157 670 c 1
 184 750 l 1
316 516 m 1
 348 489 l 1
 311.333333333 433.666666667 289 389.666666667 281 357 c 1
 229 383 l 1
 221.666666667 401.666666667 214.833333333 421.166666667 208.5 441.5 c 128
 202.166666667 461.833333333 196 482.833333333 190 504.5 c 128
 184 526.166666667 178 548.333333333 172 571 c 1
 172 570.333333333 195.333333333 574 242 582 c 1
 249.333333333 550.666666667 259 517.333333333 271 482 c 1
 316 516 l 1
852 516 m 1
 806.666666667 477.333333333 769 449.5 739 432.5 c 128
 709 415.5 675.833333333 399.166666667 639.5 383.5 c 128
 603.166666667 367.833333333 568.333333333 356 535 348 c 1
 635.666666667 330 687.666666667 305.333333333 691 274 c 0
 692.333333333 255.333333333 684 240.5 666 229.5 c 128
 648 218.5 631.666666667 208.666666667 617 200 c 0
 565 168 541.666666667 130 547 86 c 1
 556.333333333 56.6666666667 568.833333333 37.1666666667 584.5 27.5 c 128
 600.166666667 17.8333333333 643.166666667 15 713.5 19 c 128
 783.833333333 23 843.333333333 31.3333333333 892 44 c 1
 896 -31 l 1
 822.666666667 -46.3333333333 754.833333333 -54.6666666667 692.5 -56 c 128
 630.166666667 -57.3333333333 583.333333333 -50.3333333333 552 -35 c 128
 520.666666667 -19.6666666667 498 7.66666666667 484 47 c 0
 458.666666667 132.333333333 494 204 590 262 c 0
 615.333333333 276 550.333333333 297 395 325 c 1
 406 383 l 1
 454.666666667 389 508.5 403.333333333 567.5 426 c 128
 626.5 448.666666667 674 472.666666667 710 498 c 0
 746 523.333333333 777 551.333333333 803 582 c 1
 852 516 l 1
EndSplineSet
EndChar

StartChar: u1B004
Encoding: 110596 110596 102
Width: 1000
GlyphClass: 2
Flags: W
LayerCount: 2
Fore
SplineSet
275 754 m 1
 316 721 l 1
 306.666666667 689 296.833333333 649.166666667 286.5 601.5 c 128
 276.166666667 553.833333333 266.333333333 504.833333333 257 454.5 c 128
 247.666666667 404.166666667 241.666666667 360 239 322 c 0
 237.666666667 298 237 274.833333333 237 252.5 c 128
 237 230.166666667 238 207 240 183 c 1
 250 205.666666667 261.166666667 229.833333333 273.5 255.5 c 128
 285.833333333 281.166666667 297 304.666666667 307 326 c 1
 345 291 l 1
 335.666666667 268.333333333 325.166666667 243.166666667 313.5 215.5 c 128
 301.833333333 187.833333333 291.166666667 161.666666667 281.5 137 c 128
 271.833333333 112.333333333 264.666666667 91.6666666667 260 75 c 0
 258 68.3333333333 256.333333333 61 255 53 c 128
 253.666666667 45 253 37.6666666667 253 31 c 2
 253 -4 l 1
 183 -5 l 1
 175 31.6666666667 169.166666667 77 165.5 131 c 128
 161.833333333 185 162 245.333333333 166 312 c 0
 170 362 176.5 413.833333333 185.5 467.5 c 128
 194.5 521.166666667 207 587.666666667 223 667 c 1
 82 637 l 1
 82 719 l 1
 104.666666667 720.333333333 169 732 275 754 c 1
445 715 m 1
 471.666666667 713.666666667 540.833333333 719.5 652.5 732.5 c 128
 764.166666667 745.5 834.333333333 754 863 758 c 1
 867 680 l 1
 651 658 l 2
 538.333333333 646 469.666666667 636.666666667 445 630 c 1
 445 715 l 1
668 267 m 0
 642.666666667 217 606.333333333 185.333333333 559 172 c 128
 511.666666667 158.666666667 471.666666667 176.833333333 439 226.5 c 128
 406.333333333 276.166666667 403.666666667 335.5 431 404.5 c 128
 458.333333333 473.5 513.833333333 514.166666667 597.5 526.5 c 128
 681.166666667 538.833333333 745.166666667 530.5 789.5 501.5 c 128
 833.833333333 472.5 864.333333333 434.5 881 387.5 c 128
 897.666666667 340.5 902.166666667 290.833333333 894.5 238.5 c 128
 886.833333333 186.166666667 865.166666667 139.833333333 829.5 99.5 c 128
 793.833333333 59.1666666667 732 22 644 -12 c 1
 562 37 l 1
 634 54.3333333333 689.833333333 77.1666666667 729.5 105.5 c 128
 769.166666667 133.833333333 795.833333333 172.166666667 809.5 220.5 c 128
 823.166666667 268.833333333 824.666666667 311.333333333 814 348 c 128
 803.333333333 384.666666667 787.333333333 412.333333333 766 431 c 0
 752.666666667 442.333333333 734.666666667 450.666666667 712 456 c 1
 706 375.333333333 691.333333333 312.333333333 668 267 c 0
517 398 m 0
 489.666666667 350.666666667 485.333333333 310.666666667 504 278 c 128
 522.666666667 245.333333333 543.666666667 240.5 567 263.5 c 128
 590.333333333 286.5 607 317.666666667 617 357 c 0
 625.666666667 389 629 423.666666667 627 461 c 1
 575.666666667 458.333333333 539 437.333333333 517 398 c 0
EndSplineSet
EndChar

StartChar: u1B005
Encoding: 110597 110597 103
Width: 1000
GlyphClass: 2
Flags: W
LayerCount: 2
Fore
SplineSet
485 666 m 1
 501 682.666666667 513 695.666666667 521 705 c 1
 517.666666667 707.666666667 503 713.166666667 477 721.5 c 128
 451 729.833333333 419.333333333 738 382 746 c 1
 419 811 l 1
 443.666666667 806.333333333 465.833333333 801.5 485.5 796.5 c 128
 505.166666667 791.5 524.833333333 785.833333333 544.5 779.5 c 128
 564.166666667 773.166666667 582.333333333 766 599 758 c 1
 625 715 l 1
 586.333333333 689.666666667 553.666666667 668 527 650 c 1
 485 666 l 1
256 566 m 1
 289.333333333 566 326 567.333333333 366 570 c 128
 406 572.666666667 449.333333333 575.5 496 578.5 c 128
 542.666666667 581.5 577.666666667 584.666666667 601 588 c 1
 629 523 l 1
 574.333333333 495 523.666666667 463.5 477 428.5 c 128
 430.333333333 393.5 409.333333333 369 414 355 c 1
 421.333333333 347 450.666666667 347 502 355 c 128
 553.333333333 363 592.166666667 369.5 618.5 374.5 c 128
 644.833333333 379.5 668 384.666666667 688 390 c 1
 711 312 l 1
 641 300 l 2
 582.333333333 290.666666667 526.5 284.833333333 473.5 282.5 c 128
 420.5 280.166666667 382.666666667 292 360 318 c 1
 330 379.333333333 366.333333333 441 469 503 c 1
 423.666666667 499 385.5 495.833333333 354.5 493.5 c 128
 323.5 491.166666667 291.666666667 489 259 487 c 1
 256 566 l 1
383 250 m 1
 357.666666667 231.333333333 336.666666667 210.666666667 320 188 c 1
 367.333333333 192 404.666666667 184.666666667 432 166 c 128
 459.333333333 147.333333333 480.666666667 120 496 84 c 1
 516.666666667 121.333333333 544.166666667 151.666666667 578.5 175 c 128
 612.833333333 198.333333333 650.333333333 210.333333333 691 211 c 0
 746.333333333 209.666666667 794.666666667 190.333333333 836 153 c 128
 877.333333333 115.666666667 911 67 937 7 c 1
 856 -25 l 1
 835.333333333 31.6666666667 810.5 74.1666666667 781.5 102.5 c 128
 752.5 130.833333333 720.666666667 145 686 145 c 0
 654.666666667 144.333333333 626.166666667 133.166666667 600.5 111.5 c 128
 574.833333333 89.8333333333 555 61.3333333333 541 26 c 0
 538.333333333 19.3333333333 536.166666667 12.1666666667 534.5 4.5 c 128
 532.833333333 -3.16666666667 531.666666667 -10 531 -16 c 1
 453 -16 l 1
 451.666666667 -8.66666666667 450.5 -1.33333333333 449.5 6 c 128
 448.5 13.3333333333 447.333333333 20.3333333333 446 27 c 0
 434.666666667 62.3333333333 418.833333333 88.8333333333 398.5 106.5 c 128
 378.166666667 124.166666667 353.666666667 133 325 133 c 0
 289.666666667 131.666666667 256.166666667 115.666666667 224.5 85 c 128
 192.833333333 54.3333333333 162.666666667 18.3333333333 134 -23 c 1
 64 18 l 1
 108 65.3333333333 157.166666667 114.333333333 211.5 165 c 128
 265.833333333 215.666666667 313.666666667 254.666666667 355 282 c 1
 383 250 l 1
EndSplineSet
EndChar

StartChar: u1B006
Encoding: 110598 110598 104
Width: 1000
GlyphClass: 2
Flags: W
LayerCount: 2
Fore
SplineSet
213 246 m 1
 237 221 l 1
 184.333333333 143.666666667 149.333333333 85.3333333333 132 46 c 1
 89 80 l 1
 83 108.666666667 78.1666666667 143.166666667 74.5 183.5 c 128
 70.8333333333 223.833333333 67.6666666667 264.666666667 65 306 c 0
 61.6666666667 347.333333333 60.6666666667 382.666666667 62 412 c 1
 131 430 l 1
 132.333333333 386.666666667 134.833333333 340.166666667 138.5 290.5 c 128
 142.166666667 240.833333333 147.333333333 201 154 171 c 1
 213 246 l 1
312 447 m 1
 384 458 l 1
 382.666666667 422 383.333333333 387.833333333 386 355.5 c 128
 388.666666667 323.166666667 391.333333333 294 394 268 c 128
 396.666666667 242 402 212 410 178 c 1
 335 164 l 1
 323 222 315.666666667 272.666666667 313 316 c 128
 310.333333333 359.333333333 310 403 312 447 c 1
619 768 m 1
 689 779.333333333 739.833333333 771.166666667 771.5 743.5 c 128
 803.166666667 715.833333333 824.333333333 680.166666667 835 636.5 c 128
 845.666666667 592.833333333 851.333333333 548.333333333 852 503 c 128
 852.666666667 457.666666667 850.166666667 415.166666667 844.5 375.5 c 128
 838.833333333 335.833333333 832.833333333 302.166666667 826.5 274.5 c 128
 820.166666667 246.833333333 816.666666667 227 816 215 c 1
 821.333333333 206.333333333 856.666666667 194.666666667 922 180 c 1
 949 141 l 1
 908.333333333 89.6666666667 846 22 762 -62 c 1
 720 -45 l 1
 792 43.6666666667 833.333333333 101.666666667 844 129 c 1
 812 141 783.333333333 151.666666667 758 161 c 1
 740 174.333333333 731.833333333 188.833333333 733.5 204.5 c 128
 735.166666667 220.166666667 739.666666667 247.166666667 747 285.5 c 128
 754.333333333 323.833333333 761.166666667 373.833333333 767.5 435.5 c 128
 773.833333333 497.166666667 773.666666667 548 767 588 c 128
 760.333333333 628 745.333333333 659.333333333 722 682 c 128
 698.666666667 704.666666667 658.666666667 707.666666667 602 691 c 1
 619 768 l 1
EndSplineSet
EndChar

StartChar: u1B007
Encoding: 110599 110599 105
Width: 1000
GlyphClass: 2
Flags: W
LayerCount: 2
Fore
SplineSet
341 737 m 1
 315.666666667 713.666666667 292.333333333 689 271 663 c 128
 249.666666667 637 229.333333333 611.666666667 210 587 c 128
 190.666666667 562.333333333 169 532.333333333 145 497 c 1
 82 549 l 1
 107.333333333 576.333333333 130.666666667 602.833333333 152 628.5 c 128
 173.333333333 654.166666667 193.833333333 679.833333333 213.5 705.5 c 128
 233.166666667 731.166666667 251.333333333 756.666666667 268 782 c 1
 341 737 l 1
327 446 m 1
 465 496.666666667 576.666666667 530.333333333 662 547 c 1
 701 491 l 1
 676.333333333 464.333333333 656.833333333 442.5 642.5 425.5 c 128
 628.166666667 408.5 614 390.333333333 600 371 c 128
 586 351.666666667 569.166666667 328.833333333 549.5 302.5 c 128
 529.833333333 276.166666667 523.666666667 260 531 254 c 0
 537 248.666666667 555.333333333 248.666666667 586 254 c 0
 618.666666667 260 649.666666667 268.333333333 679 279 c 0
 684.333333333 280.333333333 689.333333333 282 694 284 c 0
 694 284.666666667 694.333333333 285.666666667 695 287 c 0
 708.333333333 337 717.166666667 378 721.5 410 c 128
 725.833333333 442 728.666666667 471.333333333 730 498 c 1
 810 485 l 1
 801.333333333 458.333333333 793.666666667 426 787 388 c 0
 783 364.666666667 777.666666667 339 771 311 c 1
 796.333333333 321 832.333333333 338.666666667 879 364 c 1
 918 301 l 1
 895.333333333 285.666666667 859.666666667 268.333333333 811 249 c 0
 788.333333333 239.666666667 767.333333333 232 748 226 c 1
 735.333333333 184.666666667 720.666666667 145.333333333 704 108 c 0
 683.333333333 61.3333333333 652.333333333 4.66666666667 611 -62 c 1
 537 -37 l 1
 583 29.6666666667 617.666666667 87.6666666667 641 137 c 0
 651.666666667 158.333333333 660.666666667 180.333333333 668 203 c 1
 644 197.666666667 618 192.666666667 590 188 c 0
 530.666666667 180.666666667 491.666666667 192.666666667 473 224 c 0
 463 242.666666667 468 270.5 488 307.5 c 128
 508 344.5 526.666666667 375.666666667 544 401 c 128
 561.333333333 426.333333333 573.333333333 444.666666667 580 456 c 1
 548 448 505.333333333 433.666666667 452 413 c 128
 398.666666667 392.333333333 363.666666667 376.666666667 347 366 c 1
 327 446 l 1
641 615 m 1
 724 661 l 1
 696 673 657.666666667 684.5 609 695.5 c 128
 560.333333333 706.5 514.666666667 716 472 724 c 1
 502 790 l 1
 530.666666667 786 565.166666667 779.333333333 605.5 770 c 128
 645.833333333 760.666666667 685.666666667 751.166666667 725 741.5 c 128
 764.333333333 731.833333333 797.666666667 721.666666667 825 711 c 1
 828 661 l 1
 802 651.666666667 746.666666667 627 662 587 c 1
 641 615 l 1
207 469 m 1
 214.333333333 387.666666667 219.666666667 327.333333333 223 288 c 128
 226.333333333 248.666666667 235.166666667 189.333333333 249.5 110 c 128
 263.833333333 30.6666666667 272.333333333 -15.3333333333 275 -28 c 1
 199 -39 l 1
 191 -7 181.666666667 38.3333333333 171 97 c 128
 160.333333333 155.666666667 154.666666667 217.333333333 154 282 c 0
 153.333333333 327.333333333 154.666666667 371.666666667 158 415 c 0
 158 426.333333333 160.333333333 448.333333333 165 481 c 1
 207 469 l 1
EndSplineSet
EndChar

StartChar: u1B008
Encoding: 110600 110600 106
Width: 1000
GlyphClass: 2
Flags: W
LayerCount: 2
Fore
SplineSet
482 540 m 1
 528.666666667 498.666666667 600 476 696 472 c 1
 666 394 l 1
 614.666666667 394.666666667 570 392.333333333 532 387 c 0
 507.333333333 382.333333333 492.833333333 371.666666667 488.5 355 c 128
 484.166666667 338.333333333 493 324.333333333 515 313 c 0
 529 305 544.166666667 298.833333333 560.5 294.5 c 128
 576.833333333 290.166666667 599.666666667 287.166666667 629 285.5 c 128
 658.333333333 283.833333333 687.666666667 282 717 280 c 1
 707 208 l 1
 681 210 651.666666667 211.166666667 619 211.5 c 128
 586.333333333 211.833333333 526 209.333333333 438 204 c 1
 426 231 l 1
 473 254 l 1
 462.333333333 259.333333333 452 268.333333333 442 281 c 0
 411.333333333 317 406.666666667 353 428 389 c 0
 446 417 468.333333333 435.333333333 495 444 c 1
 478.333333333 458 458.333333333 485.666666667 435 527 c 1
 482 540 l 1
305 122 m 1
 287.666666667 108.666666667 281 95.3333333333 285 82 c 1
 295.666666667 66.6666666667 322.333333333 56.1666666667 365 50.5 c 128
 407.666666667 44.8333333333 467 42.3333333333 543 43 c 0
 603.666666667 43 658.333333333 46.8333333333 707 54.5 c 128
 755.666666667 62.1666666667 793.333333333 69.6666666667 820 77 c 1
 843 -2 l 1
 813 -7.33333333333 771.666666667 -13.1666666667 719 -19.5 c 128
 666.333333333 -25.8333333333 607.666666667 -29.6666666667 543 -31 c 0
 455.666666667 -31.6666666667 380.833333333 -25.8333333333 318.5 -13.5 c 128
 256.166666667 -1.16666666667 217.666666667 19 203 47 c 0
 183 95 196 134.333333333 242 165 c 1
 305 122 l 1
206 678 m 1
 229.333333333 670.666666667 264.166666667 664 310.5 658 c 128
 356.833333333 652 402.5 649.5 447.5 650.5 c 128
 492.5 651.5 540.833333333 655.666666667 592.5 663 c 128
 644.166666667 670.333333333 699.333333333 682.666666667 758 700 c 0
 770.666666667 703.333333333 783.666666667 707.666666667 797 713 c 1
 822 636 l 1
 802.666666667 630.666666667 784.333333333 626 767 622 c 0
 709.666666667 608 653.833333333 597.166666667 599.5 589.5 c 128
 545.166666667 581.833333333 493.166666667 577.5 443.5 576.5 c 128
 393.833333333 575.5 343 578.166666667 291 584.5 c 128
 239 590.833333333 203.333333333 595 184 597 c 1
 206 678 l 1
373 822 m 1
 400.333333333 812 425.833333333 803.666666667 449.5 797 c 128
 473.166666667 790.333333333 504.333333333 783.833333333 543 777.5 c 128
 581.666666667 771.166666667 613.333333333 767 638 765 c 1
 625 689 l 1
 597 693 564.166666667 698.333333333 526.5 705 c 128
 488.833333333 711.666666667 458.666666667 718.166666667 436 724.5 c 128
 413.333333333 730.833333333 387.666666667 738.333333333 359 747 c 1
 373 822 l 1
EndSplineSet
EndChar

StartChar: u1B009
Encoding: 110601 110601 107
Width: 1000
GlyphClass: 2
Flags: W
LayerCount: 2
Fore
SplineSet
692 56 m 1
 727.333333333 56.6666666667 754.333333333 61.3333333333 773 70 c 0
 779.666666667 72.6666666667 786.666666667 76.6666666667 794 82 c 1
 758 126.666666667 717 165.666666667 671 199 c 1
 670.333333333 197 669.666666667 195.333333333 669 194 c 0
 642.333333333 138 615.166666667 99 587.5 77 c 128
 559.833333333 55 525 43.6666666667 483 43 c 0
 439.666666667 43.6666666667 407.666666667 68 387 116 c 1
 375 180 385.333333333 235.333333333 418 282 c 1
 461.333333333 335.333333333 511.333333333 353 568 335 c 0
 591.333333333 327 614.333333333 318.333333333 637 309 c 1
 651.666666667 349 666.333333333 393 681 441 c 1
 762 407 l 1
 741.333333333 357.666666667 722 313 704 273 c 1
 755.333333333 241.666666667 803.666666667 202.666666667 849 156 c 1
 856.333333333 173.333333333 861 193 863 215 c 0
 867 305 864.333333333 361 855 383 c 1
 845 422.333333333 825.666666667 452 797 472 c 128
 768.333333333 492 702 505.333333333 598 512 c 1
 566 551 l 1
 624 607.666666667 669.666666667 661 703 711 c 1
 750 797 l 1
 824 758 l 1
 786.666666667 699.333333333 738.666666667 635.666666667 680 567 c 1
 798 563.666666667 876 520.666666667 914 438 c 1
 927.333333333 402 934 351.5 934 286.5 c 128
 934 221.5 928.666666667 174.333333333 918 145 c 2
 902 102 l 1
 879.333333333 57.3333333333 852.333333333 27 821 11 c 128
 789.666666667 -5 749 -13 699 -13 c 1
 692 56 l 1
293 741 m 0
 293 752.333333333 292.833333333 764.166666667 292.5 776.5 c 128
 292.166666667 788.833333333 291.333333333 801.333333333 290 814 c 1
 383 811 l 1
 380.333333333 798.333333333 377.166666667 778.833333333 373.5 752.5 c 128
 369.833333333 726.166666667 366.333333333 695.666666667 363 661 c 1
 364.333333333 661 365.5 661.166666667 366.5 661.5 c 128
 367.5 661.833333333 368.333333333 662.333333333 369 663 c 1
 398 627 l 1
 391.333333333 617 384.166666667 606 376.5 594 c 128
 368.833333333 582 361.333333333 569.666666667 354 557 c 1
 353.333333333 548.333333333 352.666666667 540 352 532 c 128
 351.333333333 524 350.666666667 515.666666667 350 507 c 1
 378.666666667 533 405.333333333 558 430 582 c 1
 449 555 l 1
 402.333333333 497.666666667 367 450.666666667 343 414 c 1
 341.666666667 390.666666667 340.666666667 368.166666667 340 346.5 c 128
 339.333333333 324.833333333 339 304.333333333 339 285 c 2
 339 164 l 2
 339 126.666666667 340.333333333 86.3333333333 343 43 c 0
 343.666666667 33.6666666667 344.5 23.6666666667 345.5 13 c 128
 346.5 2.33333333333 347.333333333 -8 348 -18 c 1
 261 -18 l 1
 261.666666667 -10 262.333333333 -0.166666666667 263 11.5 c 128
 263.666666667 23.1666666667 264 33 264 41 c 0
 264 72.3333333333 264.666666667 126.666666667 266 204 c 0
 266 230.666666667 266.333333333 261.666666667 267 297 c 0
 267 302.333333333 267.166666667 308.5 267.5 315.5 c 128
 267.833333333 322.5 268 329.666666667 268 337 c 1
 242.666666667 299 215.333333333 258.833333333 186 216.5 c 128
 156.666666667 174.166666667 129.333333333 135.666666667 104 101 c 1
 56 169 l 1
 74.6666666667 193 98 223.833333333 126 261.5 c 128
 154 299.166666667 181.666666667 337.166666667 209 375.5 c 128
 236.333333333 413.833333333 258.666666667 446.666666667 276 474 c 1
 276.666666667 490 277.666666667 506.166666667 279 522.5 c 128
 280.333333333 538.833333333 281.666666667 555 283 571 c 1
 259 567.666666667 228.666666667 563.5 192 558.5 c 128
 155.333333333 553.5 120.333333333 548.666666667 87 544 c 1
 79 626 l 1
 90.3333333333 625.333333333 101 625.166666667 111 625.5 c 128
 121 625.833333333 132 626.333333333 144 627 c 0
 161.333333333 627.666666667 183 629.666666667 209 633 c 128
 235 636.333333333 261.333333333 640.333333333 288 645 c 1
 289.333333333 669 290.5 689.5 291.5 706.5 c 128
 292.5 723.5 293 735 293 741 c 0
551 263 m 0
 519 273 491.333333333 265 468 239 c 1
 448 205.666666667 441.666666667 177.333333333 449 154 c 1
 451 132.666666667 461 120.666666667 479 118 c 0
 499 113.333333333 519.333333333 119.333333333 540 136 c 0
 559.333333333 151.333333333 581 185.333333333 605 238 c 1
 587.666666667 246.666666667 569.666666667 255 551 263 c 0
EndSplineSet
EndChar

StartChar: u1B00A
Encoding: 110602 110602 108
Width: 1000
GlyphClass: 2
Flags: W
LayerCount: 2
Fore
SplineSet
800 543 m 1
 790 567 765.833333333 581 727.5 585 c 128
 689.166666667 589 637 588.666666667 571 584 c 0
 497.666666667 576 432 566 374 554 c 128
 316 542 268.333333333 531.333333333 231 522 c 0
 211.666666667 517.333333333 193.666666667 512.5 177 507.5 c 128
 160.333333333 502.5 147.333333333 497.666666667 138 493 c 1
 105 579 l 1
 115.666666667 581 130.833333333 583.333333333 150.5 586 c 128
 170.166666667 588.666666667 189.333333333 592.333333333 208 597 c 0
 250 606.333333333 303.666666667 617.166666667 369 629.5 c 128
 434.333333333 641.833333333 502.666666667 651.666666667 574 659 c 0
 663.333333333 665.666666667 737.333333333 662.5 796 649.5 c 128
 854.666666667 636.5 886 602.666666667 890 548 c 1
 885.333333333 496 853 456.666666667 793 430 c 1
 738 465 l 1
 779.333333333 483.666666667 800 509.666666667 800 543 c 1
373 814 m 1
 400.333333333 804 425.833333333 795.666666667 449.5 789 c 128
 473.166666667 782.333333333 504.333333333 775.833333333 543 769.5 c 128
 581.666666667 763.166666667 613.333333333 759 638 757 c 1
 625 681 l 1
 597 685 564.166666667 690.5 526.5 697.5 c 128
 488.833333333 704.5 458.666666667 711 436 717 c 128
 413.333333333 723 387.666666667 730.333333333 359 739 c 1
 373 814 l 1
599 378 m 2
 599.666666667 336.666666667 599.666666667 297.333333333 599 260 c 1
 675.666666667 248 758 223.333333333 846 186 c 1
 820 96 l 1
 743.333333333 136 668.666666667 163.333333333 596 178 c 1
 596 176 596 176 596 174 c 0
 593.333333333 112 584.5 65 569.5 33 c 128
 554.5 1 526 -22.3333333333 484 -37 c 1
 426 -49.6666666667 370 -45 316 -23 c 1
 246 18.3333333333 221.333333333 75.6666666667 242 149 c 1
 272 221.666666667 340.666666667 260.333333333 448 265 c 0
 472 267 496.666666667 267.666666667 522 267 c 1
 522 305.666666667 521.333333333 344.333333333 520 383 c 1
 483.333333333 381 454 378.5 432 375.5 c 128
 410 372.5 382 366 348 356 c 1
 320 442 l 1
 340.666666667 444 368.833333333 447 404.5 451 c 128
 440.166666667 455 468.833333333 458 490.5 460 c 128
 512.166666667 462 548 465 598 469 c 1
 599 378 l 2
461 192 m 0
 383.666666667 190.666666667 335.333333333 169.666666667 316 129 c 1
 302 85.6666666667 315 54.6666666667 355 36 c 1
 387.666666667 24 419.666666667 22.3333333333 451 31 c 0
 471.666666667 34.3333333333 488.333333333 47.6666666667 501 71 c 0
 513 93 519.666666667 132.666666667 521 190 c 1
 501 191.333333333 481 192 461 192 c 0
EndSplineSet
EndChar

StartChar: u1B00B
Encoding: 110603 110603 109
Width: 1000
GlyphClass: 2
Flags: W
LayerCount: 2
Fore
SplineSet
573 590 m 0
 495 582 425.166666667 571.833333333 363.5 559.5 c 128
 301.833333333 547.166666667 251 536.666666667 211 528 c 0
 190.333333333 523.333333333 171.166666667 518.5 153.5 513.5 c 128
 135.833333333 508.5 122.666666667 503.666666667 114 499 c 1
 82 584 l 1
 90.6666666667 586 105.5 588.5 126.5 591.5 c 128
 147.5 594.5 168 598.333333333 188 603 c 0
 232 612.333333333 288.666666667 623.166666667 358 635.5 c 128
 427.333333333 647.833333333 500 657.666666667 576 665 c 0
 670.666666667 671.666666667 750.5 668.166666667 815.5 654.5 c 128
 880.5 640.833333333 915.833333333 610.166666667 921.5 562.5 c 128
 927.166666667 514.833333333 897.333333333 468 832 422 c 1
 757 473 l 1
 801 494.333333333 825.5 518.333333333 830.5 545 c 128
 835.5 571.666666667 811.166666667 587 757.5 591 c 128
 703.833333333 595 642.333333333 594.666666667 573 590 c 0
405 822 m 1
 432.333333333 812 458.5 803.666666667 483.5 797 c 128
 508.5 790.333333333 532.166666667 785.166666667 554.5 781.5 c 128
 576.833333333 777.833333333 600 775 624 773 c 1
 612 697 l 1
 583.333333333 701 558.666666667 705 538 709 c 128
 517.333333333 713 495.166666667 718.166666667 471.5 724.5 c 128
 447.833333333 730.833333333 421.333333333 738.333333333 392 747 c 1
 405 822 l 1
509 387 m 1
 522.333333333 399 538.333333333 409 557 417 c 1
 546.333333333 421.666666667 526 430.666666667 496 444 c 128
 466 457.333333333 434.666666667 471.333333333 402 486 c 1
 445 541 l 1
 469 531.666666667 492 522.333333333 514 513 c 128
 536 503.666666667 558 494 580 484 c 128
 602 474 621.333333333 463.666666667 638 453 c 1
 651 409 l 1
 601 393 559 380.666666667 525 372 c 1
 509 387 l 1
325 379 m 1
 413 368.333333333 479.166666667 357.5 523.5 346.5 c 128
 567.833333333 335.5 607 317.833333333 641 293.5 c 128
 675 269.166666667 695.333333333 233 702 185 c 1
 701.333333333 67.6666666667 630.333333333 -15 489 -63 c 1
 418 -3 l 1
 564.666666667 37 631 97.3333333333 617 178 c 0
 613.666666667 207.333333333 598.666666667 229.166666667 572 243.5 c 128
 545.333333333 257.833333333 514.333333333 269.166666667 479 277.5 c 128
 443.666666667 285.833333333 384.333333333 294 301 302 c 1
 325 379 l 1
EndSplineSet
EndChar

StartChar: u1B00C
Encoding: 110604 110604 110
Width: 1000
GlyphClass: 2
Flags: W
LayerCount: 2
Fore
SplineSet
617 795 m 1
 617 795 617 795 668 752 c 2
 667.333333333 751.333333333 654.333333333 733 629 697 c 1
 629 697 629 697 619 685 c 1
 619 685 l 1
 614.333333333 678.333333333 605.166666667 668.166666667 591.5 654.5 c 128
 577.833333333 640.833333333 564.333333333 630.666666667 551 624 c 0
 547.666666667 622.666666667 543 620 537 616 c 0
 506.333333333 595.333333333 486.5 579.666666667 477.5 569 c 128
 468.5 558.333333333 463 539.666666667 461 513 c 1
 471.666666667 515.666666667 494 519.666666667 528 525 c 0
 546 528.333333333 559.666666667 530.333333333 569 531 c 0
 591.666666667 533 613 534 633 534 c 0
 705.666666667 534.666666667 765.333333333 522.333333333 812 497 c 0
 840 481 862.666666667 456.333333333 880 423 c 128
 897.333333333 389.666666667 906 357 906 325 c 0
 906 268.333333333 880.333333333 218.666666667 829 176 c 0
 782.333333333 136.666666667 714.666666667 111.333333333 626 100 c 1
 622.666666667 96 618.666666667 92.5 614 89.5 c 128
 609.333333333 86.5 604.666666667 83.8333333333 600 81.5 c 128
 593 78 593 78 589 76 c 0
 579.666666667 69.3333333333 573.5 64.8333333333 570.5 62.5 c 128
 567.5 60.1666666667 563.333333333 55.8333333333 558 49.5 c 128
 552.666666667 43.1666666667 549.333333333 36.6666666667 548 30 c 0
 546.666666667 24.6666666667 547.333333333 19.6666666667 550 15 c 128
 552.666666667 10.3333333333 556.666666667 7.33333333333 562 6 c 0
 608.666666667 0 676 5.33333333333 764 22 c 1
 764 3.33333333333 763.666666667 -17 763 -39 c 0
 765 -46.3333333333 762.666666667 -51 756 -53 c 0
 684.666666667 -62.3333333333 630 -66.6666666667 592 -66 c 0
 547.333333333 -64 515.666666667 -54.6666666667 497 -38 c 0
 484.333333333 -25.3333333333 477 -9.33333333333 475 10 c 128
 473 29.3333333333 476 46.6666666667 484 62 c 0
 492 76 503.333333333 87.3333333333 518 96 c 1
 500.666666667 98.6666666667 485 102.666666667 471 108 c 0
 439.666666667 124.666666667 424.166666667 148.166666667 424.5 178.5 c 128
 424.833333333 208.833333333 438.333333333 235.333333333 465 258 c 1
 488.333333333 274 523.333333333 284.333333333 570 289 c 0
 590.666666667 291 609.666666667 291.333333333 627 290 c 1
 627 290 l 1
 649 286.666666667 665 277.333333333 675 262 c 128
 685 246.666666667 688.666666667 230.166666667 686 212.5 c 128
 683.333333333 194.833333333 675.333333333 179.666666667 662 167 c 1
 673.333333333 170.333333333 684.666666667 174 696 178 c 0
 718 188 738.666666667 198.666666667 758 210 c 0
 780.666666667 226.666666667 796.5 243 805.5 259 c 128
 814.5 275 819 294.333333333 819 317 c 0
 819 364.333333333 798 400 756 424 c 0
 710.666666667 450 648.333333333 459 569 451 c 0
 553.666666667 449.666666667 533 446.666666667 507 442 c 2
 507 442 507 442 467 432 c 1
 471.666666667 391.333333333 472.333333333 356.333333333 469 327 c 1
 460.333333333 290.333333333 448.333333333 258 433 230 c 0
 415.666666667 201.333333333 396.666666667 178 376 160 c 0
 361.333333333 146.666666667 334 130.666666667 294 112 c 0
 288 109.333333333 283.333333333 107 280 105 c 0
 279 105 279 105 279 105 c 1
 264.333333333 99 254.166666667 95 248.5 93 c 128
 242.833333333 91 234.666666667 89 224 87 c 128
 213.333333333 85 200.333333333 83.3333333333 185 82 c 0
 157.666666667 79.3333333333 130.666666667 85.6666666667 104 101 c 0
 81.3333333333 114.333333333 70 134.666666667 70 162 c 0
 70 194.666666667 79.3333333333 231.333333333 98 272 c 128
 116.666666667 312.666666667 143.333333333 347.333333333 178 376 c 0
 236 425.333333333 305.333333333 463.666666667 386 491 c 1
 384.666666667 536.333333333 391 574 405 604 c 0
 409.666666667 612 420 621.833333333 436 633.5 c 128
 452 645.166666667 469.833333333 657.5 489.5 670.5 c 128
 509.166666667 683.5 522 692.333333333 528 697 c 0
 535.333333333 703 539.333333333 707 540 709 c 1
 468 705.666666667 387.666666667 699 299 689 c 1
 299 689 299 689 295 777 c 1
 322.333333333 774.333333333 343.333333333 773.333333333 358 774 c 0
 432 774 500 777 562 783 c 0
 583.333333333 784.333333333 601.666666667 788.333333333 617 795 c 1
391 408 m 1
 325 383.333333333 269.666666667 350 225 308 c 0
 172.333333333 260 146 217.333333333 146 180 c 0
 146 171.333333333 150.333333333 163.833333333 159 157.5 c 128
 167.666666667 151.166666667 179 148.666666667 193 150 c 0
 215.666666667 153.333333333 246.666666667 165.666666667 286 187 c 0
 291.333333333 190.333333333 296.333333333 194 301 198 c 0
 343 226.666666667 369.666666667 260 381 298 c 0
 390.333333333 327.333333333 393.666666667 364 391 408 c 1
579 238 m 0
 576 238 576 238 572 238 c 0
 543.333333333 235.333333333 524.333333333 231 515 225 c 0
 495.666666667 212.333333333 486.166666667 198.166666667 486.5 182.5 c 128
 486.833333333 166.833333333 498.333333333 155.333333333 521 148 c 0
 536.333333333 144.666666667 557.333333333 147 584 155 c 0
 592 157.666666667 599.333333333 163.333333333 606 172 c 128
 612.666666667 180.666666667 617 189.833333333 619 199.5 c 128
 621 209.166666667 618.666666667 218 612 226 c 128
 605.333333333 234 594.333333333 238 579 238 c 0
EndSplineSet
EndChar

StartChar: u1B00D
Encoding: 110605 110605 111
Width: 1000
GlyphClass: 2
Flags: W
LayerCount: 2
Fore
SplineSet
302 801 m 1
 316.666666667 799.666666667 329.333333333 799 340 799 c 0
 420 801.666666667 484.333333333 803.333333333 533 804 c 0
 566.333333333 806 592 807 610 807 c 1
 656 770 l 1
 632 680.666666667 602.666666667 611.333333333 568 562 c 0
 556 546 544.333333333 530.333333333 533 515 c 1
 540.333333333 503.666666667 546.333333333 491 551 477 c 0
 557 441.666666667 558.666666667 410.333333333 556 383 c 1
 570.666666667 401 593 417.166666667 623 431.5 c 128
 653 445.833333333 689 451.333333333 731 448 c 128
 773 444.666666667 810.333333333 429.666666667 843 403 c 0
 881.666666667 368.333333333 899 320 895 258 c 0
 891 192.666666667 866.166666667 139.166666667 820.5 97.5 c 128
 774.833333333 55.8333333333 723.666666667 30 667 20 c 1
 618 79 l 1
 655.333333333 80.3333333333 696.166666667 97.5 740.5 130.5 c 128
 784.833333333 163.5 809.666666667 204.666666667 815 254 c 0
 819.666666667 292 810.5 321.5 787.5 342.5 c 128
 764.5 363.5 732.833333333 372 692.5 368 c 128
 652.166666667 364 618.333333333 349.5 591 324.5 c 128
 563.666666667 299.5 544.666666667 277.333333333 534 258 c 1
 472 297 l 1
 480 325 483.333333333 353.666666667 482 383 c 0
 480.666666667 410.333333333 477.666666667 432.666666667 473 450 c 1
 462 439 462 439 451 428 c 0
 407.666666667 388 360.833333333 355.666666667 310.5 331 c 128
 260.166666667 306.333333333 216.666666667 301.666666667 180 317 c 0
 159.333333333 325.666666667 143.333333333 340 132 360 c 0
 110.666666667 410 120.833333333 459.5 162.5 508.5 c 128
 204.166666667 557.5 261 584.666666667 333 590 c 0
 393 592 441.333333333 583.666666667 478 565 c 1
 485.333333333 575.666666667 492 586 498 596 c 0
 518 630.666666667 537 675.666666667 555 731 c 1
 526 731 l 2
 484.666666667 729.666666667 423 725.666666667 341 719 c 0
 329 718.333333333 317 717.333333333 305 716 c 1
 302 801 l 1
401 76 m 1
 427.666666667 63.3333333333 452.5 53 475.5 45 c 128
 498.5 37 529.166666667 28.3333333333 567.5 19 c 128
 605.833333333 9.66666666667 637 3 661 -1 c 1
 642 -75 l 1
 614 -69.6666666667 581.5 -62.1666666667 544.5 -52.5 c 128
 507.5 -42.8333333333 478.166666667 -34 456.5 -26 c 128
 434.833333333 -18 410 -8.66666666667 382 2 c 1
 401 76 l 1
318 520 m 1
 257.333333333 506.666666667 218.333333333 481.333333333 201 444 c 128
 183.666666667 406.666666667 189.333333333 385 218 379 c 1
 240.666666667 379 267.333333333 387.5 298 404.5 c 128
 328.666666667 421.5 365.333333333 449.666666667 408 489 c 0
 415.333333333 496.333333333 422.666666667 503 430 509 c 1
 403.333333333 523 366 526.666666667 318 520 c 1
EndSplineSet
EndChar

StartChar: u1B00E
Encoding: 110606 110606 112
Width: 1000
GlyphClass: 2
Flags: W
LayerCount: 2
Fore
SplineSet
804 524 m 1
 794 548 769.833333333 562 731.5 566 c 128
 693.166666667 570 641 569.666666667 575 565 c 0
 545 561.666666667 516.666666667 558 490 554 c 1
 484 520 482.333333333 494 485 476 c 1
 489.666666667 466 500.5 461.166666667 517.5 461.5 c 128
 534.5 461.833333333 551.166666667 462.5 567.5 463.5 c 128
 583.833333333 464.5 601.666666667 467 621 471 c 0
 630.333333333 472.333333333 640.666666667 474.333333333 652 477 c 1
 664 399 l 1
 621 393 l 2
 602.333333333 391 579 389 551 387 c 0
 522.333333333 385 493.333333333 388 464 396 c 0
 434.666666667 405.333333333 416.666666667 426 410 458 c 1
 408 484.666666667 408.333333333 512.333333333 411 541 c 1
 399.666666667 539 388.666666667 537 378 535 c 0
 320 522.333333333 272.333333333 511.333333333 235 502 c 0
 215.666666667 497.333333333 197.666666667 492.666666667 181 488 c 128
 164.333333333 483.333333333 151.333333333 478.333333333 142 473 c 1
 109 559 l 1
 119.666666667 561 134.833333333 563.5 154.5 566.5 c 128
 174.166666667 569.5 193.333333333 573.333333333 212 578 c 0
 254 587.333333333 307.666666667 598 373 610 c 0
 388.333333333 613.333333333 404.333333333 616.333333333 421 619 c 1
 427 649 432.666666667 676 438 700 c 1
 531 692 l 1
 522.333333333 672 515 651.666666667 509 631 c 1
 531.666666667 633.666666667 554.666666667 636.333333333 578 639 c 0
 667.333333333 645.666666667 741.333333333 642.666666667 800 630 c 128
 858.666666667 617.333333333 890 583.666666667 894 529 c 0
 895.333333333 474.333333333 868 431 812 399 c 1
 734 446 l 1
 780.666666667 464.666666667 804 490.666666667 804 524 c 1
379 815 m 1
 407.666666667 809 434 803.666666667 458 799 c 128
 482 794.333333333 513.166666667 791.333333333 551.5 790 c 128
 589.833333333 788.666666667 621.333333333 788 646 788 c 1
 643 710 l 1
 615 711.333333333 581.666666667 713.333333333 543 716 c 128
 504.333333333 718.666666667 473.666666667 721.833333333 451 725.5 c 128
 428.333333333 729.166666667 402 734 372 740 c 1
 379 815 l 1
498 327 m 1
 561.333333333 307.666666667 595.333333333 281 600 247 c 0
 602.666666667 223 586.333333333 194.333333333 551 161 c 1
 523 126.333333333 507.333333333 96.3333333333 504 71 c 1
 497.333333333 46.3333333333 509.833333333 28.3333333333 541.5 17 c 128
 573.166666667 5.66666666667 617.5 3 674.5 9 c 128
 731.5 15 772.666666667 21.6666666667 798 29 c 1
 803 -46 l 1
 758.333333333 -59.3333333333 707.5 -66.6666666667 650.5 -68 c 128
 593.5 -69.3333333333 545.833333333 -63 507.5 -49 c 128
 469.166666667 -35 443.333333333 -12 430 20 c 1
 417.333333333 85.3333333333 443.333333333 151.666666667 508 219 c 0
 532 241 465.666666667 267 309 297 c 1
 324 371 l 1
 498 327 l 1
EndSplineSet
EndChar

StartChar: u1B00F
Encoding: 110607 110607 113
Width: 1000
GlyphClass: 2
Flags: W
LayerCount: 2
Fore
SplineSet
339 793 m 1
 375.666666667 794.333333333 411.833333333 796 447.5 798 c 128
 483.166666667 800 517.666666667 802.666666667 551 806 c 128
 584.333333333 809.333333333 620.333333333 813 659 817 c 1
 706 766 l 1
 685.333333333 744.666666667 664.666666667 718.666666667 644 688 c 1
 658 686 671.666666667 683.333333333 685 680 c 0
 715.666666667 674 738.666666667 664 754 650 c 128
 769.333333333 636 780.333333333 616 787 590 c 128
 793.666666667 564 797.333333333 535.666666667 798 505 c 0
 797.333333333 474.333333333 792.666666667 440.166666667 784 402.5 c 128
 775.333333333 364.833333333 758 337.5 732 320.5 c 128
 706 303.5 677.666666667 294.333333333 647 293 c 0
 627.666666667 291.666666667 609.666666667 290.666666667 593 290 c 1
 603 365 l 1
 633 365 l 2
 650.333333333 365.666666667 667.5 370.833333333 684.5 380.5 c 128
 701.5 390.166666667 712.833333333 410.666666667 718.5 442 c 128
 724.166666667 473.333333333 726 497.666666667 724 515 c 0
 723.333333333 537.666666667 718.833333333 559.666666667 710.5 581 c 128
 702.166666667 602.333333333 684.333333333 614.666666667 657 618 c 0
 634.333333333 620.666666667 606.333333333 619.333333333 573 614 c 1
 530 657 l 1
 552.666666667 681 572.333333333 708.333333333 589 739 c 1
 534.333333333 731.666666667 491.5 726.833333333 460.5 724.5 c 128
 429.5 722.166666667 390.333333333 717.666666667 343 711 c 1
 339 793 l 1
515 599 m 1
 499 561 483.666666667 527.333333333 469 498 c 1
 512.333333333 472.666666667 551.333333333 442 586 406 c 1
 530 337 l 1
 504 371 472 400.666666667 434 426 c 1
 411.333333333 383.333333333 387.666666667 353 363 335 c 256
 339 317.666666667 308.333333333 308.666666667 271 308 c 0
 232.333333333 308.666666667 201.666666667 328.666666667 179 368 c 1
 158.333333333 412.666666667 163.333333333 456.333333333 194 499 c 1
 234 543 284.333333333 559.666666667 345 549 c 0
 363.666666667 543 381.666666667 537 399 531 c 1
 411.666666667 561 424.333333333 595 437 633 c 1
 515 599 l 1
63 214 m 1
 157 220 248.666666667 226.666666667 338 234 c 128
 427.333333333 241.333333333 511 249 589 257 c 0
 666.333333333 265 737.333333333 274 802 284 c 128
 866.666666667 294 905.666666667 300.333333333 919 303 c 1
 934 229 l 1
 645.333333333 189.666666667 485.333333333 139 454 77 c 1
 454 57.6666666667 477.666666667 45.3333333333 525 40 c 128
 572.333333333 34.6666666667 641 27.3333333333 731 18 c 1
 715 -58 l 1
 605 -48.6666666667 521.333333333 -37 464 -23 c 128
 406.666666667 -9 376 22.3333333333 372 71 c 0
 371.333333333 110.333333333 401.666666667 145 463 175 c 1
 383.666666667 167.666666667 322.333333333 162 279 158 c 128
 235.666666667 154 165.333333333 147 68 137 c 1
 63 214 l 1
327 477 m 0
 303 482.333333333 279.666666667 477.666666667 257 463 c 1
 236.333333333 445.666666667 231 424 241 398 c 0
 247 388 256.666666667 381.666666667 270 379 c 0
 286 377 302 382.333333333 318 395 c 0
 332 405.666666667 348.333333333 427.666666667 367 461 c 1
 354.333333333 466.333333333 341 471.666666667 327 477 c 0
EndSplineSet
EndChar

StartChar: u1B010
Encoding: 110608 110608 114
Width: 1000
GlyphClass: 2
Flags: W
LayerCount: 2
Fore
SplineSet
681 765 m 0
 725 765 758.5 751.833333333 781.5 725.5 c 128
 804.5 699.166666667 816 663.333333333 816 618 c 0
 816.666666667 594.666666667 810.666666667 575.166666667 798 559.5 c 128
 785.333333333 543.833333333 769.666666667 533 751 527 c 128
 732.333333333 521 711.833333333 516.666666667 689.5 514 c 128
 667.166666667 511.333333333 646.666666667 512 628 516 c 1
 622 495.333333333 616.666666667 480 612 470 c 0
 608.666666667 463.333333333 605.333333333 457 602 451 c 1
 658.666666667 433 693.333333333 401.333333333 706 356 c 0
 706 354.666666667 707 350.333333333 709 343 c 1
 713.666666667 347.666666667 718.666666667 352.333333333 724 357 c 0
 728.666666667 362.333333333 737.833333333 371.5 751.5 384.5 c 128
 765.166666667 397.5 774.666666667 406 780 410 c 0
 818 436 850 440.666666667 876 424 c 1
 899.333333333 404.666666667 910.666666667 384.666666667 910 364 c 0
 910 327.333333333 896.333333333 298 869 276 c 0
 833 247.333333333 805.333333333 227.666666667 786 217 c 1
 808.666666667 200.333333333 831.666666667 179.666666667 855 155 c 0
 887.666666667 122.333333333 913.333333333 90.6666666667 932 60 c 1
 932 60 932 60 879 8 c 1
 860.333333333 44 836.333333333 77.6666666667 807 109 c 0
 780.333333333 137.666666667 754.333333333 161 729 179 c 1
 709 43 669.666666667 -30.3333333333 611 -41 c 0
 597 -41.6666666667 579.166666667 -37.5 557.5 -28.5 c 128
 535.833333333 -19.5 517.333333333 -7.66666666667 502 7 c 1
 502 7 502 7 531 70 c 1
 545.666666667 53.3333333333 561 42 577 36 c 0
 607.666666667 20.6666666667 631.333333333 41 648 97 c 0
 660.666666667 140.333333333 666.333333333 178.666666667 665 212 c 1
 644.333333333 189.333333333 620.666666667 164 594 136 c 0
 576.666666667 118 546.666666667 89.5 504 50.5 c 128
 461.333333333 11.5 434.666666667 -13.3333333333 424 -24 c 1
 424 -24 424 -24 387 29 c 1
 399 39.6666666667 418.666666667 56.5 446 79.5 c 128
 473.333333333 102.5 491.666666667 118.333333333 501 127 c 0
 520.333333333 144.333333333 529 158.333333333 527 169 c 0
 525.666666667 174.333333333 523.333333333 178.166666667 520 180.5 c 128
 516.666666667 182.833333333 511.166666667 183.833333333 503.5 183.5 c 128
 495.833333333 183.166666667 487.666666667 182.166666667 479 180.5 c 128
 470.333333333 178.833333333 459 176.333333333 445 173 c 0
 441.666666667 171.666666667 433.333333333 169.5 420 166.5 c 128
 406.666666667 163.5 397.333333333 161.333333333 392 160 c 1
 392 160 392 160 381 234 c 1
 399 236 413.666666667 239.333333333 425 244 c 0
 459.666666667 258.666666667 485.333333333 275.333333333 502 294 c 0
 511.333333333 304 518.333333333 315 523 327 c 1
 522.333333333 333.666666667 517.333333333 337.666666667 508 339 c 0
 496.666666667 340.333333333 453 332.666666667 377 316 c 1
 377 316 377 316 381 376 c 1
 389 378.666666667 396.833333333 381 404.5 383 c 128
 412.166666667 385 419 386.666666667 425 388 c 128
 431 389.333333333 437.833333333 390.5 445.5 391.5 c 128
 453.166666667 392.5 459.333333333 393.333333333 464 394 c 128
 468.666666667 394.666666667 475 395.166666667 483 395.5 c 128
 491 395.833333333 496.333333333 396.166666667 499 396.5 c 128
 501.666666667 396.833333333 507.166666667 397.166666667 515.5 397.5 c 128
 523.833333333 397.833333333 528.666666667 398 530 398 c 0
 554.666666667 394 572.166666667 385.666666667 582.5 373 c 128
 592.833333333 360.333333333 596.333333333 347 593 333 c 128
 589.666666667 319 582 305 570 291 c 0
 564.666666667 285 561.666666667 281.166666667 561 279.5 c 128
 560.333333333 277.833333333 558.5 275.666666667 555.5 273 c 128
 552.5 270.333333333 550.5 268.666666667 549.5 268 c 128
 548.5 267.333333333 545.5 265.166666667 540.5 261.5 c 128
 535.5 257.833333333 530.333333333 253.666666667 525 249 c 1
 547 249 563.166666667 246.5 573.5 241.5 c 128
 583.833333333 236.5 590.333333333 227 593 213 c 1
 616.333333333 240.333333333 637 265 655 287 c 1
 653.666666667 291.666666667 652.333333333 297.333333333 651 304 c 0
 643 340 625.666666667 365.833333333 599 381.5 c 128
 572.333333333 397.166666667 536.333333333 407 491 411 c 1
 491 415.666666667 491.833333333 425.166666667 493.5 439.5 c 128
 495.166666667 453.833333333 496.333333333 463.666666667 497 469 c 1
 505 468.333333333 512.666666667 467.666666667 520 467 c 1
 536 483.666666667 547.666666667 502.333333333 555 523 c 0
 556.333333333 527 558.333333333 536.666666667 561 552 c 0
 561 554.666666667 561.166666667 561.666666667 561.5 573 c 128
 561.833333333 584.333333333 562 592.666666667 562 598 c 1
 563.333333333 597.333333333 567 596.666666667 573 596 c 0
 587.666666667 594 599.166666667 592.5 607.5 591.5 c 128
 615.833333333 590.5 627.666666667 589.333333333 643 588 c 128
 658.333333333 586.666666667 670.666666667 586.5 680 587.5 c 128
 689.333333333 588.5 699.166666667 590 709.5 592 c 128
 719.833333333 594 727.166666667 597.666666667 731.5 603 c 128
 735.833333333 608.333333333 737.666666667 615.333333333 737 624 c 0
 735.666666667 644 728.5 659.666666667 715.5 671 c 128
 702.5 682.333333333 685.666666667 688 665 688 c 0
 630.333333333 688 585.333333333 666.333333333 530 623 c 0
 465.333333333 572.333333333 415 522.333333333 379 473 c 0
 371 462.333333333 361.666666667 448.333333333 351 431 c 128
 340.333333333 413.666666667 333 402 329 396 c 1
 329 396 329 396 329 395.5 c 128
 329 395 329 395 329 395 c 1
 347 355.666666667 356.833333333 309.333333333 358.5 256 c 128
 360.166666667 202.666666667 355 155.333333333 343 114 c 0
 332.333333333 73.3333333333 317.5 43.8333333333 298.5 25.5 c 128
 279.5 7.16666666667 249.666666667 -4.66666666667 209 -10 c 0
 161.666666667 -15.3333333333 124.666666667 -11 98 3 c 0
 86.6666666667 9.66666666667 78.3333333333 17.8333333333 73 27.5 c 128
 67.6666666667 37.1666666667 64 47.6666666667 62 59 c 0
 58.6666666667 79.6666666667 61 99.3333333333 69 118 c 1
 69 118 l 1
 74.3333333333 130 83 145.333333333 95 164 c 0
 97 166.666666667 98.6666666667 169.333333333 100 172 c 0
 157.333333333 259.333333333 206.666666667 333 248 393 c 1
 233.333333333 410.333333333 222 421 214 425 c 0
 211.333333333 426.333333333 207.666666667 427 203 427 c 1
 201.666666667 423.666666667 200 420.666666667 198 418 c 1
 173.333333333 430.666666667 151.666666667 440 133 446 c 1
 135.666666667 451.333333333 142.666666667 465.166666667 154 487.5 c 128
 165.333333333 509.833333333 174.333333333 527 181 539 c 0
 189.666666667 556.333333333 201.333333333 579.166666667 216 607.5 c 128
 230.666666667 635.833333333 240.333333333 654.333333333 245 663 c 1
 227 661.666666667 210.666666667 660.333333333 196 659 c 0
 180.666666667 657.666666667 165.5 656.166666667 150.5 654.5 c 128
 135.5 652.833333333 127.666666667 652 127 652 c 0
 106.333333333 650.666666667 88.3333333333 648.333333333 73 645 c 1
 73 645 73 645 83 730 c 1
 103 726.666666667 123 725 143 725 c 0
 176.333333333 725 230.333333333 728.666666667 305 736 c 0
 318.333333333 738.666666667 330.666666667 742.666666667 342 748 c 1
 342 748 342 748 368 706 c 1
 355.333333333 690 346.666666667 678.333333333 342 671 c 0
 333.333333333 657.666666667 322.333333333 639.666666667 309 617 c 256
 295.666666667 593.666666667 277.666666667 560.333333333 255 517 c 0
 253 513.666666667 248.666666667 506.666666667 242 496 c 1
 246.666666667 494.666666667 250.666666667 492.666666667 254 490 c 0
 267.333333333 479.333333333 279.666666667 467.666666667 291 455 c 1
 321.666666667 497.666666667 353 540 385 582 c 0
 397.666666667 598 413.333333333 614.666666667 432 632 c 128
 450.666666667 649.333333333 466.5 662.5 479.5 671.5 c 128
 492.5 680.5 511 693.333333333 535 710 c 0
 589.666666667 746.666666667 638.333333333 765 681 765 c 0
833 370 m 2
 813 369.333333333 788.333333333 352.333333333 759 319 c 0
 756.333333333 315 744.666666667 302 724 280 c 1
 726.666666667 269.333333333 728.333333333 259 729 249 c 1
 757.666666667 265.666666667 785.333333333 286.333333333 812 311 c 0
 851.333333333 348.333333333 859 368 835 370 c 0
 833 370 833 370 833 370 c 2
282 323 m 1
 272.666666667 309 258 286.333333333 238 255 c 128
 218 223.666666667 200.166666667 195 184.5 169 c 128
 168.833333333 143 154.666666667 118 142 94 c 0
 138 86 136.333333333 79.3333333333 137 74 c 0
 137 63.3333333333 144.666666667 56.3333333333 160 53 c 1
 176.666666667 46.3333333333 195.333333333 47 216 55 c 0
 231.333333333 59 245.333333333 69 258 85 c 0
 262 90.3333333333 265.333333333 96.1666666667 268 102.5 c 128
 270.666666667 108.833333333 273.166666667 116 275.5 124 c 128
 277.833333333 132 279.5 138.5 280.5 143.5 c 128
 281.5 148.5 282.833333333 156.166666667 284.5 166.5 c 128
 286.166666667 176.833333333 287.333333333 183.666666667 288 187 c 0
 297.333333333 240.333333333 295.333333333 285.666666667 282 323 c 1
EndSplineSet
EndChar

StartChar: u1B011
Encoding: 110609 110609 115
Width: 1000
GlyphClass: 2
Flags: W
LayerCount: 2
Fore
SplineSet
344 830 m 1
 418.666666667 796 500.666666667 769 590 749 c 1
 590 749 590 749 583 676 c 1
 495 698 412.666666667 725 336 757 c 1
 336 757 336 757 344 830 c 1
651 616 m 1
 651 616 651 616 700 561 c 1
 678.666666667 545.666666667 660.666666667 530.666666667 646 516 c 0
 561.333333333 440.666666667 499 382 459 340 c 0
 444.333333333 324.666666667 429.333333333 308.333333333 414 291 c 1
 414 291 414 291 476 290 c 1
 475.333333333 285.333333333 474.666666667 276.333333333 474 263 c 0
 474 256.333333333 474.333333333 243.666666667 475 225 c 0
 476.333333333 207 477 197 477 195 c 0
 477.666666667 174.333333333 478.333333333 162.333333333 479 159 c 1
 492.333333333 179 507.333333333 197.5 524 214.5 c 128
 540.666666667 231.5 554.666666667 243 566 249 c 0
 601.333333333 268.333333333 638.666666667 278 678 278 c 0
 728 278 773.666666667 262.666666667 815 232 c 0
 857.666666667 202 892.333333333 161.666666667 919 111 c 1
 919 111 919 111 886 102 c 2
 876 99.3333333333 862 94.6666666667 844 88 c 0
 840 86.6666666667 831.5 84.1666666667 818.5 80.5 c 128
 805.5 76.8333333333 795.666666667 73.6666666667 789 71 c 0
 781.666666667 68.3333333333 770.333333333 63.6666666667 755 57 c 128
 739.666666667 50.3333333333 729.666666667 46 725 44 c 0
 701.666666667 36 674 20.3333333333 642 -3 c 1
 642 -3 642 -3 609 63 c 1
 619 70.3333333333 634.166666667 79.3333333333 654.5 90 c 128
 674.833333333 100.666666667 693 109 709 115 c 0
 720.333333333 118.333333333 736.166666667 123.166666667 756.5 129.5 c 128
 776.833333333 135.833333333 790.333333333 140 797 142 c 1
 778.333333333 164 759.333333333 180.5 740 191.5 c 128
 720.666666667 202.5 698 208 672 208 c 0
 637.333333333 208 609.333333333 199 588 181 c 0
 567.333333333 163.666666667 549.666666667 146.166666667 535 128.5 c 128
 520.333333333 110.833333333 509.166666667 93.6666666667 501.5 77 c 128
 493.833333333 60.3333333333 488.5 46.6666666667 485.5 36 c 128
 482.5 25.3333333333 479.666666667 13 477 -1 c 0
 476.333333333 -8.33333333333 475.333333333 -20.6666666667 474 -38 c 2
 474 -38 474 -38 474 -39.5 c 128
 474 -41 474 -41 474 -42 c 1
 474 -42 474 -42 389 -42 c 1
 391 -35.3333333333 393.333333333 -27 396 -17 c 0
 400.666666667 5 403 36.6666666667 403 78 c 0
 403.666666667 106.666666667 403 135 401 163 c 0
 400.333333333 169.666666667 399.333333333 181.333333333 398 198 c 128
 396.666666667 214.666666667 396 225 396 229 c 0
 394.666666667 235.666666667 393.666666667 248.333333333 393 267 c 1
 385 258.333333333 376.666666667 249.333333333 368 240 c 0
 342.666666667 214.666666667 309.333333333 179.333333333 268 134 c 0
 225.333333333 90 191.666666667 52 167 20 c 1
 167 20 167 20 89 72 c 1
 105 84 121.333333333 99 138 117 c 0
 165.333333333 143 302.666666667 279.333333333 550 526 c 1
 544 524.666666667 441.333333333 516.333333333 242 501 c 0
 235.333333333 501 208.333333333 498 161 492 c 1
 161 492 161 492 153 582 c 1
 186.333333333 579.333333333 214.666666667 578.333333333 238 579 c 0
 267.333333333 579 326.333333333 582 415 588 c 0
 503 594.666666667 566 600.333333333 604 605 c 0
 624.666666667 607.666666667 640.333333333 611.333333333 651 616 c 1
EndSplineSet
EndChar

StartChar: u1B012
Encoding: 110610 110610 116
Width: 1000
GlyphClass: 2
Flags: W
LayerCount: 2
Fore
SplineSet
242 801 m 0
 313.333333333 745 376 701.666666667 430 671 c 1
 427.333333333 665 423.166666667 654.333333333 417.5 639 c 128
 411.833333333 623.666666667 407.666666667 611.666666667 405 603 c 1
 383 607.666666667 355.333333333 602.666666667 322 588 c 0
 314.666666667 584 310.166666667 577.833333333 308.5 569.5 c 128
 306.833333333 561.166666667 306.833333333 554.166666667 308.5 548.5 c 128
 310.166666667 542.833333333 312.666666667 535 316 525 c 0
 319.333333333 511.666666667 327.666666667 495.666666667 341 477 c 128
 354.333333333 458.333333333 362.666666667 446 366 440 c 0
 374 410 382.333333333 357.333333333 391 282 c 128
 399.666666667 206.666666667 411.333333333 149.666666667 426 111 c 1
 431.333333333 86.3333333333 453.666666667 66 493 50 c 1
 570.333333333 40 652.333333333 45.3333333333 739 66 c 1
 743.666666667 62 747.333333333 51.6666666667 750 35 c 128
 752.666666667 18.3333333333 754.666666667 8 756 4 c 0
 767.333333333 -20.6666666667 758.666666667 -32 730 -30 c 1
 686 -35.3333333333 654.166666667 -38.8333333333 634.5 -40.5 c 128
 614.833333333 -42.1666666667 587.333333333 -43 552 -43 c 128
 516.666666667 -43 485 -40 457 -34 c 0
 426.333333333 -26.6666666667 401.5 -9.66666666667 382.5 17 c 128
 363.5 43.6666666667 349.666666667 74.3333333333 341 109 c 1
 329 144.333333333 319.333333333 195.166666667 312 261.5 c 128
 304.666666667 327.833333333 298.666666667 371 294 391 c 0
 294 395 293.666666667 398.833333333 293 402.5 c 128
 292.333333333 406.166666667 291.5 409.333333333 290.5 412 c 128
 289.5 414.666666667 288.166666667 418 286.5 422 c 128
 284.833333333 426 283.333333333 429.166666667 282 431.5 c 128
 280.666666667 433.833333333 278.666666667 437.166666667 276 441.5 c 128
 273.333333333 445.833333333 271.666666667 448.833333333 271 450.5 c 128
 270.333333333 452.166666667 268.333333333 455 265 459 c 128
 261.666666667 463 259.666666667 465.666666667 259 467 c 0
 257 471.666666667 254.166666667 478.333333333 250.5 487 c 128
 246.833333333 495.666666667 243.833333333 502.5 241.5 507.5 c 128
 239.166666667 512.5 236.666666667 519.333333333 234 528 c 128
 231.333333333 536.666666667 229.666666667 544 229 550 c 128
 228.333333333 556 228 562.833333333 228 570.5 c 128
 228 578.166666667 229 585.333333333 231 592 c 0
 235.666666667 603.333333333 243.5 613.5 254.5 622.5 c 128
 265.5 631.5 274.333333333 637.666666667 281 641 c 128
 287.666666667 644.333333333 299 649.666666667 315 657 c 1
 308.333333333 662.333333333 292.666666667 673.166666667 268 689.5 c 128
 243.333333333 705.833333333 224 718.666666667 210 728 c 1
 214 736 219 747.333333333 225 762 c 128
 231 776.666666667 235.333333333 786.666666667 238 792 c 0
 238 792.666666667 238.5 794.166666667 239.5 796.5 c 128
 240.5 798.833333333 241.333333333 800.333333333 242 801 c 0
EndSplineSet
EndChar

StartChar: u1B013
Encoding: 110611 110611 117
Width: 1000
GlyphClass: 2
Flags: W
LayerCount: 2
Fore
SplineSet
802 534 m 1
 798.666666667 556.666666667 776.666666667 569.333333333 736 572 c 128
 695.333333333 574.666666667 642.333333333 572 577 564 c 0
 533.666666667 556.666666667 492.333333333 549.333333333 453 542 c 1
 450.333333333 532 447.333333333 521.333333333 444 510 c 0
 432.666666667 461.333333333 426.333333333 430.333333333 425 417 c 0
 423.666666667 407 422.333333333 396 421 384 c 1
 437 387.333333333 454.666666667 390.333333333 474 393 c 0
 500 396.333333333 524.666666667 398.666666667 548 400 c 0
 558.666666667 400.666666667 569.666666667 400.666666667 581 400 c 1
 587 417.333333333 594 440 602 468 c 1
 684 446 l 1
 675.333333333 426.666666667 667.333333333 409 660 393 c 1
 738 381.666666667 797.666666667 357.333333333 839 320 c 256
 880.333333333 282 901 238.333333333 901 189 c 0
 899 137 878.166666667 90.5 838.5 49.5 c 128
 798.833333333 8.5 725.666666667 -29 619 -63 c 1
 571 -3 l 1
 653.666666667 15.6666666667 716.833333333 41.6666666667 760.5 75 c 128
 804.166666667 108.333333333 826.333333333 144.333333333 827 183 c 1
 831.666666667 219.666666667 815.666666667 252.5 779 281.5 c 128
 742.333333333 310.5 695 328 637 334 c 0
 636 334 636 334 634 334 c 0
 627.333333333 320 621.666666667 308.333333333 617 299 c 0
 597.666666667 254.333333333 573 214.666666667 543 180 c 0
 517 151.333333333 487.666666667 125.333333333 455 102 c 1
 458 90 l 2
 464.666666667 70 471.666666667 52.6666666667 479 38 c 1
 408 17 l 1
 404.666666667 28.3333333333 401.833333333 35.5 399.5 38.5 c 128
 397.166666667 41.5 396 44.6666666667 396 48 c 2
 392 63 l 1
 368 49 l 1
 346 39 321.833333333 30.1666666667 295.5 22.5 c 128
 269.166666667 14.8333333333 243.333333333 11 218 11 c 0
 187.333333333 11 161.666666667 19.3333333333 141 36 c 128
 120.333333333 52.6666666667 109.666666667 78 109 112 c 0
 109.666666667 147.333333333 120.166666667 180.333333333 140.5 211 c 128
 160.833333333 241.666666667 187.666666667 270 221 296 c 128
 254.333333333 322 291 343 331 359 c 0
 339 362.333333333 346.666666667 365 354 367 c 1
 356.666666667 414.333333333 363.333333333 461.666666667 374 509 c 0
 375.333333333 515.666666667 377 522 379 528 c 1
 325.666666667 517.333333333 282.333333333 507.666666667 249 499 c 0
 230.333333333 493.666666667 213.666666667 488.5 199 483.5 c 128
 184.333333333 478.5 170.666666667 473.666666667 158 469 c 1
 124 549 l 1
 136 550.333333333 151.166666667 552.833333333 169.5 556.5 c 128
 187.833333333 560.166666667 206 564 224 568 c 0
 265.333333333 578 317.666666667 589 381 601 c 0
 390 603 390 603 399 605 c 0
 399.666666667 607.666666667 400.666666667 610.333333333 402 613 c 0
 410 637.666666667 415.333333333 654 418 662 c 0
 425.333333333 676.666666667 430 690.666666667 432 704 c 1
 511 685 l 1
 507 677.666666667 503.333333333 670.666666667 500 664 c 128
 496.666666667 657.333333333 493.666666667 651.666666667 491 647 c 0
 488.333333333 641.666666667 484.333333333 632.333333333 479 619 c 1
 511.666666667 625 545 630 579 634 c 0
 671.666666667 646.666666667 744.333333333 646 797 632 c 128
 849.666666667 618 876.333333333 587.666666667 877 541 c 0
 876.333333333 499 849 465.666666667 795 441 c 1
 729 488 l 1
 768.333333333 498.666666667 792.666666667 514 802 534 c 1
379 815 m 1
 407.666666667 809 434 803.666666667 458 799 c 128
 482 794.333333333 513.166666667 791.333333333 551.5 790 c 128
 589.833333333 788.666666667 621.333333333 788 646 788 c 1
 643 710 l 1
 615 711.333333333 581.666666667 713.333333333 543 716 c 128
 504.333333333 718.666666667 473.666666667 721.833333333 451 725.5 c 128
 428.333333333 729.166666667 402 734 372 740 c 1
 379 815 l 1
547 337 m 0
 517 336.333333333 490.333333333 334.333333333 467 331 c 0
 451 327.666666667 434.333333333 323.666666667 417 319 c 1
 417 305 417.333333333 293.666666667 418 285 c 0
 419.333333333 259.666666667 422.333333333 236 427 214 c 0
 429.666666667 200 432.333333333 187.666666667 435 177 c 1
 454.333333333 193 472.666666667 211.333333333 490 232 c 0
 512.666666667 260 533 291.666666667 551 327 c 0
 554 333 554 333 556 337 c 1
 552 337 552 337 547 337 c 0
329 288 m 0
 287.666666667 268.666666667 253.666666667 243.5 227 212.5 c 128
 200.333333333 181.5 186.333333333 151.666666667 185 123 c 0
 185 110.333333333 188.666666667 100.666666667 196 94 c 128
 203.333333333 87.3333333333 215 84 231 84 c 0
 247.666666667 84 266.166666667 87.3333333333 286.5 94 c 128
 306.833333333 100.666666667 328.333333333 109.333333333 351 120 c 0
 363 126 363 126 373 131 c 1
 369 150.333333333 365.333333333 170.333333333 362 191 c 0
 357.333333333 218.333333333 354.333333333 248 353 280 c 0
 353 286 352.666666667 291.666666667 352 297 c 1
 344 294.333333333 336.333333333 291.333333333 329 288 c 0
EndSplineSet
EndChar

StartChar: u1B014
Encoding: 110612 110612 118
Width: 1000
GlyphClass: 2
Flags: W
LayerCount: 2
Fore
SplineSet
267 830 m 1
 267 830 267 830 360 827 c 1
 354 795.666666667 347.666666667 745.333333333 341 676 c 1
 341 676 341 676 346 678 c 1
 374 644 l 1
 359.333333333 620.666666667 345 597.666666667 331 575 c 1
 331 575 331 575 327 533 c 1
 373.666666667 586.333333333 413 629.333333333 445 662 c 0
 497.666666667 714 544.666666667 740 586 740 c 0
 606.666666667 740 622.5 737.333333333 633.5 732 c 128
 644.5 726.666666667 656.666666667 717.333333333 670 704 c 0
 690 684 696 655.333333333 688 618 c 0
 685.333333333 594 670.666666667 569.333333333 644 544 c 128
 617.333333333 518.666666667 597 503.666666667 583 499 c 1
 597.666666667 501.666666667 613.666666667 504.166666667 631 506.5 c 128
 648.333333333 508.833333333 659.333333333 510.333333333 664 511 c 0
 764.666666667 527.666666667 832.333333333 538.666666667 867 544 c 1
 867 544 867 544 858 478 c 1
 848 477.333333333 829.333333333 475.333333333 802 472 c 0
 784 468 770.833333333 464.166666667 762.5 460.5 c 128
 754.166666667 456.833333333 743 448.666666667 729 436 c 0
 695.666666667 406.666666667 677.333333333 381 674 359 c 0
 670 330.333333333 674 308.833333333 686 294.5 c 128
 698 280.166666667 721.333333333 271.666666667 756 269 c 0
 774.666666667 267.666666667 806 269 850 273 c 1
 849.333333333 271 848 265.333333333 846 256 c 0
 844 238.666666667 841 224 837 212 c 1
 831 211.333333333 813.333333333 209.666666667 784 207 c 128
 754.666666667 204.333333333 733.666666667 202 721 200 c 0
 671 192 634.333333333 178.666666667 611 160 c 0
 597.666666667 149.333333333 589 139.666666667 585 131 c 128
 581 122.333333333 579 111 579 97 c 0
 579 75 584.5 59.6666666667 595.5 51 c 128
 606.5 42.3333333333 627.333333333 34.6666666667 658 28 c 0
 716.666666667 16 792.666666667 22 886 46 c 1
 886 46 886 46 869 -21 c 1
 759 -45.6666666667 671.666666667 -48.3333333333 607 -29 c 128
 542.333333333 -9.66666666667 510 28.6666666667 510 86 c 0
 510 110.666666667 512.833333333 131.333333333 518.5 148 c 128
 524.166666667 164.666666667 535.666666667 180 553 194 c 0
 574.333333333 212.666666667 605.333333333 228 646 240 c 1
 605.333333333 263.333333333 588 299 594 347 c 0
 598 374.333333333 607.666666667 397.666666667 623 417 c 0
 635 431.666666667 649 444 665 454 c 1
 586.333333333 440 519.666666667 426.666666667 465 414 c 1
 465 414 465 414 467 480 c 1
 470 480 l 0
 472 480 474.333333333 480.5 477 481.5 c 128
 479.666666667 482.5 491.333333333 489.166666667 512 501.5 c 128
 532.666666667 513.833333333 554.166666667 530.333333333 576.5 551 c 128
 598.833333333 571.666666667 610.666666667 589.666666667 612 605 c 0
 612 627.666666667 609 643.666666667 603 653 c 128
 597 662.333333333 583.666666667 667 563 667 c 0
 557 667 550.333333333 665.333333333 543 662 c 128
 535.666666667 658.666666667 528 653.333333333 520 646 c 128
 512 638.666666667 504.833333333 631.833333333 498.5 625.5 c 128
 492.166666667 619.166666667 483.833333333 610.166666667 473.5 598.5 c 128
 463.166666667 586.833333333 455 577.666666667 449 571 c 0
 428.333333333 543.666666667 385 494 319 422 c 1
 317 380 316 339.666666667 316 301 c 0
 316 200.333333333 317.333333333 120.333333333 320 61 c 0
 321.333333333 37 323 16.6666666667 325 0 c 1
 325 0 325 0 240 0 c 1
 242 27.3333333333 243 47.3333333333 243 60 c 0
 244.333333333 202 245.333333333 287.333333333 246 316 c 2
 246 316 246 316 246 332 c 2
 246.666666667 341.333333333 247 348.666666667 247 354 c 1
 191 266.666666667 138.666666667 188.333333333 90 119 c 1
 90 119 90 119 40 188 c 1
 135.333333333 312 207.333333333 413 256 491 c 1
 256.666666667 506.333333333 258.666666667 538 262 586 c 1
 256.666666667 585.333333333 193 577 71 561 c 1
 71 561 71 561 63 645 c 1
 86.3333333333 643.666666667 108 644 128 646 c 0
 170.666666667 648.666666667 216.666666667 654 266 662 c 1
 269.333333333 714 271 745 271 755 c 0
 271 791 269.666666667 816 267 830 c 1
EndSplineSet
EndChar

StartChar: u1B015
Encoding: 110613 110613 119
Width: 1000
GlyphClass: 2
Flags: W
LayerCount: 2
Fore
SplineSet
384 820 m 1
 383.333333333 810 382.333333333 798.833333333 381 786.5 c 128
 379.666666667 774.166666667 378.333333333 762 377 750 c 0
 376.333333333 737.333333333 375.666666667 721.833333333 375 703.5 c 128
 374.333333333 685.166666667 373.666666667 664.666666667 373 642 c 1
 418.333333333 646.666666667 468.333333333 658.666666667 523 678 c 1
 525 600 l 1
 465.666666667 584 414 573.666666667 370 569 c 1
 369.333333333 545.666666667 369 465.333333333 369 328 c 0
 369 138.666666667 366.666666667 25.6666666667 362 -11 c 1
 282 -12 l 1
 286.666666667 16 290.666666667 128.333333333 294 325 c 0
 294 336 294 336 294 345 c 1
 269.333333333 301 244.666666667 258 220 216 c 0
 192 168.666666667 171 129.666666667 157 99 c 1
 87 138 l 1
 98.3333333333 160 118.166666667 194.166666667 146.5 240.5 c 128
 174.833333333 286.833333333 204 335.666666667 234 387 c 0
 261.333333333 435 281.333333333 471.666666667 294 497 c 1
 294.666666667 530.333333333 295 551.666666667 295 561 c 1
 253.666666667 559 227 558 215 558 c 0
 165.666666667 559.333333333 132.666666667 561 116 563 c 1
 114 639 l 1
 142.666666667 635.666666667 175.666666667 633 213 631 c 0
 226.333333333 631 254 632 296 634 c 1
 296 660.666666667 296.166666667 684 296.5 704 c 128
 296.833333333 724 297 739 297 749 c 0
 297 759.666666667 296.5 771.666666667 295.5 785 c 128
 294.5 798.333333333 293.666666667 810 293 820 c 1
 384 820 l 1
599 717 m 1
 641 786 l 1
 673 773.333333333 705.666666667 759 739 743 c 128
 772.333333333 727 804.666666667 710.166666667 836 692.5 c 128
 867.333333333 674.833333333 897.333333333 656.333333333 926 637 c 1
 885 569 l 1
 857.666666667 587.666666667 828.333333333 606.166666667 797 624.5 c 128
 765.666666667 642.833333333 733.833333333 659.833333333 701.5 675.5 c 128
 669.166666667 691.166666667 635 705 599 717 c 1
669 348 m 1
 661 332.666666667 655.166666667 318 651.5 304 c 128
 647.833333333 290 644.666666667 276 642 262 c 0
 636.666666667 238.666666667 639.5 215.666666667 650.5 193 c 128
 661.5 170.333333333 689 150.666666667 733 134 c 0
 763 122.666666667 791.5 114.5 818.5 109.5 c 128
 845.5 104.5 877.333333333 101.333333333 914 100 c 1
 901 17 l 1
 873 19.6666666667 844 24 814 30 c 128
 784 36 751.333333333 45 716 57 c 0
 658.666666667 77.6666666667 617.5 105.833333333 592.5 141.5 c 128
 567.5 177.166666667 558.333333333 218 565 264 c 0
 568.333333333 280 572.666666667 297 578 315 c 128
 583.333333333 333 590 353 598 375 c 1
 669 348 l 1
EndSplineSet
EndChar

StartChar: u1B016
Encoding: 110614 110614 120
Width: 1000
GlyphClass: 2
Flags: W
LayerCount: 2
Fore
SplineSet
772 784 m 1
 772 784 772 784 803 738 c 2
 801.666666667 737.333333333 794 730.333333333 780 717 c 0
 777.333333333 715.666666667 753 694.333333333 707 653 c 0
 695 642.333333333 680.833333333 631.166666667 664.5 619.5 c 128
 648.166666667 607.833333333 639.333333333 601.333333333 638 600 c 1
 681.333333333 601.333333333 721.333333333 603.333333333 758 606 c 0
 775.333333333 608 790 611.666666667 802 617 c 1
 802 617 802 617 824 562 c 1
 794.666666667 549.333333333 740.666666667 515.333333333 662 460 c 1
 674 462.666666667 694.333333333 464 723 464 c 0
 765 463.333333333 799.333333333 449 826 421 c 0
 838.666666667 408.333333333 847.5 391.5 852.5 370.5 c 128
 857.5 349.5 858.333333333 328 855 306 c 0
 849.666666667 259.333333333 826 220.333333333 784 189 c 0
 742.666666667 159.666666667 697 144.666666667 647 144 c 1
 642.333333333 138 638.666666667 133.333333333 636 130 c 0
 635.333333333 128.666666667 634 127.333333333 632 126 c 0
 626.666666667 120 622.5 115.333333333 619.5 112 c 128
 616.5 108.666666667 613 103.5 609 96.5 c 128
 605 89.5 602.166666667 83.6666666667 600.5 79 c 128
 598.833333333 74.3333333333 597.833333333 68.6666666667 597.5 62 c 128
 597.166666667 55.3333333333 598.666666667 49 602 43 c 0
 607.333333333 38.3333333333 617.666666667 34 633 30 c 0
 642.333333333 28 654 26.6666666667 668 26 c 0
 740.666666667 23.3333333333 815.333333333 28.3333333333 892 41 c 1
 890.666666667 34.3333333333 888.666666667 23.1666666667 886 7.5 c 128
 883.333333333 -8.16666666667 881.333333333 -19.3333333333 880 -26 c 1
 838.666666667 -31.3333333333 795 -34.6666666667 749 -36 c 0
 693 -37.3333333333 653.333333333 -36.6666666667 630 -34 c 0
 601.333333333 -30 578.666666667 -23 562 -13 c 0
 546 -4.33333333333 535.666666667 10 531 30 c 1
 526.333333333 77.3333333333 544.333333333 118 585 152 c 1
 573 155.333333333 559.666666667 161.666666667 545 171 c 0
 532.333333333 181 522.833333333 193.5 516.5 208.5 c 128
 510.166666667 223.5 508 238.333333333 510 253 c 0
 513.333333333 281.666666667 527.333333333 305.666666667 552 325 c 0
 573.333333333 341.666666667 597 350 623 350 c 0
 649.666666667 350 671.666666667 340.333333333 689 321 c 0
 706.333333333 303.666666667 713.666666667 284 711 262 c 0
 709 242.666666667 700.666666667 225 686 209 c 1
 688.666666667 210.333333333 694.833333333 212.833333333 704.5 216.5 c 128
 714.166666667 220.166666667 721 223 725 225 c 128
 729 227 734.666666667 230 742 234 c 128
 749.333333333 238 756 242.333333333 762 247 c 0
 786 266.333333333 798.666666667 289.666666667 800 317 c 0
 800 341 791.666666667 362 775 380 c 0
 757.666666667 399.333333333 733 409 701 409 c 0
 681 409 666.166666667 408.833333333 656.5 408.5 c 128
 646.833333333 408.166666667 634.666666667 406.5 620 403.5 c 128
 605.333333333 400.5 592.666666667 395.666666667 582 389 c 0
 547.333333333 369.666666667 499.666666667 332.333333333 439 277 c 1
 439 277 439 277 404 330 c 1
 478.666666667 392.666666667 575 465.333333333 693 548 c 1
 620.333333333 546.666666667 561.333333333 543 516 537 c 1
 516 537 516 537 521 600 c 1
 527 600 527 600 545 600 c 1
 583.666666667 624.666666667 632.333333333 661.666666667 691 711 c 1
 688.333333333 711 674.333333333 710 649 708 c 0
 641.666666667 708 627.333333333 707.333333333 606 706 c 0
 574 706 574 706 570 706 c 0
 568.666666667 705.333333333 559.333333333 704.833333333 542 704.5 c 128
 524.666666667 704.166666667 512 703.666666667 504 703 c 0
 502.666666667 703 499.333333333 702.833333333 494 702.5 c 128
 488.666666667 702.166666667 485.333333333 702 484 702 c 2
 484 702 484 702 482 770 c 1
 513.333333333 766.666666667 541.666666667 765.666666667 567 767 c 0
 610.333333333 767.666666667 643.666666667 768.666666667 667 770 c 0
 691 771.333333333 717 774.333333333 745 779 c 0
 755.666666667 780.333333333 764.666666667 782 772 784 c 1
380 776 m 1
 380 776 380 776 427 714 c 1
 416.333333333 702.666666667 406.333333333 690 397 676 c 0
 395.666666667 673.333333333 391 666.833333333 383 656.5 c 128
 375 646.166666667 365.333333333 632.833333333 354 616.5 c 128
 342.666666667 600.166666667 331 583.333333333 319 566 c 1
 361.666666667 501.333333333 389 451.333333333 401 416 c 1
 401 416 401 416 333 385 c 1
 319 408.333333333 306 425 294 435 c 128
 282 445 269 448 255 444 c 0
 245 442 238 437 234 429 c 128
 230 421 225 408 219 390 c 0
 204.333333333 334.666666667 196.333333333 284 195 238 c 0
 191 130.666666667 194.666666667 37.6666666667 206 -41 c 1
 206 -41 206 -41 135 -39 c 1
 127.666666667 46.3333333333 126 138 130 236 c 0
 132.666666667 326.666666667 143.666666667 395.333333333 163 442 c 0
 186.333333333 496 218.666666667 520 260 514 c 0
 264.666666667 513.333333333 269.666666667 512.333333333 275 511 c 1
 263.666666667 530.333333333 251 550.666666667 237 572 c 1
 243.666666667 580.666666667 258 599.5 280 628.5 c 128
 302 657.5 317 678 325 690 c 1
 322.333333333 689.333333333 300 686.666666667 258 682 c 0
 217.333333333 678 192 675.333333333 182 674 c 0
 178.666666667 673.333333333 174 672.666666667 168 672 c 256
 162 671.333333333 156.666666667 670.666666667 152 670 c 128
 147.333333333 669.333333333 143.333333333 668.666666667 140 668 c 1
 140 668 140 668 138 753 c 1
 151.333333333 750.333333333 166 749.333333333 182 750 c 0
 196.666666667 750 224.666666667 751.666666667 266 755 c 0
 308.666666667 758.333333333 337 761.666666667 351 765 c 0
 362.333333333 767 372 770.666666667 380 776 c 1
613 296 m 0
 599.666666667 296 587.666666667 292.666666667 577 286 c 0
 567.666666667 278.666666667 562.333333333 268 561 254 c 0
 560.333333333 247.333333333 560.833333333 241.5 562.5 236.5 c 128
 564.166666667 231.5 568.666666667 227.166666667 576 223.5 c 128
 583.333333333 219.833333333 589 217.333333333 593 216 c 128
 597 214.666666667 605.666666667 211.666666667 619 207 c 1
 633 217.666666667 642 226.166666667 646 232.5 c 128
 650 238.833333333 652.666666667 247.333333333 654 258 c 0
 655.333333333 271.333333333 652.666666667 280.666666667 646 286 c 0
 638 292.666666667 627 296 613 296 c 0
EndSplineSet
EndChar

StartChar: u1B017
Encoding: 110615 110615 121
Width: 1000
GlyphClass: 2
Flags: W
LayerCount: 2
Fore
SplineSet
257 794 m 1
 257 794 257 794 325 763 c 1
 303.666666667 713 273.666666667 652.666666667 235 582 c 0
 217 548.666666667 199.666666667 518 183 490 c 1
 194.333333333 456 203.666666667 425 211 397 c 0
 221 355 227.666666667 311 231 265 c 0
 232.333333333 251 231 218.666666667 227 168 c 1
 234.333333333 188 252 228.666666667 280 290 c 1
 285.333333333 286.666666667 294.166666667 281.333333333 306.5 274 c 128
 318.833333333 266.666666667 328 261.333333333 334 258 c 1
 324.666666667 233.333333333 316.333333333 211.666666667 309 193 c 0
 289 140.333333333 275 99.6666666667 267 71 c 0
 265.666666667 67.6666666667 263.666666667 61.8333333333 261 53.5 c 128
 258.333333333 45.1666666667 256.333333333 38 255 32 c 128
 253.666666667 26 253 20 253 14 c 0
 251 2.66666666667 250.666666667 -8 252 -18 c 1
 242 -20.6666666667 227.166666667 -24.1666666667 207.5 -28.5 c 128
 187.833333333 -32.8333333333 176.666666667 -35.3333333333 174 -36 c 1
 172.666666667 -31.3333333333 171.333333333 -25.6666666667 170 -19 c 0
 166 5.66666666667 164 35.6666666667 164 71 c 0
 163.333333333 90.3333333333 164 113.666666667 166 141 c 0
 169.333333333 199 167.666666667 254.666666667 161 308 c 0
 156.333333333 347.333333333 148.666666667 383.333333333 138 416 c 1
 136.666666667 414.666666667 134.666666667 412 132 408 c 1
 132 408 132 408 63 439 c 1
 94.3333333333 481.666666667 129.666666667 538.166666667 169 608.5 c 128
 208.333333333 678.833333333 237.666666667 740.666666667 257 794 c 1
673 783 m 1
 670 732 l 2
 670 729.333333333 669.666666667 722 669 710 c 2
 669 710 669 710 669 677 c 1
 678 678 l 2
 687.333333333 679.333333333 704.666666667 681 730 683 c 128
 755.333333333 685 774.333333333 686.666666667 787 688 c 2
 787 688 787 688 858 695 c 1
 857 621 l 1
 805.666666667 619 745.333333333 614.333333333 676 607 c 2
 676 607 676 607 668 606 c 1
 668 602.666666667 670 540.333333333 674 419 c 1
 678 416.333333333 682.333333333 413 687 409 c 0
 703 388.333333333 711 365.333333333 711 340 c 0
 711 279.333333333 695.666666667 235.333333333 665 208 c 0
 649 197.333333333 623.666666667 186 589 174 c 0
 588 174 588 174 587 174 c 0
 528.333333333 142.666666667 500.666666667 113 504 85 c 0
 506 69 518.666666667 54 542 40 c 0
 557.333333333 32.6666666667 571.333333333 29.3333333333 584 30 c 0
 599 30 599 30 622 30 c 128
 645 30 645 30 654.5 30 c 128
 660.833333333 30 668.5 30.1666666667 677.5 30.5 c 128
 686.5 30.8333333333 694.5 31.5 701.5 32.5 c 128
 708.5 33.5 715.666666667 35.3333333333 723 38 c 0
 735 40.6666666667 747 46.5 759 55.5 c 128
 771 64.5 779.333333333 73 784 81 c 0
 790 92.3333333333 786.333333333 119 773 161 c 0
 761 201.666666667 748.666666667 235.666666667 736 263 c 1
 736 263 736 263 812 252 c 1
 828 221.333333333 842.333333333 183.666666667 855 139 c 0
 865.666666667 100.333333333 863.333333333 67.3333333333 848 40 c 0
 834.666666667 18 807.333333333 0.666666666667 766 -12 c 0
 722 -23.3333333333 654.666666667 -29 564 -29 c 1
 542.666666667 -26.3333333333 525 -21.6666666667 511 -15 c 1
 511 -15 511 -15 510 -15 c 0
 459.333333333 6.33333333333 434 37.6666666667 434 79 c 0
 434 115 456.666666667 149.666666667 502 183 c 1
 490.666666667 187.666666667 480 194 470 202 c 0
 444 222 431 252.666666667 431 294 c 128
 431 335.333333333 446 371 476 401 c 0
 509.333333333 435 548 452 592 452 c 0
 592.666666667 452 596.333333333 451.666666667 603 451 c 1
 603 466.333333333 602.666666667 485.166666667 602 507.5 c 128
 601.333333333 529.833333333 600.833333333 550 600.5 568 c 128
 600.166666667 586 600 596.333333333 600 599 c 1
 549.333333333 593 469.666666667 579.333333333 361 558 c 1
 361 558 361 558 361 635 c 1
 376.333333333 637 416.333333333 642.666666667 481 652 c 0
 504.333333333 655.333333333 527.333333333 658.833333333 550 662.5 c 128
 572.666666667 666.166666667 589.333333333 668.666666667 600 670 c 1
 600 692.666666667 599.666666667 711.333333333 599 726 c 0
 598.333333333 745.333333333 597 761.666666667 595 775 c 1
 595 775 595 775 673 783 c 1
841 505 m 1
 860.333333333 479 882 443.333333333 906 398 c 0
 930.666666667 353.333333333 948.666666667 315.333333333 960 284 c 1
 960 284 960 284 893 249 c 1
 881 283 863.333333333 322 840 366 c 0
 816.666666667 410.666666667 795.666666667 446 777 472 c 1
 777 472 777 472 841 505 c 1
588 396 m 0
 563.333333333 396 541.666666667 386.666666667 523 368 c 0
 505.666666667 349.333333333 497 325.666666667 497 297 c 0
 497 277 503.833333333 260.833333333 517.5 248.5 c 128
 531.166666667 236.166666667 547.333333333 230 566 230 c 0
 574 230 581.333333333 231 588 233 c 0
 593.333333333 235.666666667 599.333333333 238.333333333 606 241 c 0
 613.333333333 245.666666667 619.666666667 252.333333333 625 261 c 0
 638.333333333 281.666666667 645 306.666666667 645 336 c 0
 645 354 639.666666667 368.333333333 629 379 c 0
 618.333333333 390.333333333 604.666666667 396 588 396 c 0
EndSplineSet
EndChar

StartChar: u1B018
Encoding: 110616 110616 122
Width: 1000
GlyphClass: 2
Flags: W
LayerCount: 2
Fore
SplineSet
256 797 m 1
 264.666666667 795.666666667 276.833333333 794 292.5 792 c 128
 308.166666667 790 317.333333333 789 320 789 c 0
 321.333333333 788.333333333 323.333333333 788 326 788 c 128
 328.666666667 788 330.666666667 787.5 332 786.5 c 128
 333.333333333 785.5 333.333333333 784 332 782 c 0
 328 756.666666667 323 719.666666667 317 671 c 128
 311 622.333333333 307.666666667 594 307 586 c 0
 305.666666667 583.333333333 305.666666667 581.833333333 307 581.5 c 128
 308.333333333 581.166666667 310.5 581.166666667 313.5 581.5 c 128
 316.5 581.833333333 318.333333333 582 319 582 c 0
 323.666666667 582 333.333333333 583 348 585 c 0
 362.666666667 586.333333333 372 587 376 587 c 0
 380.666666667 587 390 586.333333333 404 585 c 0
 422.666666667 582.333333333 439.166666667 574.166666667 453.5 560.5 c 128
 467.833333333 546.833333333 478.333333333 531 485 513 c 0
 493 491 497.666666667 464.833333333 499 434.5 c 128
 500.333333333 404.166666667 500 377.333333333 498 354 c 0
 495.333333333 262 488.333333333 183 477 117 c 0
 466.333333333 65 454 26.6666666667 440 2 c 0
 426.666666667 -23.3333333333 406 -39 378 -45 c 0
 351.333333333 -50.3333333333 313.333333333 -46 264 -32 c 1
 260.666666667 -10.6666666667 256.333333333 20.3333333333 251 61 c 1
 281.666666667 47.6666666667 307.666666667 39.6666666667 329 37 c 0
 349 33.6666666667 365.333333333 37.6666666667 378 49 c 0
 380 51 381.833333333 53 383.5 55 c 128
 385.166666667 57 386.833333333 59.3333333333 388.5 62 c 128
 390.166666667 64.6666666667 391.666666667 66.8333333333 393 68.5 c 128
 394.333333333 70.1666666667 395.5 72.6666666667 396.5 76 c 128
 397.5 79.3333333333 398.333333333 81.6666666667 399 83 c 128
 399.666666667 84.3333333333 400.5 87 401.5 91 c 128
 402.5 95 403.166666667 97.5 403.5 98.5 c 128
 403.833333333 99.5 404.666666667 102.333333333 406 107 c 128
 407.333333333 111.666666667 408 114.333333333 408 115 c 0
 422.666666667 173.666666667 431.333333333 253.333333333 434 354 c 0
 434 358.666666667 434.166666667 367.833333333 434.5 381.5 c 128
 434.833333333 395.166666667 434.833333333 405.333333333 434.5 412 c 128
 434.166666667 418.666666667 433.333333333 427.333333333 432 438 c 128
 430.666666667 448.666666667 428.666666667 458.666666667 426 468 c 0
 423.333333333 478.666666667 417.5 487.833333333 408.5 495.5 c 128
 399.5 503.166666667 389.333333333 507.333333333 378 508 c 0
 362 508 352.666666667 508.166666667 350 508.5 c 128
 347.333333333 508.833333333 337.833333333 507.833333333 321.5 505.5 c 128
 305.166666667 503.166666667 295.666666667 502 293 502 c 0
 276.333333333 409.333333333 260.666666667 335.666666667 246 281 c 0
 230 216.333333333 203 142 165 58 c 1
 163 59.3333333333 153.666666667 64.5 137 73.5 c 128
 120.333333333 82.5 107.333333333 89.3333333333 98 94 c 1
 116 130 116 130 124 146 c 0
 146.666666667 191.333333333 168.666666667 254.666666667 190 336 c 0
 204 385.333333333 216 438 226 494 c 1
 224 494 217.333333333 493.166666667 206 491.5 c 128
 194.666666667 489.833333333 186 488.333333333 180 487 c 0
 161.333333333 485 124.666666667 478.333333333 70 467 c 1
 69.3333333333 477.666666667 68.3333333333 493.5 67 514.5 c 128
 65.6666666667 535.5 64.6666666667 551.333333333 64 562 c 1
 78.6666666667 560.666666667 99 560.666666667 125 562 c 0
 127.666666667 562 165.333333333 566 238 574 c 1
 250 661.333333333 256 734.666666667 256 794 c 2
 256 794 256 794 256 797 c 1
746 592 m 0
 752 592 758.333333333 591.333333333 765 590 c 0
 799.666666667 583.333333333 830.333333333 560.666666667 857 522 c 256
 883.666666667 483.333333333 901.333333333 439 910 389 c 0
 918 334.333333333 915 285.666666667 901 243 c 0
 886.333333333 201.666666667 869.666666667 173.5 851 158.5 c 128
 832.333333333 143.5 801.333333333 132 758 124 c 1
 754.666666667 152.666666667 748.333333333 175.666666667 739 193 c 1
 771 198.333333333 796.666666667 210.166666667 816 228.5 c 128
 835.333333333 246.833333333 846 271 848 301 c 0
 850 335 847.666666667 368.666666667 841 402 c 0
 831.666666667 438.666666667 817.333333333 470 798 496 c 0
 791.333333333 503.333333333 786 509.166666667 782 513.5 c 128
 778 517.833333333 772.5 522 765.5 526 c 128
 758.5 530 751 532 743 532 c 0
 720.333333333 530.666666667 699.333333333 520.333333333 680 501 c 0
 666 487 654.666666667 464.333333333 646 433 c 0
 640.666666667 403.666666667 638.666666667 381.333333333 640 366 c 0
 646.666666667 328 658.333333333 291 675 255 c 1
 658.333333333 248.333333333 640.333333333 240.333333333 621 231 c 1
 595 284.333333333 575 345.666666667 561 415 c 0
 558.333333333 425 553.833333333 446.666666667 547.5 480 c 128
 541.166666667 513.333333333 535.333333333 538.666666667 530 556 c 1
 534.666666667 557.333333333 542.666666667 559.666666667 554 563 c 128
 565.333333333 566.333333333 574 569 580 571 c 2
 580 571 580 571 584.5 572.5 c 128
 587.5 573.5 589.666666667 573.833333333 591 573.5 c 128
 592.333333333 573.166666667 593.333333333 572.333333333 594 571 c 0
 594.666666667 536.333333333 598 507 604 483 c 1
 606.666666667 490.333333333 611.333333333 499.333333333 618 510 c 0
 630.666666667 534.666666667 647.333333333 553.666666667 668 567 c 0
 696.666666667 582.333333333 721.666666667 590.666666667 743 592 c 0
 744 592 744 592 746 592 c 0
EndSplineSet
EndChar

StartChar: u1B019
Encoding: 110617 110617 123
Width: 1000
GlyphClass: 2
Flags: W
LayerCount: 2
Fore
SplineSet
295 805 m 1
 341 793.666666667 423.333333333 781.666666667 542 769 c 128
 660.666666667 756.333333333 745.333333333 747 796 741 c 1
 772 665 l 1
 728 671.666666667 646.166666667 682 526.5 696 c 128
 406.833333333 710 323.666666667 718.666666667 277 722 c 1
 295 805 l 1
426 236 m 0
 365.333333333 196 309.666666667 188.333333333 259 213 c 1
 195.666666667 259 185.333333333 328.333333333 228 421 c 1
 278.666666667 503 352.333333333 545 449 547 c 128
 545.666666667 549 619.833333333 534.5 671.5 503.5 c 128
 723.166666667 472.5 756.833333333 433.333333333 772.5 386 c 128
 788.166666667 338.666666667 789.833333333 288.833333333 777.5 236.5 c 128
 765.166666667 184.166666667 732.333333333 133.333333333 679 84 c 128
 625.666666667 34.6666666667 546.666666667 -8.66666666667 442 -46 c 1
 383 24 l 1
 437 32.6666666667 495.833333333 55.8333333333 559.5 93.5 c 128
 623.166666667 131.166666667 664.666666667 174.166666667 684 222.5 c 128
 703.333333333 270.833333333 709.333333333 314.166666667 702 352.5 c 128
 694.666666667 390.833333333 676 419.666666667 646 439 c 0
 632 447.666666667 616.666666667 454.666666667 600 460 c 1
 538 346 480 271.333333333 426 236 c 0
317 416 m 1
 277.666666667 362.666666667 269 319.333333333 291 286 c 1
 336.333333333 243.333333333 410 307.333333333 512 478 c 1
 424 483.333333333 359 462.666666667 317 416 c 1
EndSplineSet
EndChar

StartChar: u1B01A
Encoding: 110618 110618 124
Width: 1000
GlyphClass: 2
Flags: W
LayerCount: 2
Fore
SplineSet
559 745 m 1
 495 662.333333333 449.333333333 595.666666667 422 545 c 1
 481.333333333 557.666666667 529.333333333 561 566 555 c 0
 625.333333333 543.666666667 673.5 521.666666667 710.5 489 c 128
 747.5 456.333333333 768.5 411.5 773.5 354.5 c 128
 778.5 297.5 771.166666667 248.333333333 751.5 207 c 128
 731.833333333 165.666666667 705 126.166666667 671 88.5 c 128
 637 50.8333333333 581.666666667 5.66666666667 505 -47 c 1
 425 0 l 1
 475 26.6666666667 522.833333333 61.5 568.5 104.5 c 128
 614.166666667 147.5 646.166666667 186.5 664.5 221.5 c 128
 682.833333333 256.5 692.166666667 290.666666667 692.5 324 c 128
 692.833333333 357.333333333 680.666666667 388.666666667 656 418 c 128
 631.333333333 447.333333333 595 465 547 471 c 1
 473.666666667 475.666666667 419 465.333333333 383 440 c 1
 360.333333333 427.333333333 343 415 331 403 c 128
 319 391 303.666666667 370.666666667 285 342 c 1
 219 413 l 1
 237.666666667 431.666666667 257 456.333333333 277 487 c 1
 299.666666667 515 327 552.666666667 359 600 c 1
 415.666666667 694 450.666666667 755.333333333 464 784 c 1
 559 745 l 1
EndSplineSet
EndChar

StartChar: u1B01B
Encoding: 110619 110619 125
Width: 1000
GlyphClass: 2
Flags: W
LayerCount: 2
Fore
SplineSet
451 795 m 1
 451 795 451 795 540 795 c 1
 538 785 537 773 537 759 c 2
 537 759 537 759 536 701 c 1
 538 701 540.666666667 701.166666667 544 701.5 c 128
 547.333333333 701.833333333 549.666666667 702.333333333 551 703 c 0
 611.666666667 709 680 720.666666667 756 738 c 1
 756 738 756 738 756 664 c 1
 664.666666667 648 596 637 550 631 c 0
 548 631 542.666666667 630.666666667 534 630 c 1
 533.333333333 597.333333333 533.666666667 576.666666667 535 568 c 0
 535.666666667 560 536.333333333 553.333333333 537 548 c 0
 538.333333333 542 540.833333333 536.833333333 544.5 532.5 c 128
 548.166666667 528.166666667 555.333333333 523.833333333 566 519.5 c 128
 576.666666667 515.166666667 584.666666667 513 590 513 c 0
 592.666666667 513.666666667 599.333333333 513.333333333 610 512 c 128
 620.666666667 510.666666667 628 510.666666667 632 512 c 0
 636.666666667 512.666666667 644.333333333 514 655 516 c 128
 665.666666667 518 674.333333333 520 681 522 c 0
 696.333333333 526 706 528.333333333 710 529 c 0
 718.666666667 531.666666667 728 535 738 539 c 1
 738 539 738 539 739 537 c 1
 740 537 l 2
 740 537 740 537 752 504 c 1
 765 475 l 1
 764 475 l 1
 764 475 764 475 764 474 c 0
 702.666666667 459.333333333 629 441 543 419 c 0
 486.333333333 404.333333333 435.333333333 389.666666667 390 375 c 0
 388.666666667 374.333333333 387 373.666666667 385 373 c 128
 383 372.333333333 381.666666667 372 381 372 c 0
 376.333333333 322.666666667 366.333333333 277.333333333 351 236 c 1
 356.333333333 238 362 240 368 242 c 0
 378.666666667 246 389 249.333333333 399 252 c 0
 430.333333333 264.666666667 467.333333333 273.333333333 510 278 c 0
 525.333333333 279.333333333 540.666666667 278 556 274 c 128
 571.333333333 270 583 265.833333333 591 261.5 c 128
 599 257.166666667 609.333333333 251 622 243 c 0
 634.666666667 234.333333333 644.666666667 221.833333333 652 205.5 c 128
 659.333333333 189.166666667 662.333333333 173 661 157 c 0
 661 155.666666667 660.666666667 151.5 660 144.5 c 128
 659.333333333 137.5 659 133.166666667 659 131.5 c 128
 659 129.833333333 658.666666667 126.166666667 658 120.5 c 128
 657.333333333 114.833333333 656.833333333 110.833333333 656.5 108.5 c 128
 656 105 656 105 655 98 c 128
 654.333333333 93.3333333333 653.5 89.5 652.5 86.5 c 128
 651.5 83.5 650.333333333 80.1666666667 649 76.5 c 128
 647.666666667 72.8333333333 646.5 69.3333333333 645.5 66 c 128
 644.5 62.6666666667 643 59.3333333333 641 56 c 0
 623.666666667 25.3333333333 602 -1.33333333333 576 -24 c 0
 559.333333333 -39.3333333333 537.666666667 -50 511 -56 c 0
 486.333333333 -62.6666666667 456 -66 420 -66 c 0
 390 -66 351.333333333 -63.3333333333 304 -58 c 1
 304 -58 304 -58 296 16 c 1
 344 8.66666666667 384.666666667 5 418 5 c 0
 430 5 447.666666667 6.66666666667 471 10 c 0
 491 14.6666666667 506.333333333 20.3333333333 517 27 c 0
 518.333333333 29 521.5 32.1666666667 526.5 36.5 c 128
 531.5 40.8333333333 534.666666667 43.5 536 44.5 c 128
 537.333333333 45.5 540 48.1666666667 544 52.5 c 128
 548 56.8333333333 550.5 59.6666666667 551.5 61 c 128
 553 63 553 63 557.5 69 c 128
 560.5 73 562.333333333 76.3333333333 563 79 c 128
 563.666666667 81.6666666667 565 85.3333333333 567 90 c 128
 569 94.6666666667 570.5 99.1666666667 571.5 103.5 c 128
 572.5 107.833333333 573.666666667 112.833333333 575 118.5 c 128
 576.333333333 124.166666667 577.666666667 130.666666667 579 138 c 0
 582.333333333 162.666666667 576.666666667 180.333333333 562 191 c 0
 542.666666667 203 517 209 485 209 c 0
 469.666666667 209 428 197 360 173 c 0
 345.333333333 169.666666667 329.666666667 165.666666667 313 161 c 1
 280.333333333 105.666666667 224.666666667 44.6666666667 146 -22 c 1
 146 -22 146 -22 120 34 c 1
 164.666666667 70.6666666667 198.333333333 104.333333333 221 135 c 1
 141 112.333333333 90 113.666666667 68 139 c 0
 58.6666666667 151 52.6666666667 164.333333333 50 179 c 128
 47.3333333333 193.666666667 51 211.5 61 232.5 c 128
 71 253.5 88.3333333333 273.333333333 113 292 c 0
 116.333333333 294.666666667 122.5 299.333333333 131.5 306 c 128
 140.5 312.666666667 146.166666667 317.166666667 148.5 319.5 c 128
 150.833333333 321.833333333 155.666666667 325.333333333 163 330 c 128
 170.333333333 334.666666667 176.333333333 338.5 181 341.5 c 128
 185.666666667 344.5 191.833333333 348.166666667 199.5 352.5 c 128
 207.166666667 356.833333333 215.333333333 361.333333333 224 366 c 0
 236 371.333333333 252.166666667 379 272.5 389 c 128
 292.833333333 399 307.666666667 406 317 410 c 1
 318.333333333 426 319 441 319 455 c 1
 324.333333333 455 334.5 455.666666667 349.5 457 c 128
 364.5 458.333333333 376.333333333 458.666666667 385 458 c 1
 385 448 385 448 385 436 c 1
 422.333333333 449.333333333 461.666666667 462 503 474 c 1
 502 475 502 475 502 475 c 1
 486 482.333333333 475 491.666666667 469 503 c 0
 463 515.666666667 459 535.666666667 457 563 c 0
 456.333333333 573.666666667 456 594 456 624 c 1
 456 624 456 624 449 624 c 1
 395.666666667 620.666666667 333 622.333333333 261 629 c 1
 261 629 261 629 261 703 c 1
 316.333333333 693.666666667 378.666666667 690.666666667 448 694 c 1
 448 694 448 694 456 695 c 1
 457 757 l 2
 457 768.333333333 455 781 451 795 c 1
681 366 m 1
 706.333333333 352 732.833333333 333.666666667 760.5 311 c 128
 788.166666667 288.333333333 811 267.666666667 829 249 c 0
 904.333333333 170.333333333 947.333333333 119.333333333 958 96 c 1
 958 96 958 96 888 60 c 1
 885.333333333 65.3333333333 881 72.3333333333 875 81 c 128
 869 89.6666666667 861 100.5 851 113.5 c 128
 841 126.5 832.666666667 137.166666667 826 145.5 c 128
 819.333333333 153.833333333 809.833333333 165.333333333 797.5 180 c 128
 785.166666667 194.666666667 778.333333333 203 777 205 c 0
 761 223 734.5 246.5 697.5 275.5 c 128
 660.5 304.5 633.333333333 325 616 337 c 1
 616 337 616 337 681 366 c 1
309 340 m 1
 281.666666667 326.666666667 250.333333333 310 215 290 c 0
 202.333333333 282 190.333333333 274 179 266 c 0
 127 230 106.666666667 203.166666667 118 185.5 c 128
 129.333333333 167.833333333 164.666666667 167.333333333 224 184 c 0
 235.333333333 187.333333333 246.666666667 191.333333333 258 196 c 1
 266 212 275 231 285 253 c 0
 294.333333333 273.666666667 302.333333333 302.666666667 309 340 c 1
EndSplineSet
EndChar

StartChar: u1B01C
Encoding: 110620 110620 126
Width: 1000
GlyphClass: 2
Flags: W
LayerCount: 2
Fore
SplineSet
528 795 m 0
 536 779.666666667 546.666666667 755.666666667 560 723 c 1
 481.333333333 699 411 674.333333333 349 649 c 2
 349 649 349 649 332.5 642 c 128
 321.5 637.333333333 315.166666667 634.5 313.5 633.5 c 128
 311.833333333 632.5 306.666666667 630 298 626 c 128
 289.333333333 622 283.166666667 618.833333333 279.5 616.5 c 128
 275.833333333 614.166666667 271.166666667 610.833333333 265.5 606.5 c 128
 259.833333333 602.166666667 254.666666667 598 250 594 c 0
 242.666666667 588.666666667 237.666666667 582 235 574 c 128
 232.333333333 566 233 558 237 550 c 0
 243 541.333333333 257 536 279 534 c 0
 303.666666667 532 329.833333333 532.833333333 357.5 536.5 c 128
 385.166666667 540.166666667 406.666666667 543.833333333 422 547.5 c 128
 437.333333333 551.166666667 463 558 499 568 c 1
 500.333333333 557.333333333 503 543.333333333 507 526 c 128
 511 508.666666667 513.666666667 496.666666667 515 490 c 1
 513 490 505.666666667 488.333333333 493 485 c 1
 471 465 452.666666667 430 438 380 c 1
 444.666666667 372 450.666666667 364.333333333 456 357 c 1
 538.666666667 412.333333333 602.666666667 445.333333333 648 456 c 0
 663.333333333 458.666666667 678.666666667 459.666666667 694 459 c 1
 694 459 l 1
 704.666666667 459 715 457.666666667 725 455 c 0
 757 448.333333333 781 437.333333333 797 422 c 0
 818.333333333 400.666666667 825.666666667 374 819 342 c 0
 815 322.666666667 805 292 789 250 c 1
 836.333333333 245.333333333 869 237.333333333 887 226 c 0
 897 220 905.333333333 210.833333333 912 198.5 c 128
 918.666666667 186.166666667 921.666666667 174 921 162 c 0
 920.333333333 148.666666667 916 135.5 908 122.5 c 128
 900 109.5 890.333333333 98.3333333333 879 89 c 0
 863 76.3333333333 843.333333333 64.1666666667 820 52.5 c 128
 796.666666667 40.8333333333 778.666666667 32.6666666667 766 28 c 128
 753.333333333 23.3333333333 731.333333333 15.6666666667 700 5 c 1
 689.333333333 29 676.333333333 49.3333333333 661 66 c 1
 672.333333333 70 690.166666667 76 714.5 84 c 128
 738.833333333 92 757.666666667 99 771 105 c 0
 783.666666667 110.333333333 792.333333333 114.166666667 797 116.5 c 128
 801.666666667 118.833333333 808.333333333 123.166666667 817 129.5 c 128
 825.666666667 135.833333333 832.666666667 142.333333333 838 149 c 0
 840.666666667 153 841.333333333 157.333333333 840 162 c 128
 838.666666667 166.666666667 836 170.333333333 832 173 c 0
 822 178.333333333 810.833333333 182.666666667 798.5 186 c 128
 786.166666667 189.333333333 776.5 191.333333333 769.5 192 c 128
 762.5 192.666666667 750 193.666666667 732 195 c 128
 714 196.333333333 703.333333333 197.333333333 700 198 c 0
 693.333333333 197.333333333 686.666666667 197 680 197 c 1
 680 218.333333333 681 236.666666667 683 252 c 1
 694.333333333 264.666666667 704.333333333 279.166666667 713 295.5 c 128
 721.666666667 311.833333333 727 324.666666667 729 334 c 0
 730.333333333 340.666666667 731 347 731 353 c 0
 730.333333333 367.666666667 723.666666667 376.666666667 711 380 c 0
 692.333333333 384 671.666666667 383.666666667 649 379 c 0
 612.333333333 370.333333333 559.666666667 342.666666667 491 296 c 1
 509 256.666666667 518.833333333 214.666666667 520.5 170 c 128
 522.166666667 125.333333333 519.166666667 88.1666666667 511.5 58.5 c 128
 503.833333333 28.8333333333 493.666666667 1.66666666667 481 -23 c 1
 481 -23 481 -23 433 -66 c 1
 363.666666667 -33.3333333333 315.333333333 -9.66666666667 288 5 c 1
 288 5 288 5 313 72 c 1
 322.333333333 66.6666666667 333.333333333 61.1666666667 346 55.5 c 128
 358.666666667 49.8333333333 371.833333333 44.6666666667 385.5 40 c 128
 399.166666667 35.3333333333 408.333333333 32 413 30 c 1
 421.666666667 42.6666666667 428.5 59.6666666667 433.5 81 c 128
 438.5 102.333333333 441 128.166666667 441 158.5 c 128
 441 188.833333333 435.666666667 217.333333333 425 244 c 1
 423 242 418.333333333 239.166666667 411 235.5 c 128
 400 230 400 230 396 228 c 0
 390 222.666666667 380.666666667 215.166666667 368 205.5 c 128
 355.333333333 195.833333333 346.333333333 189 341 185 c 0
 328.333333333 175 303 154.666666667 265 124 c 0
 249.666666667 110.666666667 235.666666667 99 223 89 c 1
 221.666666667 73.6666666667 220 52 218 24 c 1
 218 24 218 24 134 30 c 1
 152.666666667 112.666666667 146.666666667 199.666666667 116 291 c 1
 116 291 116 291 186 321 c 1
 208 265.666666667 221 220.666666667 225 186 c 1
 231.666666667 191.333333333 238.666666667 196.666666667 246 202 c 0
 255.333333333 208.666666667 266.666666667 217 280 227 c 0
 293.333333333 236.333333333 304 244 312 250 c 0
 317.333333333 255.333333333 326.666666667 262.666666667 340 272 c 0
 352 281.333333333 361.333333333 288.333333333 368 293 c 0
 371.333333333 295.666666667 376 299 382 303 c 1
 378 306.333333333 374.666666667 308.666666667 372 310 c 0
 367.333333333 313.333333333 363.333333333 316.333333333 360 319 c 2
 360 319 360 319 354 347 c 1
 354 348 l 2
 354 348 354 348 348 374 c 1
 366 420 381.666666667 451.666666667 395 469 c 1
 357 464.333333333 324.333333333 462.666666667 297 464 c 0
 247 467.333333333 211.333333333 476 190 490 c 0
 159.333333333 513.333333333 145 536.666666667 147 560 c 0
 147.666666667 566.666666667 149.5 573 152.5 579 c 128
 155.5 585 160 592.833333333 166 602.5 c 128
 172 612.166666667 175.666666667 618 177 620 c 0
 189.666666667 640.666666667 211.333333333 659.666666667 242 677 c 0
 278 697.666666667 330.666666667 720.833333333 400 746.5 c 128
 469.333333333 772.166666667 511.333333333 788 526 794 c 0
 526.666666667 794.666666667 527.333333333 795 528 795 c 0
EndSplineSet
EndChar

StartChar: u1B01D
Encoding: 110621 110621 127
Width: 1000
GlyphClass: 2
Flags: W
LayerCount: 2
Fore
SplineSet
172 59 m 1
 226.666666667 47.6666666667 262.5 42.5 279.5 43.5 c 128
 296.5 44.5 315.333333333 65.3333333333 336 106 c 0
 350 129.333333333 359 158 363 192 c 1
 368.333333333 212 369.666666667 240.666666667 367 278 c 0
 365.666666667 282 364 286 362 290 c 1
 348 273.333333333 334 257 320 241 c 0
 263.333333333 180.333333333 222.833333333 138.666666667 198.5 116 c 128
 174.166666667 93.3333333333 142.666666667 65.3333333333 104 32 c 1
 44 101 l 1
 81.3333333333 125.666666667 121 155 163 189 c 0
 204.333333333 221.666666667 255 269.333333333 315 332 c 1
 293.666666667 341.333333333 259 353.333333333 211 368 c 1
 180.333333333 384 164.666666667 407.333333333 164 438 c 1
 169.333333333 474.666666667 191.333333333 557.666666667 230 687 c 1
 255 784 l 1
 338 768 l 1
 324 726.666666667 311.333333333 686.666666667 300 648 c 1
 314 647.333333333 325 647.333333333 333 648 c 0
 348.333333333 649.333333333 364.666666667 650.5 382 651.5 c 128
 399.333333333 652.5 422 655.666666667 450 661 c 1
 462 584 l 1
 428 578.666666667 401.666666667 575.5 383 574.5 c 128
 364.333333333 573.5 347.333333333 573 332 573 c 0
 319.333333333 572.333333333 301.333333333 572.333333333 278 573 c 1
 264 527 254.666666667 495 250 477 c 0
 242.666666667 450.333333333 253 432 281 422 c 1
 318.333333333 414.666666667 349 404 373 390 c 1
 407.666666667 426 434.333333333 453.666666667 453 473 c 1
 480 454 l 1
 458.666666667 418.666666667 436.666666667 385.666666667 414 355 c 1
 424 341 430.666666667 325.666666667 434 309 c 0
 442 272.333333333 442.333333333 231.666666667 435 187 c 128
 427.666666667 142.333333333 416.666666667 106.333333333 402 79 c 0
 376.666666667 22.3333333333 352.333333333 -12 329 -24 c 128
 305.666666667 -36 286 -35.6666666667 270 -23 c 0
 240 -3 203.333333333 15.3333333333 160 32 c 1
 172 59 l 1
720 754 m 1
 700 710.666666667 677 663.666666667 651 613 c 1
 669 622.333333333 691.333333333 627.333333333 718 628 c 0
 766 633.333333333 806.833333333 629 840.5 615 c 128
 874.166666667 601 896.5 580.666666667 907.5 554 c 128
 918.5 527.333333333 920.5 499.333333333 913.5 470 c 128
 906.5 440.666666667 882 410 840 378 c 1
 754 400 l 1
 786 424.666666667 807.833333333 446.666666667 819.5 466 c 128
 831.166666667 485.333333333 835.833333333 503.666666667 833.5 521 c 128
 831.166666667 538.333333333 819.833333333 550.166666667 799.5 556.5 c 128
 779.166666667 562.833333333 751 563.666666667 715 559 c 0
 668.333333333 551 637.333333333 541.333333333 622 530 c 0
 604 516 591.5 505.833333333 584.5 499.5 c 128
 577.5 493.166666667 567 480.666666667 553 462 c 1
 485 499 l 1
 499 521 511.666666667 539.666666667 523 555 c 1
 533 573 546 595.666666667 562 623 c 0
 592 676.333333333 612.666666667 727 624 775 c 1
 720 754 l 1
723 430 m 1
 709 371.333333333 694.333333333 319 679 273 c 0
 670.333333333 253 664 236.333333333 660 223 c 1
 668 224.333333333 681 225.666666667 699 227 c 0
 740.333333333 229 777.166666667 215.333333333 809.5 186 c 128
 841.833333333 156.666666667 866.5 121.666666667 883.5 81 c 128
 900.5 40.3333333333 916 3 930 -31 c 1
 852 -58 l 1
 844 -21.3333333333 832.833333333 14 818.5 48 c 128
 804.166666667 82 787.166666667 108.666666667 767.5 128 c 128
 747.833333333 147.333333333 726.333333333 159.666666667 703 165 c 0
 671.666666667 173 647 166.333333333 629 145 c 0
 617.666666667 129 608.666666667 116 602 106 c 0
 579.333333333 64 557 15.6666666667 535 -39 c 1
 449 4 l 1
 480.333333333 44 502.666666667 78 516 106 c 0
 529.333333333 128.666666667 542.333333333 152 555 176 c 0
 573.666666667 212.666666667 589.833333333 252 603.5 294 c 128
 617.166666667 336 631 385.333333333 645 442 c 1
 723 430 l 1
EndSplineSet
EndChar

StartChar: u1B01E
Encoding: 110622 110622 128
Width: 1000
GlyphClass: 2
Flags: W
LayerCount: 2
Fore
SplineSet
716 513 m 1
 803 552 l 1
 776.333333333 566 739.333333333 580.833333333 692 596.5 c 128
 644.666666667 612.166666667 600 625.666666667 558 637 c 1
 594 701 l 1
 622 693.666666667 655.666666667 683.666666667 695 671 c 128
 734.333333333 658.333333333 773.166666667 645.333333333 811.5 632 c 128
 849.833333333 618.666666667 882 605.666666667 908 593 c 1
 907 542 l 1
 880.333333333 534.666666667 823 515.666666667 735 485 c 1
 716 513 l 1
448 464 m 1
 476.666666667 460 503.333333333 457.166666667 528 455.5 c 128
 552.666666667 453.833333333 576.5 453.5 599.5 454.5 c 128
 622.5 455.5 646.666666667 457.333333333 672 460 c 1
 675 383 l 1
 646.333333333 381 620.666666667 380 598 380 c 128
 575.333333333 380 552.5 380.5 529.5 381.5 c 128
 506.5 382.5 480 384.333333333 450 387 c 1
 448 464 l 1
229 273 m 1
 314.333333333 279.666666667 379.5 286 424.5 292 c 128
 469.5 298 530 309.333333333 606 326 c 1
 626 262 l 1
 516 152 l 1
 558 156 598.333333333 153.333333333 637 144 c 256
 675.666666667 134.666666667 704.333333333 124.333333333 723 113 c 128
 741.666666667 101.666666667 762 86.1666666667 784 66.5 c 128
 806 46.8333333333 826 26 844 4 c 1
 781 -49 l 1
 770.333333333 -33 755.666666667 -15.6666666667 737 3 c 128
 718.333333333 21.6666666667 698.666666667 37.5 678 50.5 c 128
 657.333333333 63.5 629.666666667 74.3333333333 595 83 c 0
 505 99.6666666667 442 91.6666666667 406 59 c 0
 384 41.6666666667 347.666666667 11.6666666667 297 -31 c 1
 245 39 l 1
 296.333333333 77.6666666667 330.666666667 103.833333333 348 117.5 c 128
 365.333333333 131.166666667 390.666666667 152.666666667 424 182 c 1
 456 222 l 1
 430.666666667 212.666666667 402 206.333333333 370 203 c 0
 322 198.333333333 278 194 238 190 c 1
 229 273 l 1
78 674 m 1
 117.333333333 689.333333333 166.333333333 703 225 715 c 0
 235 717 235 717 245 719 c 1
 256.333333333 741 272 772.333333333 292 813 c 1
 365 789 l 1
 351 764.333333333 339.666666667 742.666666667 331 724 c 1
 338.333333333 724 346 723.666666667 354 723 c 0
 410.666666667 717.666666667 445.666666667 698.5 459 665.5 c 128
 472.333333333 632.5 467.166666667 589.333333333 443.5 536 c 128
 419.833333333 482.666666667 387 426 345 366 c 1
 266 399 l 1
 307.333333333 451.666666667 339.333333333 502.333333333 362 551 c 128
 384.666666667 599.666666667 383.333333333 630 358 642 c 1
 343.333333333 646.666666667 321 647.333333333 291 644 c 1
 281 622 268.666666667 592.666666667 254 556 c 0
 232 504.666666667 218.333333333 467 213 443 c 1
 138 467 l 1
 146 493.666666667 161.333333333 532.333333333 184 583 c 0
 191.333333333 598.333333333 197.333333333 612.333333333 202 625 c 1
 173.333333333 617 140 606.666666667 102 594 c 1
 78 674 l 1
EndSplineSet
EndChar

StartChar: u1B01F
Encoding: 110623 110623 129
Width: 1000
GlyphClass: 2
Flags: W
LayerCount: 2
Fore
SplineSet
760 688 m 0
 756.666666667 704 732.166666667 714 686.5 718 c 128
 640.833333333 722 585.333333333 721.666666667 520 717 c 0
 446.666666667 709 398.5 702.166666667 375.5 696.5 c 128
 352.5 690.833333333 322.333333333 683.333333333 285 674 c 0
 265.666666667 669.333333333 247.666666667 664.666666667 231 660 c 128
 214.333333333 655.333333333 201 650.333333333 191 645 c 1
 159 731 l 1
 169.666666667 733 184.666666667 735.5 204 738.5 c 128
 223.333333333 741.5 242.666666667 745 262 749 c 0
 304 758.333333333 340 766 370 772 c 128
 400 778 450.666666667 784.333333333 522 791 c 0
 614 799 689.333333333 796.666666667 748 784 c 128
 806.666666667 771.333333333 840.666666667 741 850 693 c 1
 854 638.333333333 837.333333333 582 800 524 c 1
 722 571 l 1
 750 615.666666667 762.666666667 654.666666667 760 688 c 0
562 532 m 1
 560.666666667 518 559.833333333 506.666666667 559.5 498 c 128
 559.166666667 489.333333333 558.666666667 480.333333333 558 471 c 0
 558 469 557.666666667 464.666666667 557 458 c 1
 601 468 634 478 656 488 c 0
 670.666666667 494.666666667 684.333333333 501.666666667 697 509 c 1
 728 431 l 1
 708.666666667 426.333333333 690.666666667 420.666666667 674 414 c 0
 647.333333333 403.333333333 607.666666667 392.666666667 555 382 c 1
 554.333333333 376 554 370 554 364 c 0
 554.666666667 353.333333333 554.666666667 258 554 78 c 0
 554 42 548.5 16.6666666667 537.5 2 c 128
 526.5 -12.6666666667 502 -19.6666666667 464 -19 c 1
 424 7 368 40.3333333333 296 81 c 1
 304 106 l 1
 378.666666667 80 422.166666667 65.6666666667 434.5 63 c 128
 446.833333333 60.3333333333 457 59 465 59 c 0
 469 59 472.333333333 61.1666666667 475 65.5 c 128
 477.666666667 69.8333333333 479 76 479 84 c 2
 479 355 l 2
 479 362 479 362 479 368 c 1
 460.333333333 365.333333333 445 364 433 364 c 0
 407 362.666666667 379.833333333 362.166666667 351.5 362.5 c 128
 323.166666667 362.833333333 299 363.666666667 279 365 c 1
 297 449 l 1
 321 442.333333333 344 438.666666667 366 438 c 128
 388 437.333333333 410 437.333333333 432 438 c 0
 443.333333333 438.666666667 458.333333333 440.333333333 477 443 c 1
 477 466 477 466 477 470 c 2
 477 498 l 2
 477 507.333333333 476.333333333 518.666666667 475 532 c 1
 562 532 l 1
649 257 m 1
 715 307 l 1
 739.666666667 283 761.833333333 260.833333333 781.5 240.5 c 128
 801.166666667 220.166666667 822 195 844 165 c 128
 866 135 887.333333333 105.666666667 908 77 c 1
 844 27 l 1
 825.333333333 54.3333333333 804.666666667 83.5 782 114.5 c 128
 759.333333333 145.5 738.833333333 170.833333333 720.5 190.5 c 128
 702.166666667 210.166666667 678.333333333 232.333333333 649 257 c 1
259 288 m 1
 316 239 l 1
 299.333333333 203.666666667 284.833333333 176.166666667 272.5 156.5 c 128
 260.166666667 136.833333333 244.833333333 117 226.5 97 c 128
 208.166666667 77 185 52.6666666667 157 24 c 1
 89 87 l 1
 117.666666667 105 141.333333333 125 160 147 c 128
 178.666666667 169 194.5 188.166666667 207.5 204.5 c 128
 220.5 220.833333333 237.666666667 248.666666667 259 288 c 1
EndSplineSet
EndChar

StartChar: u1B020
Encoding: 110624 110624 130
Width: 1000
GlyphClass: 2
Flags: W
LayerCount: 2
Fore
SplineSet
477 832 m 1
 541.666666667 802 590.666666667 768.666666667 624 732 c 1
 624 732 624 732 614 694 c 1
 548.666666667 666.666666667 510.333333333 650.666666667 499 646 c 2
 499 646 499 646 495 645 c 128
 492.333333333 644.333333333 490.333333333 643.333333333 489 642 c 128
 487.666666667 640.666666667 487.333333333 639 488 637 c 0
 500 621.666666667 509 603.333333333 515 582 c 1
 545.666666667 584.666666667 567.666666667 588 581 592 c 1
 581 592 581 592 615 539 c 1
 596.333333333 529 569.333333333 510.666666667 534 484 c 1
 534.666666667 472 534.666666667 460.666666667 534 450 c 0
 532.666666667 417.333333333 520.666666667 379.333333333 498 336 c 1
 494 336 484.166666667 336.166666667 468.5 336.5 c 128
 452.833333333 336.833333333 440.666666667 337 432 337 c 0
 431.333333333 338.333333333 431.333333333 340 432 342 c 128
 432.666666667 344 433 345.666666667 433 347 c 0
 431 360.333333333 422 374 406 388 c 1
 371.333333333 362.666666667 332.333333333 330 289 290 c 1
 291.666666667 290.666666667 295.333333333 291.333333333 300 292 c 128
 304.666666667 292.666666667 308 293.333333333 310 294 c 0
 379.333333333 308 438 317.333333333 486 322 c 0
 613.333333333 330 746 326.666666667 884 312 c 1
 884 312 884 312 884 249 c 1
 777.333333333 259.666666667 677.333333333 264.666666667 584 264 c 1
 562.666666667 254.666666667 529.666666667 238.333333333 485 215 c 0
 484 214 484 214 483 213 c 0
 479.666666667 210.333333333 480 208.666666667 484 208 c 0
 518.666666667 210.666666667 544.333333333 211 561 209 c 0
 616.333333333 205.666666667 660.666666667 188.333333333 694 157 c 0
 720 135 731.666666667 105.666666667 729 69 c 0
 727 34.3333333333 712 5.66666666667 684 -17 c 0
 644 -47.6666666667 591 -65.6666666667 525 -71 c 0
 484.333333333 -74.3333333333 449.333333333 -73.3333333333 420 -68 c 0
 419.333333333 -67.3333333333 416.166666667 -66.3333333333 410.5 -65 c 128
 404.833333333 -63.6666666667 401.166666667 -62.8333333333 399.5 -62.5 c 128
 397.833333333 -62.1666666667 394.833333333 -61.3333333333 390.5 -60 c 128
 386.166666667 -58.6666666667 382.833333333 -57.6666666667 380.5 -57 c 128
 378.166666667 -56.3333333333 375 -55.1666666667 371 -53.5 c 128
 367 -51.8333333333 363.666666667 -50.5 361 -49.5 c 128
 358.333333333 -48.5 355.5 -47 352.5 -45 c 128
 349.5 -43 346.5 -41.3333333333 343.5 -40 c 128
 340.5 -38.6666666667 337.666666667 -36.6666666667 335 -34 c 0
 315 -18 306 2.33333333333 308 27 c 0
 309.333333333 49.6666666667 322 68 346 82 c 0
 385.333333333 104.666666667 429.666666667 109.666666667 479 97 c 0
 513 87 534 70 542 46 c 0
 545.333333333 35.3333333333 545.166666667 24.1666666667 541.5 12.5 c 128
 537.833333333 0.833333333333 531.333333333 -9.33333333333 522 -18 c 1
 543.333333333 -15.3333333333 561 -11.6666666667 575 -7 c 0
 610.333333333 5 635 20.6666666667 649 40 c 0
 658.333333333 51.3333333333 662.666666667 64.8333333333 662 80.5 c 128
 661.333333333 96.1666666667 656 110 646 122 c 0
 622.666666667 146 589 160.333333333 545 165 c 0
 484.333333333 168.333333333 430.666666667 161.333333333 384 144 c 0
 364 136 342.833333333 125.5 320.5 112.5 c 128
 298.166666667 99.5 280.666666667 88.6666666667 268 80 c 128
 255.333333333 71.3333333333 236 58 210 40 c 1
 210 40 210 40 181 72 c 2
 179.666666667 74.6666666667 177.166666667 77.6666666667 173.5 81 c 128
 169.833333333 84.3333333333 167.666666667 86.3333333333 167 87 c 1
 221 122.333333333 293 164.666666667 383 214 c 0
 388.333333333 217.333333333 398.166666667 222.833333333 412.5 230.5 c 128
 426.833333333 238.166666667 437.666666667 244.333333333 445 249 c 0
 447 250.333333333 447.833333333 252 447.5 254 c 128
 447.166666667 256 446 256.666666667 444 256 c 0
 412 251.333333333 378.666666667 245.333333333 344 238 c 128
 309.333333333 230.666666667 269.333333333 221.666666667 224 211 c 128
 178.666666667 200.333333333 145.333333333 192.333333333 124 187 c 1
 124 187 124 187 118 251 c 1
 119.333333333 251 133.666666667 254.333333333 161 261 c 1
 173 268.333333333 191 282.333333333 215 303 c 0
 335.666666667 408.333333333 422 481 474 521 c 1
 452 518.333333333 431 516.333333333 411 515 c 0
 394.333333333 513.666666667 355.833333333 511.333333333 295.5 508 c 128
 235.166666667 504.666666667 188.333333333 501.333333333 155 498 c 1
 155 498 155 498 168 571 c 1
 176.666666667 570.333333333 186.666666667 569.666666667 198 569 c 0
 239.333333333 568.333333333 323.333333333 571 450 577 c 1
 440 599 429 615.666666667 417 627 c 1
 416.333333333 633.666666667 415.833333333 642.833333333 415.5 654.5 c 128
 415.166666667 666.166666667 415 673.333333333 415 676 c 0
 421.666666667 678.666666667 457 694.666666667 521 724 c 0
 525 724 527.333333333 725.666666667 528 729 c 128
 528.666666667 732.333333333 527.333333333 735 524 737 c 0
 504 759 469.333333333 781 420 803 c 1
 420 803 420 803 477 832 c 1
471 436 m 1
 469.666666667 434.666666667 464.333333333 430.666666667 455 424 c 128
 445.666666667 417.333333333 438.333333333 412 433 408 c 1
 441 402 448 394.333333333 454 385 c 1
 461.333333333 398.333333333 466.666666667 413.666666667 470 431 c 2
 470 431 470 431 471 436 c 1
426 61 m 0
 405.333333333 60.3333333333 388.666666667 55.3333333333 376 46 c 0
 368.666666667 42 364.833333333 35.5 364.5 26.5 c 128
 364.166666667 17.5 367 10 373 4 c 0
 387 -7.33333333333 408.333333333 -14.3333333333 437 -17 c 1
 449 -13.6666666667 459.666666667 -7.66666666667 469 1 c 0
 475.666666667 5.66666666667 480.166666667 11.8333333333 482.5 19.5 c 128
 484.833333333 27.1666666667 483.666666667 34.6666666667 479 42 c 0
 469.666666667 54 452 60.3333333333 426 61 c 0
EndSplineSet
EndChar

StartChar: u1B021
Encoding: 110625 110625 131
Width: 1000
GlyphClass: 2
Flags: W
LayerCount: 2
Fore
SplineSet
70 666 m 1
 138 686.666666667 201.333333333 703 260 715 c 0
 262.666666667 715.666666667 265.333333333 716 268 716 c 0
 279.333333333 739.333333333 295 771.666666667 315 813 c 1
 389 789 l 1
 375 764.333333333 363.333333333 742.666666667 354 724 c 1
 365.333333333 724 377 723.666666667 389 723 c 0
 445.666666667 717.666666667 480.833333333 698.5 494.5 665.5 c 128
 508.166666667 632.5 503 591.833333333 479 543.5 c 128
 455 495.166666667 422 446.333333333 380 397 c 1
 301 430 l 1
 342.333333333 472 374.333333333 514.833333333 397 558.5 c 128
 419.666666667 602.166666667 418.666666667 630 394 642 c 1
 377.333333333 647.333333333 350.666666667 647.333333333 314 642 c 1
 303.333333333 616.666666667 289 579.666666667 271 531 c 0
 245 462.333333333 229.666666667 416 225 392 c 1
 149 416 l 1
 157 442.666666667 174.333333333 490 201 558 c 0
 211 582.666666667 220 604.666666667 228 624 c 1
 193.333333333 614.666666667 148.666666667 602 94 586 c 1
 70 666 l 1
734 555 m 1
 817 602 l 1
 789.666666667 613.333333333 751.833333333 624.666666667 703.5 636 c 128
 655.166666667 647.333333333 609.333333333 657 566 665 c 1
 597 731 l 1
 625 726.333333333 659.166666667 719.5 699.5 710.5 c 128
 739.833333333 701.5 779.833333333 692 819.5 682 c 128
 859.166666667 672 892.333333333 662 919 652 c 1
 923 601 l 1
 897 591.666666667 841.666666667 567.666666667 757 529 c 1
 734 555 l 1
483 509 m 1
 511.666666667 505 538.5 502 563.5 500 c 128
 588.5 498 612.333333333 497.333333333 635 498 c 128
 657.666666667 498.666666667 681.666666667 499.333333333 707 500 c 1
 727 425 l 1
 719.666666667 410.333333333 713.333333333 398.666666667 708 390 c 128
 702.666666667 381.333333333 693.333333333 367.333333333 680 348 c 1
 706 348 732 346 758 342 c 0
 790 336.666666667 818.5 323.333333333 843.5 302 c 128
 868.5 280.666666667 882.5 246.666666667 885.5 200 c 128
 888.5 153.333333333 880 114.333333333 860 83 c 128
 840 51.6666666667 815.5 26.6666666667 786.5 8 c 128
 757.5 -10.6666666667 725.5 -23.8333333333 690.5 -31.5 c 128
 655.5 -39.1666666667 619.333333333 -43.3333333333 582 -44 c 128
 544.666666667 -44.6666666667 503.833333333 -41.8333333333 459.5 -35.5 c 128
 415.166666667 -29.1666666667 377.5 -9.83333333333 346.5 22.5 c 128
 315.5 54.8333333333 303 95.6666666667 309 145 c 0
 314.333333333 173.666666667 324.666666667 195.166666667 340 209.5 c 128
 355.333333333 223.833333333 374 234.166666667 396 240.5 c 128
 418 246.833333333 445.333333333 246.333333333 478 239 c 1
 510.666666667 225 535.666666667 209.5 553 192.5 c 128
 570.333333333 175.5 586.666666667 153.666666667 602 127 c 128
 617.333333333 100.333333333 625.666666667 80 627 66 c 1
 553 45 l 1
 553.666666667 62.3333333333 548 81.3333333333 536 102 c 128
 524 122.666666667 511.5 138.333333333 498.5 149 c 128
 485.5 159.666666667 466.333333333 167 441 171 c 0
 420.333333333 173.666666667 405.166666667 170.166666667 395.5 160.5 c 128
 385.833333333 150.833333333 381 139.666666667 381 127 c 0
 379.666666667 99.6666666667 387.833333333 78.6666666667 405.5 64 c 128
 423.166666667 49.3333333333 447.833333333 39.6666666667 479.5 35 c 128
 511.166666667 30.3333333333 544.833333333 28.5 580.5 29.5 c 128
 616.166666667 30.5 645.333333333 33.1666666667 668 37.5 c 128
 690.666666667 41.8333333333 712 49.5 732 60.5 c 128
 752 71.5 769.166666667 87.3333333333 783.5 108 c 128
 797.833333333 128.666666667 804.333333333 157 803 193 c 128
 801.666666667 229 784 253.333333333 750 266 c 1
 721.333333333 271.333333333 696.333333333 273.833333333 675 273.5 c 128
 653.666666667 273.166666667 629.666666667 270.666666667 603 266 c 1
 563 320 l 1
 587.666666667 351.333333333 608.333333333 385.333333333 625 422 c 1
 605.666666667 422 585.666666667 422.666666667 565 424 c 0
 541.666666667 424.666666667 515 426.666666667 485 430 c 1
 483 509 l 1
EndSplineSet
EndChar

StartChar: u1B022
Encoding: 110626 110626 132
Width: 1000
GlyphClass: 2
Flags: W
LayerCount: 2
Fore
SplineSet
454 818 m 1
 464.666666667 818 479 817.666666667 497 817 c 128
 515 816.333333333 529 815.666666667 539 815 c 0
 541 815 542 814.5 542 813.5 c 128
 542 812.5 541.5 810.666666667 540.5 808 c 128
 539.5 805.333333333 539 803.666666667 539 803 c 0
 535 791 530 772.833333333 524 748.5 c 128
 518 724.166666667 514.333333333 710.666666667 513 708 c 1
 593.666666667 724.666666667 660.333333333 731.333333333 713 728 c 0
 747.666666667 726 774 715.333333333 792 696 c 0
 806.666666667 682 815.666666667 661.333333333 819 634 c 0
 820.333333333 616.666666667 815.333333333 599.333333333 804 582 c 0
 788.666666667 558 757.666666667 535.666666667 711 515 c 0
 696.333333333 511 680.333333333 507.666666667 663 505 c 128
 645.666666667 502.333333333 631 500.666666667 619 500 c 128
 607 499.333333333 590.166666667 498.833333333 568.5 498.5 c 128
 546.833333333 498.166666667 531.333333333 498 522 498 c 1
 522 506.666666667 522.166666667 519.833333333 522.5 537.5 c 128
 522.833333333 555.166666667 523.333333333 568.333333333 524 577 c 1
 544 575.666666667 572.666666667 574.333333333 610 573 c 0
 653.333333333 573 682.333333333 577 697 585 c 0
 713 595 724 606 730 618 c 0
 736 626.666666667 735 634 727 640 c 0
 713 648.666666667 690 653.333333333 658 654 c 0
 616.666666667 653.333333333 561.333333333 645.666666667 492 631 c 1
 476 575 461 531 447 499 c 0
 443.666666667 493 439.333333333 483.333333333 434 470 c 128
 428.666666667 456.666666667 424.333333333 446.666666667 421 440 c 1
 433 435.333333333 445.666666667 430 459 424 c 0
 515.666666667 399.333333333 556.333333333 368.666666667 581 332 c 0
 613 280 627.333333333 222.333333333 624 159 c 0
 622 113.666666667 615 76.3333333333 603 47 c 0
 591 18.3333333333 568.333333333 -8.66666666667 535 -34 c 1
 499.666666667 -54 459 -64.3333333333 413 -65 c 0
 378.333333333 -65 353.333333333 -56.3333333333 338 -39 c 1
 315.333333333 -19 299.666666667 9.33333333333 291 46 c 1
 264.333333333 24 247.333333333 10.3333333333 240 5 c 0
 213.333333333 -11.6666666667 187 -24 161 -32 c 0
 147 -36.6666666667 132 -37.5 116 -34.5 c 128
 100 -31.5 86.3333333333 -24.6666666667 75 -14 c 0
 56.3333333333 4 50 29.3333333333 56 62 c 0
 60 86 70 108.166666667 86 128.5 c 128
 102 148.833333333 121.666666667 165.666666667 145 179 c 0
 184.333333333 201.666666667 220.333333333 212.333333333 253 211 c 0
 283 210.333333333 307 198 325 174 c 1
 346.333333333 202.666666667 367 232.666666667 387 264 c 1
 393 259.333333333 401.5 252.5 412.5 243.5 c 128
 423.5 234.5 432 227.333333333 438 222 c 1
 411.333333333 181.333333333 384.666666667 145 358 113 c 1
 359.333333333 107.666666667 361.333333333 98.5 364 85.5 c 128
 366.666666667 72.5 369.666666667 61 373 51 c 128
 376.333333333 41 380.666666667 32.6666666667 386 26 c 0
 400.666666667 8.66666666667 415.666666667 0.666666666667 431 2 c 0
 448.333333333 0.666666666667 466.333333333 6 485 18 c 128
 503.666666667 30 518.333333333 44 529 60 c 0
 549.666666667 91.3333333333 559.333333333 131.666666667 558 181 c 0
 554.666666667 222.333333333 538.333333333 264.333333333 509 307 c 0
 500.333333333 319 488.666666667 329.666666667 474 339 c 128
 459.333333333 348.333333333 447.666666667 354.833333333 439 358.5 c 128
 430.333333333 362.166666667 415.666666667 368.333333333 395 377 c 0
 391.666666667 380.333333333 388.666666667 379.333333333 386 374 c 0
 385.333333333 372.666666667 384.666666667 371.666666667 384 371 c 2
 384 371 384 371 309 389 c 1
 346.333333333 446.333333333 379.666666667 519.333333333 409 608 c 1
 331.666666667 587.333333333 245.333333333 561.333333333 150 530 c 1
 142.666666667 536.666666667 133.833333333 547.833333333 123.5 563.5 c 128
 113.166666667 579.166666667 104.666666667 590 98 596 c 1
 119.333333333 601.333333333 137.333333333 606.333333333 152 611 c 0
 162.666666667 613.666666667 203.166666667 624.666666667 273.5 644 c 128
 343.833333333 663.333333333 397.333333333 678 434 688 c 1
 436.666666667 699.333333333 439 708.666666667 441 716 c 0
 450.333333333 758.666666667 454.666666667 792.333333333 454 817 c 1
 454 817 l 1
 454 818 l 1
755 397 m 1
 779 392.333333333 803.333333333 387.666666667 828 383 c 1
 826 348.333333333 818.666666667 313 806 277 c 0
 804 271 801.333333333 264.833333333 798 258.5 c 128
 794.666666667 252.166666667 791.833333333 247 789.5 243 c 128
 787.166666667 239 783.333333333 232.833333333 778 224.5 c 128
 772.666666667 216.166666667 769.333333333 210.666666667 768 208 c 0
 754.666666667 188 749.333333333 172.666666667 752 162 c 0
 756 146 769.666666667 135 793 129 c 0
 826.333333333 120.333333333 872 120 930 128 c 1
 930 98 932.333333333 73.3333333333 937 54 c 1
 909 52.6666666667 876.666666667 52 840 52 c 0
 836 52 836 52 817.5 52 c 128
 805.166666667 52 796.5 52.1666666667 791.5 52.5 c 128
 786.5 52.8333333333 779.333333333 53.5 770 54.5 c 128
 760.666666667 55.5 752.5 57 745.5 59 c 128
 738.5 61 731.333333333 63.3333333333 724 66 c 0
 711.333333333 71.3333333333 700.666666667 78.8333333333 692 88.5 c 128
 683.333333333 98.1666666667 678 109.333333333 676 122 c 0
 671.333333333 148 678.666666667 180 698 218 c 0
 714 246.666666667 724.666666667 268 730 282 c 0
 748 327.333333333 756.333333333 365 755 395 c 2
 755 395 755 395 755 396 c 128
 755 397 755 397 755 397 c 1
216 133 m 0
 203.333333333 133 190.666666667 130 178 124 c 0
 148.666666667 111.333333333 131.666666667 94 127 72 c 0
 125 57.3333333333 126 47.3333333333 130 42 c 0
 136.666666667 36.6666666667 147.333333333 35.6666666667 162 39 c 0
 192 45.6666666667 224 64 258 94 c 0
 258.666666667 95.3333333333 260.333333333 97 263 99 c 128
 265.666666667 101 267 103 267 105 c 0
 253.666666667 124.333333333 236.666666667 133.666666667 216 133 c 0
EndSplineSet
EndChar

StartChar: u1B023
Encoding: 110627 110627 133
Width: 1000
GlyphClass: 2
Flags: W
LayerCount: 2
Fore
SplineSet
496 835 m 1
 495.333333333 827 494.666666667 820.333333333 494 815 c 0
 494 801.666666667 493.833333333 782.333333333 493.5 757 c 128
 493.166666667 731.666666667 493 712.666666667 493 700 c 0
 493 699 493 699 493 696 c 128
 493 693 493 693 493 691 c 1
 493.666666667 691.666666667 495.166666667 692 497.5 692 c 128
 499.833333333 692 501.666666667 692.333333333 503 693 c 0
 540.333333333 697 565.666666667 700 579 702 c 0
 646.333333333 712 700.333333333 723 741 735 c 1
 741 735 741 735 741 652 c 1
 698.333333333 642 644.666666667 632.666666667 580 624 c 0
 569.333333333 624 555.666666667 623 539 621 c 128
 522.333333333 619 511 617.666666667 505 617 c 0
 503 616.333333333 498.666666667 615.666666667 492 615 c 1
 492 606.333333333 492.333333333 597.666666667 493 589 c 0
 493.666666667 564.333333333 495.666666667 548.666666667 499 542 c 0
 500.333333333 538.666666667 504.333333333 535.666666667 511 533 c 0
 521 527.666666667 534 524.666666667 550 524 c 0
 626 519.333333333 684 521.666666667 724 531 c 1
 723.333333333 525 722.833333333 514.5 722.5 499.5 c 128
 722.166666667 484.5 722 473.666666667 722 467 c 1
 721 467 721 467 720.5 467 c 128
 720 467 720 467 720 467 c 129
 720 467 l 1
 629.333333333 447.666666667 521.333333333 406.333333333 396 343 c 1
 396 343 396 343 345 400 c 1
 348.333333333 400.666666667 356.333333333 404 369 410 c 128
 381.666666667 416 398.166666667 423.5 418.5 432.5 c 128
 438.833333333 441.5 459 450 479 458 c 0
 491.666666667 462.666666667 499.333333333 465.666666667 502 467 c 1
 494 468.333333333 486.333333333 470 479 472 c 0
 458.333333333 478.666666667 444.666666667 493 438 515 c 0
 434.666666667 529.666666667 432.666666667 550.333333333 432 577 c 0
 432 583 432 583 432 595.5 c 128
 432 608 432 608 432 609 c 1
 414 607.666666667 396 606.666666667 378 606 c 0
 321.333333333 602 268 601 218 603 c 1
 218 603 218 603 218 683 c 1
 266.666666667 677.666666667 319.666666667 677 377 681 c 0
 391.666666667 681.666666667 409.666666667 683 431 685 c 1
 431.666666667 712.333333333 432 739.666666667 432 767 c 0
 432.666666667 789.666666667 431.333333333 810.666666667 428 830 c 1
 428 830 428 830 428 832 c 1
 473.333333333 833.333333333 496 834.333333333 496 835 c 1
614 385 m 1
 612.666666667 371.666666667 612 356.666666667 612 340 c 2
 612 340 612 340 612 287 c 1
 676.666666667 321 734.333333333 345.333333333 785 360 c 1
 785 360 785 360 822 300 c 1
 764.666666667 286 694.333333333 256 611 210 c 1
 610.333333333 194 609.833333333 177.666666667 609.5 161 c 128
 609.166666667 144.333333333 609 134.5 609 131.5 c 128
 609 127 609 127 609 115 c 0
 609.666666667 101.666666667 610.166666667 92.5 610.5 87.5 c 128
 610.833333333 82.5 612.333333333 76.1666666667 615 68.5 c 128
 617.666666667 60.8333333333 621.333333333 55.6666666667 626 53 c 256
 630 50.3333333333 636.666666667 47.3333333333 646 44 c 0
 655.333333333 42 667 40.6666666667 681 40 c 0
 694.333333333 40 710.333333333 40.3333333333 729 41 c 0
 788.333333333 43 847 49.3333333333 905 60 c 1
 905 60 905 60 903 -8 c 1
 831 -17.3333333333 767 -23.3333333333 711 -26 c 0
 671.666666667 -27.3333333333 640.833333333 -26.6666666667 618.5 -24 c 128
 596.166666667 -21.3333333333 579 -15.3333333333 567 -6 c 0
 555 4 547.333333333 15.3333333333 544 28 c 128
 540.666666667 40.6666666667 538.333333333 59 537 83 c 0
 537 102 537 102 537 167 c 1
 472.333333333 127.666666667 416.5 88.8333333333 369.5 50.5 c 128
 322.5 12.1666666667 298 -14 296 -28 c 0
 292.666666667 -36.6666666667 291 -45 291 -53 c 2
 291 -53 291 -53 294 -73 c 1
 225 -77 l 1
 190.333333333 -16.3333333333 173 43.6666666667 173 103 c 0
 173 110 173 110 173 119 c 1
 163.666666667 115.666666667 157.333333333 113.333333333 154 112 c 2
 154 112 154 112 153 112 c 1
 123.666666667 102.666666667 91 95.6666666667 55 91 c 1
 55 91 55 91 55 178 c 1
 90.3333333333 177.333333333 123 181.333333333 153 190 c 2
 153 190 153 190 162 193 c 2
 167.333333333 194.333333333 174 196.666666667 182 200 c 1
 188 238 197.333333333 281.666666667 210 331 c 0
 213.333333333 342.333333333 215 355 215 369 c 1
 215 369 215 369 310 363 c 1
 307.333333333 358.333333333 301.333333333 346.333333333 292 327 c 0
 279.333333333 293 269.333333333 261.333333333 262 232 c 1
 314 255.333333333 361.333333333 282.666666667 404 314 c 1
 404 314 404 314 429 246 c 1
 357.666666667 199.333333333 297.333333333 165.666666667 248 145 c 1
 244.666666667 100.333333333 249.666666667 61 263 27 c 1
 264.333333333 39.6666666667 292.666666667 68.5 348 113.5 c 128
 403.333333333 158.5 466.333333333 202 537 244 c 1
 537 255 537 255 537 259 c 2
 537 259 537 259 537 335 c 2
 537 349 535.666666667 364.333333333 533 381 c 1
 533 381 533 381 614 385 c 1
EndSplineSet
EndChar

StartChar: u1B024
Encoding: 110628 110628 134
Width: 1000
GlyphClass: 2
Flags: W
LayerCount: 2
Fore
SplineSet
393 733 m 1
 381 715 361.333333333 698.666666667 334 684 c 1
 381.333333333 679.333333333 395.666666667 649.666666667 377 595 c 1
 467 649 l 1
 477 616 l 1
 418.333333333 552 369.333333333 501.666666667 330 465 c 1
 250 470 l 1
 262 508 274.333333333 545.333333333 287 582 c 0
 304.333333333 626 270.666666667 632.666666667 186 602 c 1
 127 656 l 1
 219 707.333333333 287.333333333 752.333333333 332 791 c 1
 393 733 l 1
741 795 m 1
 727 750.333333333 717 714.833333333 711 688.5 c 128
 705 662.166666667 708.666666667 647.5 722 644.5 c 128
 735.333333333 641.5 747 640 757 640 c 128
 767 640 780.333333333 641 797 643 c 0
 803.666666667 643.666666667 815 645.333333333 831 648 c 1
 838 572 l 1
 820.666666667 571.333333333 805.666666667 570.666666667 793 570 c 0
 779 570 761.666666667 569.5 741 568.5 c 128
 720.333333333 567.5 697.333333333 570 672 576 c 128
 646.666666667 582 631 597.666666667 625 623 c 1
 624.333333333 645 625.666666667 666.333333333 629 687 c 128
 632.333333333 707.666666667 637.666666667 747.666666667 645 807 c 1
 741 795 l 1
101 437 m 1
 125 431.666666667 160.166666667 428 206.5 426 c 128
 252.833333333 424 298.333333333 425.5 343 430.5 c 128
 387.666666667 435.5 435.666666667 444.333333333 487 457 c 0
 510.333333333 462.333333333 535 468.666666667 561 476 c 1
 561 481 561 481 561 483 c 2
 561 508 l 2
 561 516.666666667 560.333333333 528 559 542 c 1
 646 542 l 1
 644.666666667 528 644 517 644 509 c 0
 643.333333333 507.666666667 643 506.333333333 643 505 c 1
 645 505.666666667 646.666666667 506.333333333 648 507 c 0
 660 511 673 516.666666667 687 524 c 1
 718 450 l 1
 699.333333333 442.666666667 681.333333333 436 664 430 c 0
 655.333333333 427.333333333 647 424.666666667 639 422 c 1
 639 410 638.666666667 397 638 383 c 0
 638.666666667 373 638.666666667 260.333333333 638 45 c 0
 638 11 632.5 -12.8333333333 621.5 -26.5 c 128
 610.5 -40.1666666667 586 -46.6666666667 548 -46 c 1
 508 -21.3333333333 452 9.66666666667 380 47 c 1
 388 75 l 1
 462.666666667 50.3333333333 506.166666667 36.6666666667 518.5 34 c 128
 530.833333333 31.3333333333 541 30 549 30 c 0
 553 30 556.166666667 31.8333333333 558.5 35.5 c 128
 560.833333333 39.1666666667 562 44.6666666667 562 52 c 2
 562 375 l 2
 562 388 562 388 562 399 c 1
 540.666666667 393 520 387.666666667 500 383 c 0
 446.666666667 370.333333333 395.333333333 361.333333333 346 356 c 128
 296.666666667 350.666666667 245.833333333 349 193.5 351 c 128
 141.166666667 353 105 354 85 354 c 1
 101 437 l 1
432 248 m 1
 393.333333333 226 356.333333333 210 321 200 c 1
 367 182 370 146 330 92 c 1
 294.666666667 50.6666666667 258.333333333 19 221 -3 c 1
 127 43 l 1
 175.666666667 58.3333333333 216 83.3333333333 248 118 c 1
 280.666666667 159.333333333 260 174.666666667 186 164 c 1
 149 234 l 1
 243 259.333333333 325.666666667 289.333333333 397 324 c 1
 432 248 l 1
696 191 m 1
 756 247 l 1
 783.333333333 226.333333333 807.5 207.333333333 828.5 190 c 128
 849.5 172.666666667 868.666666667 156.666666667 886 142 c 128
 903.333333333 127.333333333 923.666666667 107.333333333 947 82 c 1
 889 26 l 1
 867.666666667 51.3333333333 848.166666667 71.6666666667 830.5 87 c 128
 812.833333333 102.333333333 793.833333333 118.333333333 773.5 135 c 128
 753.166666667 151.666666667 727.333333333 170.333333333 696 191 c 1
EndSplineSet
EndChar

StartChar: u1B025
Encoding: 110629 110629 135
Width: 1000
GlyphClass: 2
Flags: W
LayerCount: 2
Fore
SplineSet
388 812 m 1
 392.666666667 782.666666667 402.666666667 744 418 696 c 1
 496 722.666666667 553 742 589 754 c 0
 591.666666667 755.333333333 596.666666667 757.333333333 604 760 c 128
 611.333333333 762.666666667 616.833333333 764.5 620.5 765.5 c 128
 624.166666667 766.5 629.166666667 767.666666667 635.5 769 c 128
 641.833333333 770.333333333 647.5 771 652.5 771 c 128
 657.5 771 662.666666667 770 668 768 c 0
 704.666666667 760 732 745 750 723 c 0
 769.333333333 697 773.333333333 671.666666667 762 647 c 0
 746.666666667 617 725.666666667 593.333333333 699 576 c 0
 661.666666667 553.333333333 603.666666667 532.666666667 525 514 c 1
 521.666666667 518 515.166666667 525.833333333 505.5 537.5 c 128
 495.833333333 549.166666667 487.666666667 557.666666667 481 563 c 1
 485.666666667 563.666666667 491.333333333 565 498 567 c 0
 523.333333333 572.333333333 559 584 605 602 c 0
 619 607.333333333 629.333333333 611.5 636 614.5 c 128
 642.666666667 617.5 651.166666667 622.5 661.5 629.5 c 128
 671.833333333 636.5 679.666666667 644.333333333 685 653 c 0
 689.666666667 659 691.833333333 665.833333333 691.5 673.5 c 128
 691.166666667 681.166666667 688.333333333 687.666666667 683 693 c 0
 671.666666667 705.666666667 655 708.333333333 633 701 c 0
 544.333333333 667.666666667 479.666666667 644 439 630 c 1
 442.333333333 620 446.666666667 606.333333333 452 589 c 0
 458 575.666666667 465.166666667 555.333333333 473.5 528 c 128
 481.833333333 500.666666667 488.666666667 480.333333333 494 467 c 1
 634 499 752 521.666666667 848 535 c 1
 848 535 848 535 864 462 c 1
 760.666666667 452.666666667 646 433 520 403 c 1
 521.333333333 398.333333333 524.833333333 388.333333333 530.5 373 c 128
 536.166666667 357.666666667 540.666666667 346 544 338 c 1
 557.333333333 336.666666667 568.666666667 335.333333333 578 334 c 0
 634.666666667 324.666666667 676.333333333 311 703 293 c 0
 719 283.666666667 731.166666667 270.333333333 739.5 253 c 128
 747.833333333 235.666666667 752.333333333 217.333333333 753 198 c 0
 755.666666667 165.333333333 744 132.333333333 718 99 c 1
 730.666666667 92.3333333333 743 86.3333333333 755 81 c 0
 791 63.6666666667 833 54 881 52 c 1
 875.666666667 42.6666666667 867.833333333 29.5 857.5 12.5 c 128
 847.166666667 -4.5 839.333333333 -18 834 -28 c 1
 816.666666667 -24.6666666667 800.666666667 -20.6666666667 786 -16 c 0
 730 2 688.333333333 20.6666666667 661 40 c 0
 657.666666667 43.3333333333 653 42.3333333333 647 37 c 0
 647 36.3333333333 646.666666667 36 646 36 c 0
 634.666666667 28 621.5 21 606.5 15 c 128
 591.5 9 578.833333333 4.83333333333 568.5 2.5 c 128
 558.166666667 0.166666666667 543.5 -3.33333333333 524.5 -8 c 128
 505.5 -12.6666666667 491.666666667 -16 483 -18 c 1
 477 10 471.333333333 31 466 45 c 1
 528 62.3333333333 572 79 598 95 c 1
 585.333333333 107 572.666666667 122 560 140 c 0
 531.333333333 187.333333333 509.666666667 229.333333333 495 266 c 1
 473.666666667 265.333333333 457.666666667 264.333333333 447 263 c 0
 439.666666667 263 432.5 262.166666667 425.5 260.5 c 128
 418.5 258.833333333 411.166666667 256.5 403.5 253.5 c 128
 395.833333333 250.5 389.5 248.166666667 384.5 246.5 c 128
 379.5 244.833333333 372.5 241.666666667 363.5 237 c 128
 354.5 232.333333333 348 229 344 227 c 1
 344.666666667 222.333333333 346.666666667 217.666666667 350 213 c 0
 370 173 373.666666667 130.666666667 361 86 c 0
 345 33.3333333333 318.333333333 -3.33333333333 281 -24 c 0
 264.333333333 -33.3333333333 246.166666667 -36.3333333333 226.5 -33 c 128
 206.833333333 -29.6666666667 190 -21 176 -7 c 0
 159.333333333 7 148.333333333 25.8333333333 143 49.5 c 128
 137.666666667 73.1666666667 138 95.3333333333 144 116 c 0
 158 168.666666667 191.333333333 213 244 249 c 1
 217.333333333 278.333333333 195 300 177 314 c 1
 141.666666667 303.333333333 108.333333333 293 77 283 c 1
 77 283 77 283 54 358 c 1
 79.3333333333 364.666666667 95 368.666666667 101 370 c 0
 111 372.666666667 142 380.833333333 194 394.5 c 128
 246 408.166666667 286 418.333333333 314 425 c 0
 338.666666667 429.666666667 374.666666667 438 422 450 c 1
 418.666666667 459.333333333 415.666666667 467.666666667 413 475 c 0
 407.666666667 491 399.833333333 513.666666667 389.5 543 c 128
 379.166666667 572.333333333 372 592.666666667 368 604 c 1
 312 583.333333333 259 563.333333333 209 544 c 1
 209 544 209 544 187 624 c 1
 214.333333333 630 267 645.666666667 345 671 c 1
 333.666666667 703 319.666666667 738.666666667 303 778 c 1
 303 778 303 778 388 812 c 1
447 384 m 1
 379.666666667 369.333333333 317.666666667 353.666666667 261 337 c 1
 261.666666667 336.333333333 273 323.666666667 295 299 c 0
 296.333333333 298.333333333 298.166666667 296.333333333 300.5 293 c 128
 302.833333333 289.666666667 305.333333333 288 308 288 c 0
 364 314 416 330.333333333 464 337 c 1
 462 341.666666667 459.166666667 349.333333333 455.5 360 c 128
 451.833333333 370.666666667 449.333333333 378.333333333 448 383 c 1
 448 383 448 383 447 383 c 1
 447 384 l 1
804 364 m 1
 812.666666667 354 820.666666667 343.666666667 828 333 c 0
 868 280.333333333 897 235 915 197 c 1
 906.333333333 191 894 183.166666667 878 173.5 c 128
 862 163.833333333 851.666666667 157.333333333 847 154 c 1
 844.333333333 162 841 170 837 178 c 0
 813 229.333333333 781.333333333 278 742 324 c 1
 742 324 742 324 804 364 c 1
583 261 m 1
 611 206.333333333 635 169.666666667 655 151 c 1
 674.333333333 185.666666667 677 212 663 230 c 0
 649.666666667 244.666666667 624.333333333 254.666666667 587 260 c 1
 587 260 587 260 583 261 c 1
284 193 m 1
 282 192.333333333 278.666666667 191 274 189 c 128
 269.333333333 187 266 185.333333333 264 184 c 0
 231.333333333 161.333333333 210 137 200 111 c 0
 194.666666667 93.6666666667 193.666666667 78.6666666667 197 66 c 0
 200.333333333 55.3333333333 207.333333333 46.5 218 39.5 c 128
 228.666666667 32.5 239 30.6666666667 249 34 c 0
 269.666666667 40.6666666667 285.666666667 59.3333333333 297 90 c 0
 307 120 302.666666667 153.666666667 284 191 c 1
 284 191 284 191 284 193 c 1
EndSplineSet
EndChar

StartChar: u1B026
Encoding: 110630 110630 136
Width: 1000
GlyphClass: 2
Flags: W
LayerCount: 2
Fore
SplineSet
239 656 m 1
 263 648.666666667 292.333333333 642.666666667 327 638 c 128
 361.666666667 633.333333333 395.666666667 631 429 631 c 0
 447 631 467.333333333 632.333333333 490 635 c 1
 488 651.666666667 486 669.333333333 484 688 c 0
 477.333333333 726.666666667 472.333333333 757.666666667 469 781 c 1
 560 790 l 1
 567 674 l 2
 567.666666667 664 568.666666667 654.666666667 570 646 c 1
 618 654.666666667 672.333333333 670.333333333 733 693 c 0
 747.666666667 699 761.333333333 705.333333333 774 712 c 1
 802 635 l 1
 782.666666667 631.666666667 764.666666667 626.666666667 748 620 c 0
 684.666666667 598 627.333333333 582.333333333 576 573 c 1
 587.333333333 440.333333333 594.333333333 338 597 266 c 0
 597.666666667 252 598 238.333333333 598 225 c 1
 704.666666667 186.333333333 813.666666667 116.666666667 925 16 c 1
 871 -54 l 1
 775.666666667 40 682.666666667 106.333333333 592 145 c 1
 587.333333333 115 579.666666667 90.6666666667 569 72 c 0
 547.666666667 30.6666666667 511.666666667 3 461 -11 c 1
 394.333333333 -24.3333333333 330.666666667 -21.6666666667 270 -3 c 1
 214 17 181.333333333 53.3333333333 172 106 c 0
 161.333333333 190 217.333333333 240.666666667 340 258 c 0
 399.333333333 264.666666667 459.333333333 261.666666667 520 249 c 1
 520 270 520 270 520 296 c 0
 518 362 511 450.333333333 499 561 c 1
 471.666666667 558.333333333 447.666666667 557 427 557 c 0
 389 557 349.666666667 559.5 309 564.5 c 128
 268.333333333 569.5 238.666666667 573 220 575 c 1
 239 656 l 1
348 184 m 1
 272 170.666666667 240.666666667 144.666666667 254 106 c 1
 268 78 290 61 320 55 c 0
 354.666666667 49 390 49 426 55 c 1
 466 65.6666666667 492 86.3333333333 504 117 c 0
 509.333333333 129.666666667 513.333333333 147.666666667 516 171 c 1
 459.333333333 186.333333333 403.333333333 190.666666667 348 184 c 1
EndSplineSet
EndChar

StartChar: u1B027
Encoding: 110631 110631 137
Width: 1000
GlyphClass: 2
Flags: W
LayerCount: 2
Fore
SplineSet
581 781 m 1
 579.666666667 767 578.833333333 755.833333333 578.5 747.5 c 128
 578.166666667 739.166666667 577.666666667 730.666666667 577 722 c 0
 576.333333333 715.333333333 575.333333333 692.666666667 574 654 c 1
 626 660 689 672.666666667 763 692 c 0
 778.333333333 697.333333333 792.666666667 703 806 709 c 1
 829 631 l 1
 809.666666667 627.666666667 791.333333333 623.666666667 774 619 c 0
 697.333333333 599.666666667 631.666666667 587 577 581 c 0
 575.666666667 580.333333333 574.333333333 580 573 580 c 1
 573.666666667 532 573.666666667 441.666666667 573 309 c 1
 599.666666667 301 624 291.333333333 646 280 c 0
 699.333333333 250.666666667 748 217.666666667 792 181 c 128
 836 144.333333333 871.333333333 110.333333333 898 79 c 1
 832 20 l 1
 792.666666667 68 753.666666667 108.166666667 715 140.5 c 128
 676.333333333 172.833333333 637.333333333 198.666666667 598 218 c 0
 590 221.333333333 581.666666667 224.666666667 573 228 c 1
 573 156 573 156 573 69 c 0
 573 35 567.666666667 11 557 -3 c 128
 546.333333333 -17 521.666666667 -23.6666666667 483 -23 c 1
 443 1.66666666667 387 33 315 71 c 1
 323 98 l 1
 397.666666667 73.3333333333 441.333333333 59.6666666667 454 57 c 128
 466.666666667 54.3333333333 476.666666667 53 484 53 c 0
 488 53 491.333333333 54.8333333333 494 58.5 c 128
 496.666666667 62.1666666667 498 68 498 76 c 2
 498 248 l 1
 473.333333333 252.666666667 445.333333333 256 414 258 c 1
 340 258 290 246 264 222 c 0
 244.666666667 202.666666667 218.666666667 173.666666667 186 135 c 1
 109 192 l 1
 160.333333333 236.666666667 195.666666667 270.333333333 215 293 c 0
 231.666666667 310.333333333 249 329 267 349 c 0
 293 379 314.166666667 405.833333333 330.5 429.5 c 128
 346.833333333 453.166666667 367.666666667 490 393 540 c 1
 467 513 l 1
 441.666666667 461 421.666666667 427.666666667 407 413 c 1
 394.333333333 396.333333333 373.333333333 365.666666667 344 321 c 1
 369.333333333 326.333333333 400.666666667 329 438 329 c 0
 458.666666667 328.333333333 478.666666667 326.666666667 498 324 c 1
 498 573 l 1
 472 571.666666667 446.666666667 571 422 571 c 0
 372.666666667 571 326.5 574.166666667 283.5 580.5 c 128
 240.5 586.833333333 209.333333333 591.333333333 190 594 c 1
 213 674 l 1
 236.333333333 666 266.5 659.166666667 303.5 653.5 c 128
 340.5 647.833333333 381.666666667 645 427 645 c 0
 449.666666667 645 473 645.666666667 497 647 c 1
 496.333333333 691.666666667 496 716.333333333 496 721 c 2
 496 747 l 2
 496 755.666666667 495.333333333 767 494 781 c 1
 581 781 l 1
EndSplineSet
EndChar

